<svg width="70" height="51" viewBox="0 0 70 51" fill="none" xmlns="http://www.w3.org/2000/svg">
<path d="M44.5229 29.342L46.1307 31.2899L35 17.7166L23.8692 31.2899L25.477 29.342L0 17.7166L13.3569 50.4286H35H56.6431L70 17.7166L44.5229 29.342Z" fill="#FFDE14"/>
<path d="M0 17.7166L25.477 29.342L23.8692 31.2899L0 17.7166Z" fill="#FFDE14"/>
<path d="M60.5079 2.81389C61.3118 3.09216 61.59 3.27767 62.3012 3.37043C62.734 3.43226 63.1669 3.18491 63.5379 3.154C63.4452 2.22643 63.8162 1.6699 63.507 1.23704C63.4761 1.1752 63.4452 1.14428 63.4142 1.11336C62.9814 0.711417 62.3939 1.26796 61.8374 1.20612C61.219 1.11336 60.9717 0.89693 60.2605 0.64958C59.6731 0.433149 58.4672 0.278555 57.1996 0.804174C57.1687 1.5153 57.1687 2.19552 57.1996 2.90665C58.5909 2.47378 59.8586 2.59746 60.5079 2.81389Z" fill="#2B7AF4"/>
<path d="M57.2306 5.34886C57.447 5.13243 57.7871 4.88508 58.22 4.73048C59.1785 4.45222 59.6423 5.07059 61.0954 5.44161C62.1467 5.71988 63.6617 5.84356 63.8472 5.19427C63.8472 5.16335 63.8781 5.10151 63.8163 4.73048C63.6926 3.772 63.5689 3.64833 63.538 3.15363C63.538 3.12271 63.538 3.12271 63.538 3.09179C63.1361 3.15363 62.7341 3.37006 62.3013 3.30822C61.5901 3.21547 61.3119 2.99904 60.508 2.75169C59.8587 2.53526 58.591 2.41158 57.2306 2.84444C57.2306 3.71017 57.2924 4.54497 57.2306 5.34886Z" fill="#FFDE14"/>
<path d="M57.1997 42.606C57.1069 42.606 57.0142 42.5441 57.0142 42.4205V0.185512C57.0142 0.0927557 57.076 0 57.1997 0C57.3233 0 57.3852 0.0618369 57.3852 0.185512V42.4514C57.3543 42.5441 57.2924 42.606 57.1997 42.606Z" fill="#2A2A4F"/>
<path opacity="0.2" d="M35 17.7166V37.6282L23.8693 31.2899L35 17.7166Z" fill="white"/>
<path d="M35 37.6282V50.4286H13.3569L0 17.7166L35 37.6282Z" fill="#FFDE14"/>
<path opacity="0.3" d="M35 37.6282V50.4286H13.3569L0 17.7166L35 37.6282Z" fill="white"/>
<path opacity="0.2" d="M70 17.7166L44.5229 29.342L46.1307 31.2899L70 17.7166Z" fill="#072450"/>
<path opacity="0.1" d="M35 17.7166V37.6282L46.1307 31.2899L35 17.7166Z" fill="#072450"/>
<path d="M35 37.6282V50.4286H56.6431L70 17.7166L35 37.6282Z" fill="#FFDE14"/>
</svg>
