<svg width="606" height="406" viewBox="0 0 606 406" fill="none" xmlns="http://www.w3.org/2000/svg">
<path d="M599.673 372.189L201.507 368.738V378.985C201.507 381.745 203.258 384.135 205.594 384.559L318.196 404.788C319.523 405.053 320.903 405.106 322.23 405L595.319 381.958C597.761 381.745 599.62 379.356 599.62 376.489V372.189H599.673Z" fill="#262672"/>
<path d="M471.463 355.571L205.86 374.366C201.082 374.684 197.259 371.127 197.259 366.402V176.489C197.259 171.764 201.135 167.888 205.86 167.888H471.463C475.392 167.888 478.524 171.339 478.524 175.639V347.288C478.577 351.589 475.392 355.305 471.463 355.571Z" fill="#262672"/>
<path d="M475.71 355.571L210.107 374.366C205.329 374.684 201.507 371.127 201.507 366.402V176.489C201.507 171.764 205.382 167.888 210.107 167.888H475.71C479.639 167.888 482.771 171.339 482.771 175.639V347.288C482.824 351.589 479.639 355.305 475.71 355.571Z" fill="url(#paint0_linear_220_573)"/>
<path d="M467.428 343.465L220.035 359.765C216.159 360.03 213.027 357.11 213.027 353.235V187.001C213.027 183.125 216.159 179.993 220.035 179.94L467.428 178.931C470.667 178.931 473.268 181.745 473.268 185.302V336.723C473.268 340.227 470.667 343.253 467.428 343.465Z" fill="#FFEC62"/>
<path d="M352.279 173.091C352.279 174.843 350.898 176.277 349.2 176.277C347.501 176.277 346.12 174.843 346.12 173.091C346.12 171.339 347.501 169.905 349.2 169.905C350.951 169.905 352.279 171.339 352.279 173.091Z" fill="#151560"/>
<path opacity="0.48" d="M411.738 303.487C391.246 292.443 375.16 306.407 359.605 292.656C350.208 284.32 354.827 278.055 343.201 265.579C330.353 251.774 322.018 256.393 309.118 243.97C292.819 228.254 300.942 215.99 286.926 204.734C269.885 191.036 251.516 203.726 235.271 190.559C228.263 184.878 224.441 176.648 222.424 167.888H206.55C203.789 167.888 201.507 170.118 201.507 172.932V369.746C201.507 372.507 203.789 374.631 206.55 374.419L477.25 355.252C478.577 355.146 479.745 354.403 480.488 353.235C460.686 352.491 448.476 345.855 440.725 339.006C425.488 325.573 428.143 312.3 411.738 303.487Z" fill="white"/>
<path d="M469.074 354.721L201.507 374.472L318.196 395.39C319.523 395.656 320.903 395.709 322.23 395.603L599.673 372.189L473.374 354.827C471.941 354.668 470.508 354.615 469.074 354.721Z" fill="url(#paint1_linear_220_573)"/>
<path d="M240.527 374.95L463.34 358.278L532.25 367.676L311.4 385.515L240.527 374.95Z" fill="#151560"/>
<path d="M528.799 69.7726L320.797 64.6226C314.904 64.4634 310.126 69.401 310.126 75.6128V117.768C310.126 123.98 314.904 129.024 320.797 129.024L528.799 128.971C533.736 128.971 537.718 124.352 537.718 118.724V80.2319C537.718 74.551 533.736 69.8788 528.799 69.7726Z" fill="#D8DCE6"/>
<path d="M469.658 87.771L330.353 85.4349V78.5859L469.658 81.2937V87.771Z" fill="white"/>
<path d="M469.658 98.6019L330.353 96.9029V90.054L469.658 92.1246V98.6019Z" fill="white"/>
<path d="M408.5 109.008L330.353 108.371V101.522L408.5 102.318V109.008Z" fill="white"/>
<path d="M561.926 98.7081C561.926 122.706 545.097 142.297 524.074 142.403C502.626 142.51 484.948 122.547 484.948 97.7524C484.948 72.9582 502.626 53.42 524.074 54.0571C545.15 54.7473 561.926 74.7102 561.926 98.7081Z" fill="#DBB61B"/>
<path d="M557.732 98.655C557.732 119.998 542.761 137.36 524.074 137.413C505.068 137.466 489.407 119.733 489.407 97.8055C489.407 75.8251 505.068 58.5169 524.074 59.0478C542.761 59.5787 557.732 77.3648 557.732 98.655Z" fill="#FFDE14"/>
<path d="M536.603 253.314L328.601 262.074C322.708 262.34 317.93 267.543 317.93 273.808V315.963C317.93 322.175 322.708 326.901 328.601 326.529L536.603 312.512C541.54 312.194 545.522 307.309 545.522 301.628V263.189C545.522 257.508 541.54 253.102 536.603 253.314Z" fill="#70A0E5"/>
<path d="M477.462 275.294L338.157 282.303V275.401L477.462 268.764V275.294Z" fill="white"/>
<path d="M477.462 286.125L338.157 293.718V286.869L477.462 279.648V286.125Z" fill="white"/>
<path d="M416.304 300.567L338.157 305.186V298.337L416.304 293.93V300.567Z" fill="white"/>
<path d="M569.73 280.073C569.73 304.071 552.901 324.777 531.878 326.317C510.43 327.856 492.752 309.061 492.752 284.267C492.752 259.473 510.43 238.714 531.878 237.97C552.954 237.174 569.73 256.022 569.73 280.073Z" fill="#2B7AF4"/>
<path d="M565.536 280.285C565.536 301.628 550.565 319.998 531.878 321.326C512.872 322.653 497.211 305.982 497.211 284.002C497.211 262.021 512.872 243.651 531.878 242.908C550.565 242.218 565.536 258.942 565.536 280.285Z" fill="#70A0E5"/>
<path d="M151.975 175.268L376.912 173.303C382.221 173.25 386.521 177.975 386.521 183.869V223.741C386.521 229.635 382.221 234.519 376.912 234.732L151.975 242.324C145.604 242.536 140.401 237.439 140.401 230.962V187.054C140.401 180.577 145.604 175.321 151.975 175.268Z" fill="white"/>
<path d="M224.122 195.602L368.152 193.213V186.577L224.122 188.594V195.602Z" fill="#D8DCE6"/>
<path d="M224.122 207.283L368.152 204.203V197.62L224.122 200.274V207.283Z" fill="#D8DCE6"/>
<path d="M291.386 217.211L368.152 215.247V208.61L291.386 210.362V217.211Z" fill="#D8DCE6"/>
<path d="M108.07 208.504C108.07 236.537 130.686 258.411 158.027 257.349C184.837 256.287 206.178 233.51 206.178 206.486C206.178 179.462 184.837 157.588 158.027 157.641C130.686 157.694 108.07 180.471 108.07 208.504Z" fill="#2B7AF4"/>
<path d="M113.804 208.398C113.804 233.245 133.818 252.624 158.027 251.721C181.864 250.819 200.869 230.643 200.869 206.592C200.869 182.541 181.864 163.163 158.027 163.216C133.818 163.322 113.804 183.55 113.804 208.398Z" fill="#70A0E5"/>
<path d="M167.53 130.298C169.441 140.864 141.198 134.811 133.287 155.464C125.643 175.374 116.777 184.081 109.079 188.063C95.1697 195.231 74.8898 187.745 62.8917 176.807C45.5317 160.88 62.1485 144.155 45.3724 132.156C30.2421 121.379 18.828 130.988 8.47568 121.06C-6.49536 106.778 -0.549414 70.0911 17.8193 47.6329C26.6851 36.802 45.8502 20.237 59.8126 25.5994C72.3415 30.4308 83.7556 45.8277 83.7556 69.1354C83.7556 86.9746 85.3483 105.61 95.7006 110.123C113.751 117.928 120.971 144.633 147.037 129.555C152.718 126.263 152.771 120.158 156.593 118.352C161.318 116.176 165.512 119.308 167.53 130.298Z" fill="#151560"/>
<path d="M196.835 91.3281C196.835 91.3281 227.414 104.654 222.264 138.793C217.115 173.038 170.98 162.472 170.98 162.472L168.22 138.528C168.22 138.528 203.524 140.227 199.118 118.034C194.34 93.7704 190.199 93.4518 190.199 93.4518L196.835 91.3281Z" fill="#FFDE14"/>
<path d="M157.284 126.316C157.284 126.316 156.275 134.599 153.249 136.51C150.223 138.421 145.286 140.864 144.755 141.554C144.224 142.244 163.495 144.421 172.945 139.589C169.813 138.899 169.016 138.687 169.016 138.687C168.167 138.421 166.574 137.997 165.035 137.041C163.973 136.404 162.221 135.183 160.628 132.847L160.681 128.281L157.284 126.316Z" fill="#D88B4C"/>
<path d="M156.806 129.236C156.806 129.236 158.77 131.997 161.849 130.882C164.61 129.874 162.964 122.653 160.787 121.803C160.044 121.538 158.717 121.644 157.814 122.175C157.177 122.547 155.479 124.67 156.487 127.06C155.797 126.847 155.16 127.007 155.001 127.378C154.788 127.803 155.372 128.44 155.532 128.599C156.009 129.077 156.593 129.183 156.806 129.236Z" fill="#F4A45B"/>
<path d="M176.236 139.802C171.405 138.634 162.38 136.563 150.701 139.005C134.509 142.403 124.315 152.279 120.44 156.42C123.572 158.49 132.279 164.702 136.579 176.595C137.906 180.259 141.835 192.841 136.207 204.734C132.969 211.636 127.235 216.892 122.829 220.874C120.652 222.892 118.794 224.325 117.255 225.547C123.997 241.581 139.817 252.358 158.08 251.668C168.114 251.297 177.298 247.474 184.571 241.368C184.306 239.138 184.04 236.696 183.775 233.882C183.138 227.564 181.864 214.397 181.864 206.858C181.864 202.398 183.35 195.124 186.376 180.524C186.536 179.674 188.181 171.817 189.509 161.304C190.676 151.854 190.517 148.987 188.871 146.332C188.075 145.27 185.845 142.138 176.236 139.802Z" fill="#FFDE14"/>
<path opacity="0.15" d="M155.532 173.569C154.045 170.065 142.153 158.172 121.502 155.358C121.13 155.73 120.759 156.101 120.44 156.473C123.572 158.544 132.279 164.755 136.579 176.648C137.906 180.312 141.835 192.895 136.207 204.787C132.969 211.689 127.235 216.946 122.829 220.928C120.652 222.945 118.794 224.379 117.255 225.6C120.546 233.457 126.014 240.041 132.916 244.66C133.659 243.28 134.562 241.74 136.048 239.988C142.047 232.767 146.825 234.254 150.966 228.785C154.576 224.007 153.355 219.6 153.461 208.345C153.514 184.718 158.876 181.692 155.532 173.569Z" fill="#44360A"/>
<path d="M192.004 92.6024L190.623 88.3019C190.411 87.7179 191.101 87.2401 191.579 87.6117C192.747 88.5674 192.375 90.8504 197.366 81.9839C199.383 78.4267 198.162 86.5499 197.047 88.7798C196.304 90.3195 196.357 91.1159 195.667 91.6468C194.605 92.4963 193.225 93.2927 192.004 92.6024Z" fill="#F4A45B"/>
<path d="M142.578 181.002C144.595 185.355 135.252 195.655 124.793 200.646C122.67 201.655 107.168 209.088 100.16 202.345C94.3734 196.717 98.0896 184.878 99.4168 180.683C105.947 160.03 125.749 149.518 133.978 145.801C140.083 161.198 136.473 168.047 135.092 170.224C133.606 172.454 129.465 177.232 125.059 181.426C121.926 184.4 120.015 185.833 120.281 186.311C120.599 186.895 124.262 185.78 138.331 178.719C139.977 178.931 141.888 179.515 142.578 181.002Z" fill="#FFDE14"/>
<path d="M176.714 155.464L152.399 157.8C151.869 157.853 151.444 158.225 151.285 158.703L142.1 191.302C141.835 192.151 142.525 193.001 143.427 192.895L168.114 190.293C168.645 190.24 169.069 189.868 169.175 189.337L177.988 156.951C178.254 156.208 177.563 155.358 176.714 155.464Z" fill="white"/>
<path opacity="0.3" d="M160.575 183.444C161.478 178.347 158.664 174.365 161.371 169.587C164.185 164.649 169.069 165.446 172.573 161.411C173.688 160.136 174.697 158.278 175.175 155.623L176.767 155.464C177.617 155.358 178.307 156.208 178.094 157.057L169.282 189.444C169.122 189.974 168.698 190.346 168.22 190.399L155.744 191.727C158.823 188.7 160.097 185.939 160.575 183.444Z" fill="url(#paint2_linear_220_573)"/>
<path d="M139.074 179.993C139.074 179.993 147.568 171.127 151.019 169.799C154.47 168.472 151.391 177.763 149.373 179.09C147.356 180.418 146.56 180.949 144.967 181.161C143.374 181.373 143.374 181.373 143.374 181.373L141.304 182.541C141.357 182.541 138.649 182.223 139.074 179.993Z" fill="#F4A45B"/>
<path d="M456.174 198.416C456.174 198.416 460.952 191.939 460.421 190.346C459.943 188.753 452.882 186.789 451.236 183.338C449.591 179.94 448.9 183.71 451.236 186.948C453.519 190.187 453.519 190.187 453.519 190.187L456.333 191.674L453.201 195.815L456.174 198.416Z" fill="#FFD28A"/>
<path d="M459.412 197.779C457.076 195.178 454.846 194.169 452.776 194.01C443.645 193.426 432.549 210.309 431.753 225.759C431.7 226.874 431.063 244.129 443.751 254.695C462.066 269.879 494.769 260.11 500.237 246.2C502.042 241.634 501.511 235.05 501.458 233.882C500.874 226.502 498.167 221.193 496.521 218.485C482.452 223.317 464.88 226.609 459.465 219.494C455.43 214.238 453.731 206.327 459.412 197.779Z" fill="#389BA0"/>
<path d="M572.279 216.733C561.13 213.548 543.929 210.309 522.747 212.804C510.324 214.238 499.6 217.317 491.053 220.45C489.885 225.334 488.505 232.449 488.133 241.156C486.646 279.489 507.139 310.442 505.652 311.185C504.537 311.716 517.438 326.529 530.179 324.671C540.797 323.078 557.414 318.724 557.52 309.699C557.626 295.788 557.361 286.391 557.308 282.993C557.095 267.49 560.387 255.332 564.634 239.829C567.235 230.113 570.102 222.255 572.279 216.733Z" fill="#389BA0"/>
<path d="M523.702 197.142C523.968 201.071 524.658 204.15 525.242 206.221C525.879 208.61 526.251 209.194 526.729 209.672C527.419 210.362 528.427 210.893 533.842 211.583C536.762 211.955 537.134 211.902 537.24 212.167C537.665 213.601 530.179 219.653 521.897 219.547C516.801 219.441 511.97 217.052 512.129 215.406C512.288 213.76 517.385 213.972 518.659 210.893C519.562 208.769 518.128 206.062 516.589 203.885C517.65 201.071 522.534 199.903 523.702 197.142Z" fill="#E2B471"/>
<path d="M513.616 201.071C511.97 199.956 511.014 197.195 511.811 194.965C512.448 193.054 514.2 192.151 515.208 191.62C518.181 190.081 522.481 189.975 524.711 192.364C526.038 193.797 525.454 198.098 525.401 198.841C525.348 199.691 524.87 200.168 524.499 200.912C524.021 201.974 523.331 203.619 522.163 206.327C521.844 205.796 521.367 205.106 520.783 204.416C520.57 204.15 519.615 203.142 518.5 202.451C516.27 201.071 515.155 202.133 513.616 201.071Z" fill="#913709"/>
<path d="M524.18 203.619C524.18 203.619 523.278 207.814 519.137 209.088C515.474 210.256 512.235 202.027 513.987 199.372C514.571 198.469 516.005 197.673 517.385 197.514C518.181 197.461 518.553 197.673 519.88 197.514C521.101 197.408 521.367 197.142 521.791 197.301C522.322 197.514 522.906 198.31 523.012 201.018C523.49 200.009 524.18 199.425 524.87 199.531C524.977 199.531 525.295 199.637 525.508 199.85C526.304 200.646 525.879 202.186 524.18 203.619Z" fill="#FFD28A"/>
<path d="M521.844 196.824C521.738 197.036 522.481 197.514 522.8 198.416C523.437 200.221 522.375 203.142 520.57 204.044C519.508 204.575 519.031 203.991 517.173 204.522C516.005 204.841 515.155 205.318 514.624 205.69C514.677 207.92 515.898 209.778 517.491 210.203C519.19 210.681 520.836 209.353 521.473 208.822C521.897 208.451 523.331 207.283 523.702 205.425C524.074 203.513 522.906 202.876 523.543 201.39C523.862 200.646 524.446 200.168 524.764 198.841C524.87 198.469 524.87 198.204 524.924 197.992C523.649 197.301 522.004 196.505 521.844 196.824Z" fill="#913709"/>
<path d="M516.111 205.902C516.111 205.902 517.013 206.009 518.34 205.425C518.394 205.371 518.5 205.371 518.5 205.425C518.553 205.531 517.916 206.486 517.013 206.54C516.376 206.593 515.792 206.221 515.792 206.009C515.845 205.956 516.005 205.956 516.111 205.902Z" fill="#FFD28A"/>
<path opacity="0.15" d="M509.209 317.45C514.412 313.097 514.996 307.15 521.26 303.858C531.4 298.496 542.921 307.15 544.62 304.177C546.371 301.151 532.675 293.824 534.214 285.011C535.435 278.002 544.832 278.268 549.557 268.446C554.016 259.154 549.185 251.403 553.273 247.952C554.759 246.731 557.361 246.04 562.404 247.952C559.272 259.845 557.095 270.251 557.255 282.94C557.308 286.338 557.626 295.735 557.467 309.646C557.414 318.671 541.434 324.352 532.887 324.618C523.703 324.883 508.466 318.087 509.209 317.45Z" fill="#072450"/>
<path d="M563.944 282.303L560.281 282.462C560.281 282.462 556.14 279.277 554.282 279.648C552.423 280.073 549.716 281.719 549.397 282.037C549.079 282.356 550.459 283.843 551.786 283.524C553.114 283.205 556.14 283.683 556.724 284.904C557.308 286.126 559.644 286.656 560.015 285.86L565.006 286.391L563.944 282.303Z" fill="#FFD28A"/>
<path d="M562.776 281.029C562.617 284.267 563.307 286.391 564.475 287.771C569.518 293.877 585.71 289.47 595.054 279.648C601.902 272.428 605.353 262.021 604.981 252.996C604.238 235.422 588.63 219.335 565.643 215.034C562.563 226.237 559.431 237.439 556.352 248.695C570.58 247.686 576.738 258.039 575.676 266.269C574.88 272.428 571.164 278.852 562.776 281.029Z" fill="#389BA0"/>
<path d="M515.898 36.1649C510.059 37.7577 502.573 44.3943 498.645 48.1108C489.513 56.6587 472.206 86.0721 482.346 96.903C489.195 104.177 501.087 101.31 506.342 94.0891C510.165 88.8329 507.829 83.9484 507.033 74.3386C506.13 64.0386 509.846 46.1463 515.898 36.1649Z" fill="#6292CC"/>
<path d="M511.014 38.8195C506.979 43.4917 505.546 43.067 502.414 49.5974C497.636 59.4726 501.14 70.9937 501.671 83.3643C502.148 94.62 501.83 113.946 497.795 127.644C497.264 129.449 516.27 142.722 533.895 138.793C542.921 136.776 557.042 118.671 556.724 116.335C552.53 89.47 543.292 52.4644 546.371 38.3948C544.619 38.2886 541.116 36.3242 539.682 35.8463C533.524 33.8819 527.95 33.4041 522.057 33.9881C519.88 34.2005 518.818 34.6783 517.226 35.2092C514.624 36.1118 512.978 37.5453 511.014 38.8195Z" fill="#70A0E5"/>
<path d="M533.789 20.7679C533.683 24.9092 535.063 30.9617 535.594 34.6782C536.125 38.3947 528.64 38.3416 526.144 36.4834C523.862 34.8375 525.561 30.5901 527.79 28.4133C529.914 26.2365 531.559 22.9978 533.789 20.7679Z" fill="#D88B4C"/>
<path d="M522.481 19.0159C518.978 15.7773 518.341 4.68089 521.897 2.71646C523.596 1.76079 526.569 7.33553 528.534 8.45048C531.135 9.99016 538.143 11.8484 539.523 14.7154C540.585 16.8922 538.461 21.1927 537.612 22.7324C536.656 24.4845 536.55 23.8474 535.382 25.0685C533.789 26.7675 531.666 28.7319 530.02 30.6432C529.648 29.1566 529.755 29.1566 529.118 27.1922C528.905 26.4489 526.941 23.2103 526.038 21.9891C525.508 21.1396 522.906 19.3876 522.481 19.0159Z" fill="#382D1D"/>
<path d="M533.577 27.9886C530.922 30.3778 529.595 33.351 524.764 32.2891C520.411 31.3335 519.668 20.2902 523.649 17.2108C524.977 16.202 526.888 16.2551 528.533 16.8391C529.489 17.1577 530.498 17.8479 531.453 18.2726C532.356 18.6443 533.099 18.2726 533.895 19.2283C534.904 20.3964 534.214 23.2634 533.63 24.6438C534.055 24.2721 534.586 23.7412 535.17 23.5819C535.594 23.4757 536.284 22.7855 536.709 23.4226C537.346 24.4314 535.966 26.2366 535.17 26.9798C534.798 27.3515 534.055 27.7231 533.577 27.9886Z" fill="#F4A45B"/>
<path d="M534.214 18.538C533.63 18.8566 534.692 20.0246 534.532 21.0865C534.214 23.2102 533.577 27.0329 530.498 27.2452C528.693 27.4045 526.781 25.7056 524.87 25.387C523.702 25.2277 522.375 25.2277 521.207 25.4932C520.464 27.7762 520.411 31.3865 522.375 32.8731C524.499 34.4659 525.879 33.7226 528.162 33.1385C529.648 32.7669 531.347 31.4927 532.25 30.0592C533.258 28.5195 533.948 26.9267 534.904 25.3339C535.435 24.4313 536.072 23.3695 536.709 22.4138C536.868 22.1483 537.134 21.7767 537.293 21.4051C536.815 21.0334 535.063 18.0602 534.214 18.538Z" fill="#382D1D"/>
<path d="M523.596 27.2453C524.499 27.7762 525.561 27.8293 526.516 27.8824C526.569 27.8824 526.782 27.8293 526.676 27.9886C526.357 28.6257 525.03 28.8381 524.393 28.6257C523.915 28.4665 523.119 27.8293 523.172 27.3515C523.225 27.086 523.49 27.2984 523.596 27.2453Z" fill="white"/>
<path opacity="0.15" d="M516.642 118.299C514.89 116.335 512.182 113.202 512.023 108.796C511.598 97.54 528.746 93.3988 528.109 84.3199C527.578 77.2586 517.12 77.8426 511.067 65.1004C510.059 62.9236 506.236 54.588 508.997 45.2968C510.112 41.6334 511.917 38.9257 513.244 37.2267C512.501 37.7045 511.758 38.2354 511.014 38.7664C506.98 43.4385 505.546 43.0138 502.414 49.5442C497.636 59.4194 501.14 70.9406 501.671 83.3112C502.149 94.5668 501.83 113.893 497.795 127.59C496.999 130.351 515.049 140.545 527.259 140.227C535.594 140.014 554.547 125.467 550.725 126.051C541.381 127.59 525.401 128.281 516.642 118.299Z" fill="#072450"/>
<path d="M498.485 74.8695C494.928 74.604 497.37 72.5334 496.309 72.7988C495.618 72.9581 478.948 89.0452 484.204 97.7524C489.195 106.035 509.846 100.673 517.066 98.1772C521.048 96.7967 532.834 92.4962 539.894 81.1875C540.532 80.1787 541.009 79.2762 541.328 78.6921C525.773 76.3561 518.287 75.6658 514.359 75.6128C511.81 75.5066 509.262 75.6658 498.485 74.8695Z" fill="#6292CC"/>
<path d="M504.484 73.3829C504.909 76.9932 506.767 88.0896 516.058 97.2215C517.916 99.0267 530.286 110.866 547.486 108.052C560.759 105.876 572.438 95.6818 575.146 82.8334C580.401 57.8267 548.973 34.6252 541.647 38.1824C536.709 40.6247 535.276 58.9948 542.708 68.4984C544.301 70.569 547.274 73.436 546.796 76.9401C546.371 80.2849 542.974 82.4086 541.063 83.5236C532.037 88.9391 512.023 74.1793 506.714 72.9051C506.289 72.9051 506.024 72.5334 504.484 73.3829Z" fill="#70A0E5"/>
<path opacity="0.15" d="M552.795 68.6576C549.716 65.419 546.106 63.6138 542.071 62.2865C541.063 61.9679 540.054 61.7025 539.045 61.3839C539.895 64.0385 541.063 66.4808 542.655 68.5514C544.248 70.622 547.221 73.4891 546.743 76.9932C546.318 80.338 542.921 82.4617 541.01 83.5767C531.984 88.9921 511.97 74.2324 506.661 72.9581C506.29 72.9581 505.971 72.5865 504.431 73.436C504.538 74.3385 504.75 75.7189 505.122 77.4179C512.713 75.1349 520.889 82.8865 527.366 86.7091C535.648 91.5937 545.894 94.7792 553.857 88.6736C559.856 84.1076 557.679 73.9669 552.795 68.6576Z" fill="#072450"/>
<path opacity="0.15" d="M556.671 44.0226C555.29 48.7478 555.131 53.5793 557.892 58.2514C561.873 64.8349 566.333 70.3566 567.979 77.6303C569.412 83.789 568.562 89.8416 566.811 95.788C566.333 97.3808 565.536 98.7612 564.581 99.9823C569.837 95.4694 573.712 89.47 575.146 82.7803C578.437 67.0648 567.288 52.1458 556.671 44.0226Z" fill="#072450"/>
<path d="M539.895 81.1875C540.319 82.2494 542.443 83.3643 543.451 83.2581C545.15 83.0989 546.371 81.9308 547.433 81.3999C548.389 80.9751 550.512 80.3911 550.672 79.5947C550.937 78.1081 548.601 77.6834 547.221 77.5241C545.31 77.3118 543.239 77.8427 541.328 78.6922C540.85 79.4886 540.319 80.338 539.895 81.1875Z" fill="#F4A45B"/>
<path d="M501.299 75.0818C508.253 76.1968 509.846 75.772 510.005 75.1349C510.271 74.3385 508.413 72.7458 506.395 72.4272C504.378 72.1086 502.361 73.1705 501.299 75.0818Z" fill="#F4A45B"/>
<path d="M527.843 37.3329C528.109 37.9169 528.374 38.5009 528.64 39.0849C528.799 39.3504 528.905 39.6159 529.064 39.8282C529.595 39.9344 530.179 40.0406 530.71 40.0937C531.082 39.2973 531.4 38.5009 531.772 37.6514C531.241 37.7045 530.551 37.7045 529.755 37.6514C529.064 37.5984 528.374 37.4922 527.843 37.3329Z" fill="#09467C"/>
<path d="M529.118 39.6689C529.118 39.6689 527.206 58.5169 521.314 61.3308C521.473 61.9679 521.26 66.9055 521.26 66.9055C521.26 66.9055 526.729 65.4189 527.047 65.5782C527.366 65.6844 533.789 55.3844 530.763 40.1468L529.118 39.6689Z" fill="#09467C"/>
<path d="M560.174 301.628C554.175 312.672 543.823 320.423 531.878 321.273C518.925 322.175 507.564 314.742 501.618 302.956L497.477 305.186C504.113 318.724 517.12 327.325 531.878 326.264C545.522 325.255 557.414 316.229 564.05 303.434L560.174 301.628Z" fill="#2B7AF4"/>
<path d="M556.246 110.123C552.636 122.122 543.239 133.006 531.719 136.245C519.243 139.749 506.555 134.758 498.379 124.405L494.769 127.484C504.007 139.43 518.5 145.217 532.728 141.182C545.894 137.466 555.715 126.21 559.644 112.353L556.246 110.123Z" fill="#DBB61B"/>
<path d="M540.213 242.111L537.93 239.775L535.594 242.111L540.213 246.731L544.832 242.111L542.496 239.775L540.213 242.111Z" fill="#3B60A7"/>
<path d="M540.213 237.386L537.877 235.103L535.541 237.439L540.213 242.111L544.885 237.439L542.549 235.103L540.213 237.386Z" fill="#F8DC38"/>
<defs>
<linearGradient id="paint0_linear_220_573" x1="201.507" y1="271.127" x2="482.801" y2="271.127" gradientUnits="userSpaceOnUse">
<stop stop-color="#43467B"/>
<stop offset="0.9964" stop-color="#3E3D69"/>
</linearGradient>
<linearGradient id="paint1_linear_220_573" x1="201.507" y1="375.157" x2="599.654" y2="375.157" gradientUnits="userSpaceOnUse">
<stop stop-color="#43467B"/>
<stop offset="0.9964" stop-color="#3E3D69"/>
</linearGradient>
<linearGradient id="paint2_linear_220_573" x1="174.385" y1="240.454" x2="170.829" y2="209.235" gradientUnits="userSpaceOnUse">
<stop stop-color="#9D7FF4"/>
<stop offset="0.9964" stop-color="#6265D2"/>
</linearGradient>
</defs>
</svg>
