<svg width="1920" height="1059" viewBox="0 0 1920 1059" fill="none" xmlns="http://www.w3.org/2000/svg">
<path d="M1532.36 68.8302L1535.98 72.615L1510.93 46.4682L1492.67 78.1675L1495.27 73.5847L1442.76 55.2071L1476.92 121.52L1519.06 116.119L1561.19 110.717L1579.09 37.7292L1532.36 68.8302Z" fill="#1961AC"/>
<path d="M1442.74 55.2793L1495.24 73.6546L1492.64 78.2366L1442.74 55.2793Z" fill="#1961AC"/>
<path d="M1557.11 8.46117C1558.74 8.82928 1559.31 9.18957 1560.77 9.19439C1561.61 9.23028 1562.38 8.60094 1563.11 8.41047C1562.7 6.43722 1563.26 5.207 1562.54 4.33525C1562.44 4.20393 1562.39 4.16202 1562.3 4.12573C1561.37 3.37709 1560.38 4.75848 1559.27 4.70876C1558.03 4.67587 1557.55 4.30436 1556.09 3.91379C1554.86 3.59019 1552.52 3.60262 1550.21 5.00987C1550.3 6.49412 1550.52 8.00904 1550.73 9.47645C1553.28 8.2312 1555.79 8.19632 1557.11 8.46117Z" fill="#2B7AF4"/>
<path d="M1551.34 14.6999C1551.72 14.2161 1552.31 13.5617 1553.1 13.1699C1554.9 12.3108 1555.97 13.5709 1558.89 13.9663C1561 14.2727 1563.99 14.1761 1564.18 12.7532C1564.21 12.6525 1564.2 12.5575 1564.02 11.8085C1563.57 9.84084 1563.28 9.58942 1563.07 8.55527C1563.06 8.50776 1563.06 8.46024 1563.06 8.46024C1562.33 8.6507 1561.52 9.23814 1560.72 9.24415C1559.31 9.23371 1558.73 8.87342 1557.06 8.51092C1555.74 8.19854 1553.23 8.23341 1550.68 9.52617C1550.97 11.2255 1551.27 12.9724 1551.34 14.6999Z" fill="#FFDE14"/>
<path d="M1560.36 93.8593C1560.19 93.8821 1560 93.7624 1559.97 93.525L1549.66 3.77858C1549.64 3.58864 1549.75 3.38164 1549.97 3.35319C1550.19 3.32475 1550.34 3.45013 1550.37 3.68756L1560.68 93.4814C1560.69 93.6239 1560.54 93.8366 1560.36 93.8593Z" fill="#2A2A4F"/>
<path opacity="0.1" d="M1510.92 46.5262L1515.85 88.8713L1492.71 78.1912L1510.92 46.5262Z" fill="white"/>
<path d="M1515.78 88.8853L1518.96 116.131L1476.88 121.525L1442.75 55.2461L1515.78 88.8853Z" fill="#1961AC"/>
<path opacity="0.2" d="M1515.78 88.8853L1518.96 116.131L1476.88 121.525L1442.75 55.2461L1515.78 88.8853Z" fill="white"/>
<path opacity="0.2" d="M1579.2 37.7387L1532.47 68.8332L1536.09 72.6174L1579.2 37.7387Z" fill="#072450"/>
<path opacity="0.1" d="M1511 46.5061L1515.94 88.8512L1536 72.6264L1511 46.5061Z" fill="#072450"/>
<path d="M1515.97 88.8219L1519.15 116.067L1561.24 110.673L1579.11 37.7298L1515.97 88.8219Z" fill="#1961AC"/>
<path d="M180.285 84.7392L183.882 88.4943L159.012 62.553L140.468 94.1848L143.112 89.6119L90.6854 71.5092L124.34 137.411L166.576 131.875L208.811 126.339L227.339 53.5968L180.285 84.7392Z" fill="#1961AC"/>
<path d="M90.6854 71.3871L143.114 89.4922L140.471 94.0662L90.6854 71.3871Z" fill="#1961AC"/>
<path d="M205.312 24.3184C206.945 24.6777 207.515 25.0336 208.975 25.0323C209.82 25.0645 210.592 24.4353 211.324 24.2427C210.933 22.2817 211.507 21.0556 210.793 20.1915C210.69 20.0613 210.642 20.0198 210.549 19.9841C209.627 19.2433 208.627 20.6215 207.515 20.5767C206.273 20.5492 205.79 20.1817 204.332 19.7993C203.102 19.4826 200.758 19.5048 198.433 20.9143C198.506 22.3903 198.715 23.8963 198.918 25.355C201.482 24.1057 204 24.0604 205.312 24.3184Z" fill="#2B7AF4"/>
<path d="M199.488 30.5767C199.878 30.0939 200.471 29.4405 201.269 29.0474C203.078 28.1853 204.144 29.4342 207.063 29.8153C209.176 30.1112 212.174 30.0025 212.373 28.5863C212.407 28.486 212.396 28.3915 212.227 27.6472C211.792 25.6918 211.499 25.4429 211.299 24.4151C211.293 24.3679 211.288 24.3206 211.288 24.3206C210.557 24.5131 209.736 25.1009 208.94 25.1102C207.523 25.1058 206.953 24.7498 205.276 24.3962C203.959 24.0911 201.441 24.1363 198.882 25.433C199.155 27.1222 199.433 28.8587 199.488 30.5767Z" fill="#FFDE14"/>
<path d="M208.09 109.735C207.914 109.758 207.723 109.638 207.697 109.401L197.901 19.6563C197.88 19.4663 197.992 19.2593 198.212 19.2307C198.432 19.2021 198.579 19.3274 198.605 19.5648L208.406 109.357C208.421 109.499 208.266 109.712 208.09 109.735Z" fill="#2A2A4F"/>
<path opacity="0.1" d="M159.014 62.455L163.62 104.726L140.461 94.1481L159.014 62.455Z" fill="white"/>
<path d="M163.628 104.697L166.589 131.862L124.348 137.406L90.6854 71.4245L163.628 104.697Z" fill="#1961AC"/>
<path opacity="0.2" d="M163.628 104.697L166.589 131.862L124.348 137.406L90.6854 71.4245L163.628 104.697Z" fill="white"/>
<path opacity="0.2" d="M227.324 53.5966L180.268 84.7462L183.864 88.502L227.324 53.5966Z" fill="#072450"/>
<path opacity="0.1" d="M158.998 62.4923L163.604 104.763L183.881 88.4824L158.998 62.4923Z" fill="#072450"/>
<path d="M163.603 104.807L166.565 131.973L208.806 126.428L227.336 53.5968L163.603 104.807Z" fill="#1961AC"/>
<path d="M2255.44 588.443C2252.74 336.843 2244.84 31.6429 2233.44 33.8429C2209.04 38.6429 2188.34 58.9429 2165.44 70.7429C2119.94 94.2429 2068.24 83.0429 2024.74 60.8429C1998.24 47.2429 1969.94 29.3429 1940.94 39.2429C1921.04 45.9429 1905.34 64.6429 1886.74 75.7429C1848.24 98.6429 1803.24 86.2429 1765.34 67.6429C1727.54 49.0429 1690.54 24.2429 1648.54 23.0429C1638.74 22.7429 1628.54 23.9429 1619.44 29.0429C1601.14 39.3429 1591.34 62.8429 1576.94 79.7429C1545.44 116.943 1495.24 119.143 1453.54 107.943C1428.64 101.243 1404.54 90.8429 1379.94 83.2429C1377.14 81.9429 1374.24 80.7429 1371.34 79.5429C1350.74 71.0429 1327.84 64.1429 1305.04 66.6429C1278.94 69.4429 1257.64 83.8429 1233.44 91.9429C1185.54 107.943 1129.44 98.0429 1081.84 80.2429C1052.74 69.3429 1021.64 55.2429 990.94 61.5429C969.84 65.9429 953.74 79.2429 934.14 86.8429C893.74 102.543 844.84 92.0429 803.34 77.1429C761.84 62.2429 721.141 42.7429 675.94 40.5429C665.341 40.0429 654.44 40.5429 644.94 44.0429C625.74 51.1429 616.141 68.2429 601.44 80.3429C569.141 106.943 515.24 107.043 469.94 97.4429C424.641 87.8429 381.24 70.5429 334.641 68.1429C311.141 66.9429 285.94 71.3429 265.641 80.6429C245.341 88.0429 227.341 104.543 207.44 114.743C161.94 138.243 110.24 127.043 66.7404 104.843C40.2404 91.2429 11.9405 73.3429 -17.0595 83.2429C-36.9595 89.9429 -52.6595 108.643 -71.2595 119.743C-109.76 142.643 -154.76 130.243 -192.66 111.643C-230.46 93.0429 -267.46 68.2429 -309.36 67.0429C-314.76 66.9429 -314.56 353.143 -313.16 608.443C-303.76 750.443 -307.66 980.843 -302.86 1048.64C-248.76 1047.04 -184.96 1056.54 -130.76 1058.54C-66.9595 1060.94 6.14047 1049.04 43.4405 1007.84C60.4405 989.043 69.2405 965.043 93.6405 951.743C105.74 945.143 120.44 942.043 134.84 940.443C196.64 933.343 256.74 949.443 316.74 959.643C376.641 969.743 445.64 972.543 496.54 943.543C521.24 929.443 539.741 908.843 567.341 898.543C607.44 883.643 653.241 894.943 695.341 902.543C764.341 915.043 842.84 915.443 903.94 884.443C912.84 879.943 921.24 874.843 929.54 869.643C938.24 862.743 948.24 856.643 959.24 851.443C970.34 845.243 981.94 839.843 994.84 836.443C1005.84 833.543 1017.14 832.143 1028.54 831.843C1031.54 831.443 1034.54 831.243 1037.54 830.943C1101.54 826.043 1163.74 841.143 1227.24 845.743C1290.64 850.443 1364.24 841.143 1403.94 801.243C1422.04 783.043 1432.34 759.243 1457.44 746.843C1469.94 740.643 1484.74 738.143 1499.24 737.043C1561.24 732.143 1620.24 750.443 1679.34 762.843C1738.44 775.143 1806.94 780.443 1859.54 753.243C1885.04 740.043 1904.74 720.043 1932.84 710.743C1973.74 697.243 2018.64 710.243 2060.14 719.443C2124.44 733.643 2197.84 737.243 2258.84 713.243C2255.44 660.743 2260.14 655.043 2255.44 588.443Z" fill="#E3F4FF"/>
<path d="M1323.71 292.431L1334.59 306.947L1259 206.406L1183.34 306.947L1194.29 292.431L1021 206.406L1111.89 448.592H1259H1406.04L1497 206.406L1323.71 292.431Z" fill="#1961AC"/>
<path d="M1021 206.406L1194.29 292.431L1183.34 306.947L1021 206.406Z" fill="#1961AC"/>
<path opacity="0.1" d="M1259 206.406V353.78L1183.34 306.947L1259 206.406Z" fill="white"/>
<path d="M1221.03 64.3291C1226.15 66.1627 1227.91 67.5379 1232.47 68.2255C1235.14 68.6075 1237.87 67.0031 1240.33 66.6975C1239.77 60.2799 1242.02 56.5363 1240.05 53.4804C1239.77 53.0984 1239.56 52.8692 1239.35 52.64C1236.61 49.8132 1232.96 53.786 1229.45 53.1748C1225.52 52.4872 1223.98 51.112 1219.56 49.2784C1215.77 47.7504 1208.19 46.7572 1200.25 50.4244C1199.97 55.2375 1200.11 60.0507 1200.25 64.9403C1208.82 61.8843 1216.89 62.8011 1221.03 64.3291Z" fill="#2B7AF4"/>
<path d="M1200.25 81.901C1201.59 80.4494 1203.76 78.6158 1206.57 77.699C1212.68 75.7126 1215.63 80.0674 1224.89 82.7414C1231.63 84.6514 1241.17 85.4918 1242.37 81.0606C1242.44 80.755 1242.51 80.373 1242.23 77.9282C1241.52 71.4342 1240.68 70.441 1240.33 67.0795C1240.33 66.9267 1240.33 66.8503 1240.33 66.6975C1237.87 67.0031 1235.14 68.6075 1232.47 68.2255C1227.91 67.5379 1226.22 66.1627 1221.03 64.3291C1216.89 62.8775 1208.82 61.8843 1200.18 64.9403C1200.39 70.5938 1200.61 76.2474 1200.25 81.901Z" fill="#FFDE14"/>
<path d="M1200.04 339.291C1199.41 339.291 1198.99 338.756 1198.99 338.145V46.146C1198.99 45.4584 1199.48 45 1200.04 45C1200.68 45 1201.1 45.5348 1201.1 46.146V338.145C1201.1 338.756 1200.68 339.291 1200.04 339.291Z" fill="#2A2A4F"/>
<path d="M1195.27 154.404L1197.24 151.424C1197.24 151.424 1196.89 149.896 1197.52 148.751C1198.15 147.605 1198.15 147.605 1198.15 147.605C1198.15 147.605 1198.99 146.764 1200.54 147.375C1200.89 147.528 1201.31 147.452 1201.59 147.223C1202.5 146.535 1202.78 148.445 1202.78 148.445C1202.78 148.445 1203.48 149.285 1202.85 150.049C1202.85 150.049 1202.78 151.119 1202.01 151.73C1201.24 152.265 1199.27 153.182 1199.27 153.182L1197.1 156.008L1195.27 154.404Z" fill="#F4A45B"/>
<path d="M1194.99 151.348C1181.09 157.384 1172.18 155.015 1168.04 153.334C1162.85 151.195 1157.86 147.299 1157.86 147.299C1150.77 141.798 1148.04 136.297 1141.09 135.075C1140.6 134.999 1138.98 134.769 1137.3 134.922C1127.26 135.915 1116.1 150.355 1117.51 159.981C1119.96 176.636 1162.63 193.826 1186.01 175.261C1193.52 169.302 1197.31 161.051 1199.2 155.397C1197.87 154.022 1196.39 152.647 1194.99 151.348Z" fill="#DBB61B"/>
<path d="M1104.38 323.553C1103.82 324.087 1103.75 325.463 1103.75 326.303C1103.75 326.685 1103.75 326.914 1103.75 326.991C1104.1 327.984 1105.85 327.984 1108.66 328.06C1113.08 328.289 1114.42 328.519 1114.77 327.831C1115.05 327.143 1114.21 326.074 1114.14 325.997C1113.65 325.386 1113.01 325.157 1111.89 324.851C1109.78 324.24 1108.31 323.935 1107.89 323.858C1105.22 323.323 1104.73 323.171 1104.38 323.553Z" fill="url(#paint0_linear_93_132)"/>
<path d="M1107.47 318.739L1107.61 324.24C1107.47 324.469 1105.92 325.233 1104.8 324.469L1103.96 319.045L1107.47 318.739Z" fill="#F4A45B"/>
<path d="M1141.79 323.629C1141.02 324.469 1140.81 326.074 1141.37 326.838C1141.93 327.678 1142.91 327.143 1145.51 327.373C1148.32 327.602 1149.02 328.366 1150.98 327.907C1151.76 327.755 1153.16 327.22 1153.16 326.609C1153.16 326.15 1152.46 325.921 1150.21 324.928C1146.98 323.553 1146.98 323.476 1146.28 323.323C1144.53 322.941 1142.77 322.559 1141.79 323.629Z" fill="url(#paint1_linear_93_132)"/>
<path d="M1143.83 318.739L1145.02 323.935C1144.88 324.24 1143.4 325.004 1142.21 324.393L1140.39 319.351L1143.83 318.739Z" fill="#F4A45B"/>
<path d="M1136.74 206.127C1136.1 223.316 1136.24 242.646 1137.79 263.808C1139.33 284.665 1142 303.612 1145.09 320.344C1143.26 320.802 1141.44 321.184 1139.61 321.643C1135.26 316.753 1129.86 309.113 1127.61 298.646C1126.21 292.152 1126.91 288.867 1126.21 280.922C1125.09 268.316 1121.86 261.516 1118.7 251.202C1115.89 241.958 1112.66 228.359 1111.47 210.481C1119.89 208.953 1128.31 207.578 1136.74 206.127Z" fill="#389BA0"/>
<path opacity="0.15" d="M1134.21 286.422C1132.17 277.789 1128.31 275.497 1128.17 267.323C1128.1 261.516 1130 261.058 1129.86 255.557C1129.65 247.153 1125.16 242.722 1122.84 237.45C1120.45 231.873 1119.54 222.934 1126 207.96C1121.15 208.801 1116.24 209.565 1111.4 210.405C1112.59 228.359 1115.82 241.882 1118.63 251.126C1121.79 261.44 1125.02 268.239 1126.14 280.845C1126.84 288.791 1126.14 292 1127.54 298.57C1129.79 309.037 1135.19 316.677 1139.54 321.566C1140.04 321.49 1140.46 321.337 1140.95 321.261C1136.24 315.149 1134.63 309.724 1134.21 305.293C1133.58 298.112 1136.24 295.132 1134.21 286.422Z" fill="#072450"/>
<path d="M1118.49 205.057C1116.31 226.831 1114.35 248.987 1112.52 271.601C1111.19 288.562 1110 305.293 1108.94 321.795C1107.12 321.948 1105.22 322.101 1103.4 322.254C1101.78 318.587 1099.68 312.933 1098.41 305.751C1096.87 297.042 1097.57 292 1097.15 283.061C1096.66 273.053 1095.4 270.761 1093.5 258.078C1089.71 232.255 1087.82 219.42 1093.85 211.78C1095.82 209.335 1101.85 203.223 1118.49 205.057Z" fill="#389BA0"/>
<path d="M1070.62 137.367C1080.59 133.7 1095.89 129.574 1114.49 130.415C1125.3 130.873 1134.56 132.936 1141.93 135.151C1142.91 141.187 1143.9 147.299 1144.95 153.335C1145.16 159.447 1145.23 167.621 1144.6 177.324C1143.97 187.027 1143.33 187.18 1141.93 200.931C1139.61 223.316 1140.6 229.123 1136.46 231.873C1133.79 233.63 1132.81 231.491 1119.05 230.04C1109.86 229.046 1105.15 228.588 1100.52 230.269C1094.2 232.637 1092.03 236.534 1089.43 235.235C1086.9 234.012 1086.62 229.276 1086.27 221.101C1085.78 208.419 1085.85 199.785 1085.78 196.729C1085.57 182.596 1082.27 171.747 1078.06 157.919C1075.46 149.285 1072.73 142.333 1070.62 137.367Z" fill="#FFDE14"/>
<path d="M1113.22 116.434C1113.08 120.024 1112.59 122.775 1112.1 124.685C1111.61 126.9 1111.26 127.435 1110.91 127.893C1110.35 128.581 1109.5 129.116 1104.73 130.109C1102.13 130.644 1101.85 130.644 1101.78 130.873C1101.43 132.172 1108.17 137.214 1115.4 136.527C1119.82 136.145 1123.96 133.623 1123.75 132.172C1123.54 130.72 1119.12 131.255 1118 128.581C1117.15 126.747 1118.35 124.226 1119.61 122.164C1118.63 119.566 1114.28 118.878 1113.22 116.434Z" fill="#D88B4C"/>
<path d="M1121.37 118.344C1122.49 116.892 1122.7 114.294 1121.58 112.537C1120.59 111.086 1118.98 110.78 1118.07 110.551C1115.26 110.016 1111.68 111.086 1110.28 113.836C1109.43 115.44 1110.91 119.031 1111.12 119.642C1111.33 120.33 1111.89 120.636 1112.31 121.17C1112.94 121.934 1113.86 123.157 1115.47 125.219C1115.61 124.685 1115.89 123.921 1116.24 123.157C1116.38 122.851 1116.94 121.705 1117.72 120.788C1119.12 119.031 1120.31 119.642 1121.37 118.344Z" fill="#913709"/>
<path d="M1113.08 123.539C1113.08 123.539 1114.77 126.977 1118.49 126.9C1121.79 126.824 1122.63 118.878 1120.66 117.045C1119.96 116.434 1118.63 116.128 1117.44 116.434C1116.73 116.586 1116.52 116.892 1115.4 117.121C1114.35 117.35 1114.07 117.198 1113.79 117.503C1113.36 117.809 1113.08 118.649 1113.57 121.094C1113.01 120.33 1112.24 120.024 1111.68 120.33C1111.61 120.406 1111.33 120.559 1111.19 120.788C1110.63 121.552 1111.4 122.698 1113.08 123.539Z" fill="#F4A45B"/>
<path d="M1113.57 116.892C1113.72 117.045 1113.22 117.656 1113.15 118.573C1113.01 120.33 1114.56 122.546 1116.24 122.851C1117.22 123.004 1117.51 122.393 1119.19 122.316C1120.24 122.24 1121.08 122.469 1121.58 122.622C1122 124.608 1121.44 126.518 1120.17 127.359C1118.84 128.275 1117.22 127.588 1116.59 127.282C1116.17 127.129 1114.7 126.518 1114 124.99C1113.29 123.386 1114.07 122.545 1113.22 121.476C1112.8 120.941 1112.17 120.636 1111.68 119.642C1111.54 119.337 1111.47 119.108 1111.4 118.955C1112.17 117.885 1113.36 116.739 1113.57 116.892Z" fill="#913709"/>
<path d="M1120.31 123.233C1120.31 123.233 1119.61 123.615 1118.35 123.462C1118.28 123.462 1118.21 123.462 1118.21 123.539C1118.21 123.691 1118.91 124.303 1119.68 124.074C1120.17 123.921 1120.66 123.462 1120.59 123.309C1120.52 123.233 1120.38 123.233 1120.31 123.233Z" fill="url(#paint2_linear_93_132)"/>
<path d="M1079.82 196.806L1083.11 196.577C1083.11 196.577 1086.76 193.291 1088.38 193.444C1090.06 193.673 1092.52 194.896 1092.8 195.125C1093.08 195.354 1091.89 196.882 1090.69 196.729C1089.5 196.577 1086.83 197.264 1086.34 198.487C1085.85 199.633 1083.75 200.32 1083.4 199.633L1078.97 200.626L1079.82 196.806Z" fill="#F4A45B"/>
<path d="M1080.8 195.507C1081.01 198.487 1080.45 200.473 1079.46 201.848C1075.11 207.96 1060.23 205.439 1051.39 197.264C1044.86 191.229 1041.35 181.831 1041.49 173.427C1041.77 157.002 1055.74 140.881 1076.52 135.381C1079.61 145.389 1082.69 155.397 1085.78 165.406C1072.94 165.635 1065.15 176.101 1066.34 183.665C1067.18 189.242 1073.15 194.285 1080.8 195.507Z" fill="#FFDE14"/>
<path opacity="0.15" d="M1131.12 224.539C1124.38 221.406 1124.38 214.913 1118.14 212.239C1109.15 208.342 1099.19 217.357 1097.64 214.836C1096.03 212.239 1107.89 204.293 1106.35 196.5C1105.08 190.312 1096.8 191.381 1092.38 182.901C1088.17 174.803 1092.24 167.392 1088.52 164.565C1087.19 163.572 1084.8 163.19 1080.38 165.329C1083.47 175.949 1085.71 185.27 1085.92 196.806C1085.99 199.862 1085.92 208.495 1086.41 221.177C1086.69 229.428 1087.04 234.089 1089.57 235.311C1092.17 236.61 1094.27 232.637 1100.66 230.345C1105.29 228.664 1110 229.123 1119.19 230.116C1132.88 231.568 1133.86 233.707 1136.6 231.95C1138.35 230.804 1139.19 229.123 1139.75 225.838C1136.81 226.067 1133.93 225.838 1131.12 224.539Z" fill="#072450"/>
<path d="M1259 353.78V448.592H1111.89L1021 206.406L1259 353.78Z" fill="#1961AC"/>
<path opacity="0.2" d="M1259 353.78V448.592H1111.89L1021 206.406L1259 353.78Z" fill="white"/>
<path opacity="0.2" d="M1497 206.406L1323.71 292.431L1334.59 306.947L1497 206.406Z" fill="#072450"/>
<path opacity="0.1" d="M1259 206.406V353.78L1334.59 306.947L1259 206.406Z" fill="#072450"/>
<path d="M1259 353.78V448.592H1406.04L1497 206.406L1259 353.78Z" fill="#1961AC"/>
<path d="M1437.86 387.404C1436.46 387.94 1392.76 409.752 1360.11 410.135C1331.07 410.441 1313.73 378.603 1271.95 382.736C1246.92 385.185 1233.95 400.568 1214.45 399.267C1186.05 397.354 1171.45 386.256 1142.99 386.027C1108.6 385.797 1094.69 412.966 1070.19 407.38V510.623H1437.86V387.404Z" fill="#E3F4FF"/>
<path d="M1813.26 153.159L1817.57 157.733L1787.8 126.13L1765.12 164.098L1768.4 158.602L1705.25 136.148L1745.29 216.083L1796.26 209.898L1847.29 203.705L1870.35 116.113L1813.26 153.159Z" fill="#1961AC"/>
<path d="M1705.25 136.007L1768.41 158.465L1765.12 163.962L1705.25 136.007Z" fill="#1961AC"/>
<path d="M1844.06 80.5219C1846.02 80.9747 1846.71 81.411 1848.47 81.4264C1849.49 81.475 1850.43 80.7244 1851.31 80.5005C1850.86 78.1287 1851.56 76.6553 1850.71 75.6039C1850.59 75.4455 1850.53 75.3949 1850.42 75.3507C1849.31 74.4457 1848.09 76.0978 1846.75 76.0308C1845.25 75.9831 1844.67 75.5339 1842.92 75.0553C1841.44 74.6587 1838.61 74.6582 1835.79 76.3327C1835.86 78.1153 1836.1 79.9357 1836.33 81.699C1839.44 80.2206 1842.47 80.1953 1844.06 80.5219Z" fill="#2B7AF4"/>
<path d="M1837.02 88.0016C1837.49 87.4232 1838.22 86.6413 1839.18 86.1762C1841.38 85.1565 1842.65 86.6766 1846.17 87.1705C1848.72 87.5523 1852.33 87.4559 1852.59 85.7487C1852.63 85.6281 1852.62 85.5139 1852.42 84.6133C1851.92 82.2478 1851.56 81.944 1851.33 80.7009C1851.33 80.6438 1851.32 80.5868 1851.32 80.5868C1850.44 80.8107 1849.44 81.5106 1848.48 81.5126C1846.77 81.4908 1846.08 81.0544 1844.06 80.6081C1842.48 80.2244 1839.44 80.2497 1836.34 81.7852C1836.6 83.834 1836.92 85.9334 1837.02 88.0016Z" fill="#FFDE14"/>
<path d="M1846.58 183.647C1846.37 183.673 1846.14 183.526 1846.11 183.24L1835.15 74.7518C1835.13 74.5223 1835.26 74.2736 1835.53 74.2417C1835.8 74.2098 1835.97 74.3627 1836 74.6496L1846.96 183.137C1846.98 183.367 1846.79 183.622 1846.58 183.647Z" fill="#2A2A4F"/>
<path opacity="0.1" d="M1787.81 126.018L1792.96 177.092L1765.11 164.056L1787.81 126.018Z" fill="white"/>
<path d="M1792.96 177.059L1796.28 209.884L1745.29 216.078L1705.25 136.05L1792.96 177.059Z" fill="#1961AC"/>
<path opacity="0.2" d="M1792.96 177.059L1796.28 209.884L1745.29 216.078L1705.25 136.05L1792.96 177.059Z" fill="white"/>
<path opacity="0.2" d="M1870.34 116.112L1813.24 153.167L1817.55 157.742L1870.34 116.112Z" fill="#072450"/>
<path opacity="0.1" d="M1787.79 126.06L1792.94 177.135L1817.57 157.72L1787.79 126.06Z" fill="#072450"/>
<path d="M1792.94 177.185L1796.25 210.01L1847.28 203.809L1870.35 116.113L1792.94 177.185Z" fill="#1961AC"/>
<path d="M1920 198.284C1919.16 198.677 1893.01 214.682 1873.48 214.963C1856.1 215.187 1845.73 191.825 1820.72 194.858C1805.75 196.655 1797.99 207.943 1786.32 206.988C1769.33 205.584 1760.59 197.441 1743.56 197.273C1722.98 197.104 1714.66 217.04 1700 212.941V288.586H1920V198.284Z" fill="#E3F4FF"/>
<defs>
<linearGradient id="paint0_linear_93_132" x1="1114.68" y1="325.326" x2="1103.71" y2="326.234" gradientUnits="userSpaceOnUse">
<stop stop-color="#484C88"/>
<stop offset="0.9964" stop-color="#2A2A4F"/>
</linearGradient>
<linearGradient id="paint1_linear_93_132" x1="1152.62" y1="324.115" x2="1141.11" y2="326.422" gradientUnits="userSpaceOnUse">
<stop stop-color="#484C88"/>
<stop offset="0.9964" stop-color="#2A2A4F"/>
</linearGradient>
<linearGradient id="paint2_linear_93_132" x1="1119.57" y1="122.09" x2="1118.83" y2="126.246" gradientUnits="userSpaceOnUse">
<stop stop-color="#EFC250"/>
<stop offset="1" stop-color="#D66F58"/>
</linearGradient>
</defs>
</svg>
