<svg width="1920" height="644" viewBox="0 0 1920 644" fill="none" xmlns="http://www.w3.org/2000/svg">
<g clip-path="url(#clip0_184_419)">
<path d="M-135.813 642.066C-74.3046 648.061 -3.125 640.906 35.2694 603.297C52.7742 586.184 62.7355 563.464 87.01 552.055C99.099 546.448 113.412 544.321 127.435 543.547C187.493 540.26 244.65 559.403 301.903 572.648C359.156 585.894 425.597 592.662 476.467 567.621C501.128 555.439 520.18 536.683 547.453 528.368C587.105 516.283 630.528 529.915 670.76 539.777C736.621 555.826 812.346 560.853 873.177 534.459C881.978 530.592 890.392 526.241 898.709 521.6C907.51 515.509 917.568 510.192 928.496 505.744C939.521 500.427 951.126 495.883 963.796 493.272C974.531 491.049 985.556 490.372 996.581 490.855C999.482 490.662 1002.38 490.565 1005.28 490.565C1067.37 489.599 1126.56 507.775 1187.49 515.993C1248.42 524.211 1319.98 519.57 1360.7 483.411C1379.27 466.878 1390.58 444.545 1415.53 434.103C1427.91 428.882 1442.42 427.335 1456.44 427.045C1516.6 425.982 1572.4 447.058 1628.78 462.431C1685.07 477.803 1750.93 486.891 1803.35 463.688C1828.69 452.473 1848.9 434.296 1876.65 427.045C1916.98 416.41 1959.44 431.589 1998.99 442.804C2059.92 460.11 2130.14 468.038 2190.19 448.702C2187.58 234.454 2179.94 8.31459 2168.92 10.4416C2145.32 15.0823 2125.3 34.7088 2103.15 46.1173C2059.15 68.8376 2009.15 58.0092 1967.08 36.5458C1941.45 23.397 1914.08 6.0909 1886.04 15.6624C1866.79 22.1401 1851.61 40.2197 1833.62 50.9514C1796.38 73.0917 1752.86 61.1031 1716.21 43.1202C1679.46 25.1373 1643.68 1.16011 1603.06 -7.64914e-05C1593.58 -0.290123 1583.72 0.870063 1574.92 5.80085C1557.22 15.7591 1547.74 38.4794 1533.81 54.8187C1503.35 90.7845 1454.8 92.9115 1414.47 82.0831C1390.39 75.6054 1367.08 65.5504 1343.29 58.2026C1340.58 56.9457 1337.78 55.7855 1334.97 54.6254C1315.05 46.4074 1292.9 39.7363 1270.85 42.1534C1245.61 44.8605 1225.01 58.7827 1201.61 66.6139C1155.28 82.0831 1101.03 72.5116 1054.99 55.3021C1026.85 44.7638 996.774 31.1316 967.084 37.2226C946.678 41.4766 931.107 54.3353 912.152 61.6832C873.08 76.8623 825.788 66.7106 785.653 52.305C745.518 37.8027 706.06 18.9496 662.443 16.8226C652.192 16.3392 641.65 16.8226 632.462 20.2065C613.894 27.0709 604.609 43.6036 590.393 55.3021C559.155 81.1163 507.028 81.213 463.217 71.9315C419.407 62.65 377.434 45.924 332.367 43.6036C309.64 42.4434 285.268 46.6974 265.636 55.6889C246.004 62.8433 228.596 78.7959 209.35 88.6575C165.346 111.378 115.346 100.549 73.277 79.086C47.6485 65.9372 20.2791 48.6311 -7.76715 58.2026C-27.0127 64.6803 -42.1964 82.7599 -60.1847 93.4916C-97.4186 115.632 -140.939 103.643 -177.592 85.6603C-214.149 67.6775 -249.933 43.7003 -290.455 42.5401C-296.934 42.4434 -295.193 385.568 -293.259 623.02C-240.358 624.373 -188.521 636.942 -135.813 642.066Z" fill="#E3F4FF"/>
<path d="M454.61 381.991C462.25 389.049 481.399 389.242 483.237 395.72C484.784 401.328 470.954 403.841 473.566 407.709C477.531 413.703 515.248 416.603 546.196 413.413C578.111 410.126 620.374 398.62 622.888 381.121C625.693 361.495 576.467 347.766 533.43 347.862C528.788 347.862 489.91 348.249 467.183 360.141C466.022 360.721 444.262 372.42 454.61 381.991Z" fill="white"/>
<path d="M585.267 53.5618C584.01 52.5949 582.463 50.9513 581.496 48.5343C580.528 45.9239 581.205 44.8604 579.948 43.2168C578.401 41.1864 573.082 35.7722 571.051 37.0291C569.987 37.7059 572.308 42.54 572.211 43.4101C572.115 45.3438 572.695 46.9874 574.436 48.5343C575.79 49.6945 576.273 49.5978 577.724 50.5646C579.078 51.5314 580.819 53.175 582.173 56.2689L585.267 53.5618Z" fill="#FFD28A"/>
<path d="M511.767 39.5429C513.314 39.1562 515.442 38.286 517.182 36.4491C519.117 34.5154 519.117 32.7752 520.761 31.5183C523.372 29.488 529.755 26.1041 530.819 27.7477C531.786 29.1012 529.368 32.2917 529.562 33.3552C529.755 34.9022 525.887 38.4794 523.662 39.2529C522.018 39.833 521.534 39.5429 519.89 39.833C518.246 40.2197 516.022 41.0898 513.604 43.3135L511.767 39.5429Z" fill="#FFD28A"/>
<path d="M518.73 41.8633C519.697 46.5041 514.668 50.6614 511.09 54.7221C503.836 62.8434 496.196 77.4424 499.001 89.9144C500.548 96.6821 505.384 104.127 512.347 107.607C519.794 111.378 524.242 107.994 531.979 112.441C532.56 112.731 542.327 118.532 542.618 126.364C543.004 136.032 528.788 146.28 516.602 147.054C494.359 148.504 467.57 118.919 468.827 89.6243C470.181 57.7192 504.513 32.3885 514.378 36.6425C515.925 37.3193 518.246 39.2529 518.73 41.8633Z" fill="#389BA0"/>
<path d="M528.594 372.323L529.465 380.444L525.693 379.768L523.179 372.13L528.594 372.323Z" fill="#FFD28A"/>
<path d="M505.674 222.949C506.061 237.258 507.898 249.633 510.026 259.592C512.347 270.42 513.604 272.257 514.378 279.701C515.925 295.944 510.703 298.264 509.736 316.634C508.672 336.937 514.088 352.986 516.215 359.174C518.053 364.588 519.987 368.842 521.438 371.936C523.275 373.58 526.177 372.903 529.175 372.323C530.239 353.953 531.689 336.647 532.753 318.278C536.331 290.626 539.91 262.975 543.391 235.324C530.819 231.167 518.246 227.01 505.674 222.949Z" fill="#0F6361"/>
<path opacity="0.2" d="M529.078 372.226C530.142 353.857 531.592 336.551 532.656 318.181C536.235 290.53 539.813 262.879 543.294 235.228C530.722 231.167 518.246 227.01 505.674 222.949C505.674 223.916 505.771 224.786 505.771 225.753C523.372 241.029 526.854 253.114 526.66 261.428C526.467 271.483 520.954 276.414 522.018 290.917C522.792 301.262 525.886 303.098 525.886 312.477C525.886 324.562 520.664 331.33 518.15 338.291C515.732 345.059 514.861 354.533 519.6 368.166C520.18 369.519 520.761 370.776 521.341 371.936C523.275 373.483 526.08 372.903 529.078 372.226Z" fill="#072450"/>
<path d="M527.24 383.151C525.5 380.928 523.856 381.121 523.565 379.574C523.372 378.414 524.049 376.964 525.209 376.48C526.757 375.707 528.594 376.964 528.981 377.254C531.786 379.187 530.915 381.991 533.623 383.345C534.107 383.635 534.977 383.925 535.848 384.795C536.235 385.182 537.105 386.052 536.912 386.632C536.621 387.309 534.977 387.309 533.333 387.212C531.399 387.115 530.432 387.115 529.561 386.535C528.207 385.665 528.594 384.892 527.24 383.151Z" fill="#70A0E5"/>
<path d="M539.426 315.571L532.753 318.954L530.335 315.957L535.558 311.8L539.426 315.571Z" fill="#FFD28A"/>
<path d="M529.175 320.985C529.368 318.181 528.014 317.214 528.788 315.861C529.368 314.797 530.916 314.314 532.076 314.604C533.72 315.087 534.204 317.214 534.397 317.697C535.171 320.985 532.656 322.532 533.72 325.239C533.914 325.819 534.397 326.592 534.494 327.752C534.494 328.236 534.591 329.589 534.01 329.879C533.333 330.169 532.173 329.009 531.012 327.946C529.658 326.592 528.981 325.915 528.691 324.852C528.208 323.498 529.078 323.208 529.175 320.985Z" fill="#70A0E5"/>
<path d="M560.316 209.414C575.79 234.841 582.366 256.691 585.364 271C587.298 280.185 587.685 285.986 585.557 292.077C577.821 313.734 544.358 318.181 539.329 318.761C537.298 315.474 535.364 312.187 533.333 308.9C535.848 302.905 540.587 294.397 549.291 287.823C555.964 282.699 558.865 283.375 560.316 280.282C566.312 267.616 525.5 245.089 529.658 227.203C531.012 220.919 538.072 214.151 560.316 209.414Z" fill="#0F6361"/>
<path d="M533.043 114.085C547.26 116.502 557.995 119.016 562.83 126.46C567.956 134.291 559.832 140.189 557.608 157.399C554.223 183.696 569.407 193.558 565.055 220.145C564.378 224.496 563.217 228.363 562.057 231.65C560.026 237.451 556.06 242.285 550.838 245.573C546.97 247.99 542.231 250.503 536.622 252.437C522.212 257.465 515.152 254.564 495.809 255.628C464.185 257.465 459.446 266.649 445.132 260.945C430.722 255.241 420.181 239.868 423.276 233.294C425.113 229.33 430.916 231.844 439.233 227.01C449.968 220.725 448.131 212.217 456.835 204.966C469.31 194.428 481.303 205.063 491.941 195.975C502.772 186.79 504.03 164.263 499.388 150.921C496.39 142.219 496.293 132.745 494.068 123.753C493.875 122.98 493.778 121.819 494.165 120.466C495.906 115.342 505.384 114.375 512.444 113.698C523.565 112.441 531.883 113.795 533.043 114.085Z" fill="#389BA0"/>
<path opacity="0.2" d="M446.873 250.89C451.225 247.99 448.904 239.675 455.384 235.324C461.38 231.264 466.119 236.581 475.016 233.874C486.428 230.393 485.848 219.468 496.68 215.891C504.513 213.377 506.931 218.405 518.246 218.598C529.562 218.792 544.358 214.151 553.739 202.162C557.705 197.038 559.929 191.624 561.186 186.596C564.184 196.361 567.472 205.74 565.151 220.048C564.184 225.849 562.637 230.684 560.993 234.551C559.542 238.128 557.028 241.222 553.836 243.446C549.484 246.443 543.778 249.73 536.815 252.244C522.405 257.271 515.345 254.371 496.003 255.434C464.378 257.271 459.639 266.456 445.326 260.752C436.138 257.078 428.498 249.537 425.016 242.769C437.396 251.954 443.682 253.017 446.873 250.89Z" fill="#072450"/>
<path d="M541.264 89.5276C541.264 89.5276 545.132 96.8754 545.422 102C545.712 107.124 539.813 106.737 539.813 106.737L540.006 110.024C540.2 112.828 542.037 115.245 544.552 116.115L546.873 116.985C546.873 116.985 531.883 120.176 523.759 114.375L526.08 114.182C529.368 113.892 532.076 111.184 532.366 107.897L532.463 106.544C532.656 106.544 530.045 90.4944 541.264 89.5276Z" fill="#FFD28A"/>
<path d="M578.111 55.0122C575.886 59.1695 579.561 64.5837 581.979 69.4178C586.718 79.2794 590.006 95.3286 583.913 106.544C580.528 112.635 573.855 118.436 566.215 119.886C557.995 121.433 554.706 116.889 546.002 119.112C545.325 119.306 534.397 122.11 531.979 129.554C528.981 138.739 539.813 152.468 551.225 156.625C572.211 164.166 606.06 143.09 612.927 114.568C620.47 83.5334 594.455 49.6947 583.817 51.1449C582.076 51.3383 579.368 52.6918 578.111 55.0122Z" fill="#389BA0"/>
<path d="M538.943 96.7787C538.169 96.682 537.492 95.7152 537.008 96.0053C536.428 96.2953 536.525 97.7455 537.008 98.7124C537.395 99.5825 538.072 99.9692 538.362 100.259C537.782 101.129 537.008 102.386 536.718 104.03C536.041 107.704 537.975 110.701 538.846 112.441C542.521 120.369 536.815 132.841 530.432 139.126C525.306 144.25 522.888 142.219 519.794 146.377C513.798 154.498 522.018 163.489 519.02 174.415C514.281 191.044 487.976 195.975 486.912 196.168C486.525 196.265 486.235 196.265 485.751 196.361C473.952 198.198 456.061 201.099 443.488 191.431C434.107 184.179 429.755 171.611 430.432 160.492C430.626 157.592 431.496 146.473 440.587 137.482C442.038 136.032 450.548 127.524 461.96 127.427C468.053 127.33 469.31 129.554 473.952 128.2C480.335 126.363 484.204 120.563 486.622 116.985C491.07 110.411 489.233 108.961 492.521 105.77C498.807 99.3891 506.254 104.417 512.927 98.809C519.6 93.2982 515.538 85.7569 522.018 81.0195C528.594 76.0887 541.264 77.829 543.972 83.7266C546.196 88.6574 541.264 96.9721 538.943 96.7787Z" fill="#151560"/>
<path d="M806.93 134.291L811.959 140.382L777.143 97.939L742.327 140.382L747.356 134.291L667.665 97.939L709.445 200.229H777.143H844.841L886.62 97.939L806.93 134.291Z" fill="#FFDE14"/>
<path d="M667.665 97.939L747.356 134.291L742.327 140.382L667.665 97.939Z" fill="#FFDE14"/>
<path d="M856.93 51.3381C859.444 52.2082 860.315 52.7883 862.539 53.0784C863.893 53.2717 865.247 52.4983 866.407 52.4016C866.117 49.5011 867.278 47.7608 866.311 46.4073C866.214 46.2139 866.117 46.1172 866.021 46.0206C864.667 44.7637 862.829 46.504 861.088 46.3106C859.154 46.0206 858.38 45.3438 856.156 44.5703C854.319 43.8936 850.547 43.4101 846.582 45.0537C846.485 47.2774 846.485 49.4044 846.582 51.6281C850.934 50.2746 854.899 50.6613 856.93 51.3381Z" fill="#2B7AF4"/>
<path d="M846.678 59.2662C847.355 58.5894 848.419 57.8159 849.773 57.3325C852.771 56.4624 854.222 58.396 858.767 59.5562C862.055 60.4263 866.794 60.8131 867.375 58.7827C867.375 58.6861 867.471 58.4927 867.278 57.3325C866.891 54.3354 866.504 53.9486 866.407 52.4017C866.407 52.305 866.407 52.305 866.407 52.2084C865.15 52.4017 863.893 53.0785 862.539 52.8851C860.315 52.5951 859.444 51.9183 856.93 51.1449C854.899 50.4681 850.934 50.0813 846.678 51.4349C846.678 54.142 846.872 56.7524 846.678 59.2662Z" fill="#FFDE14"/>
<path d="M846.582 175.768C846.291 175.768 846.001 175.575 846.001 175.188V43.1201C846.001 42.8301 846.195 42.54 846.582 42.54C846.968 42.54 847.162 42.7334 847.162 43.1201V175.285C847.065 175.575 846.872 175.768 846.582 175.768Z" fill="#2A2A4F"/>
<path opacity="0.2" d="M777.143 97.939V160.202L742.327 140.382L777.143 97.939Z" fill="white"/>
<path d="M777.143 160.202V200.229H709.445L667.665 97.939L777.143 160.202Z" fill="#FFDE14"/>
<path opacity="0.3" d="M777.143 160.202V200.229H709.445L667.665 97.939L777.143 160.202Z" fill="white"/>
<path opacity="0.2" d="M886.62 97.939L806.93 134.291L811.959 140.382L886.62 97.939Z" fill="#072450"/>
<path opacity="0.1" d="M777.143 97.939V160.202L811.959 140.382L777.143 97.939Z" fill="#072450"/>
<path d="M777.143 160.202V200.229H844.841L886.62 97.939L777.143 160.202Z" fill="#FFDE14"/>
<path d="M947.935 181.182C946.775 181.666 909.637 201.582 881.978 201.969C857.317 202.259 842.616 173.158 807.123 176.928C785.847 179.152 774.918 193.268 758.381 192.011C734.3 190.27 721.921 180.119 697.743 179.925C668.633 179.732 656.737 204.579 635.944 199.455V293.624H947.935V181.182Z" fill="#E3F4FF"/>
</g>
<defs>
<clipPath id="clip0_184_419">
<rect width="2485" height="644" fill="white" transform="translate(-295)"/>
</clipPath>
</defs>
</svg>
