<svg width="552" height="487" viewBox="0 0 552 487" fill="none" xmlns="http://www.w3.org/2000/svg">
<path d="M304.222 419.442C236.156 418.729 218.124 413.032 152.482 415.311C127.394 416.165 78.3587 417.875 78.0023 423.572C77.5034 430.766 157.044 442.09 216.841 447.432C379.699 461.961 535.074 444.583 535.002 433.472C535.002 425.709 459.453 419.584 426.525 417.804C373.57 414.955 370.434 420.154 304.222 419.442Z" fill="#F4F4F4"/>
<path d="M265.093 434.754C213.064 434.754 158.612 429.768 158.612 420.225C158.612 419.726 158.825 418.8 159.324 418.8C159.823 418.8 159.609 419.513 159.609 420.082C159.609 426.136 202.943 432.902 265.093 432.902C327.243 432.902 370.576 426.136 370.576 420.082C370.576 419.584 370.648 419.085 371.218 419.085C371.788 419.085 371.645 419.797 371.645 420.296C371.574 429.768 317.193 434.754 265.093 434.754Z" fill="#EDAB07"/>
<path d="M158.683 396.152V419.726C158.683 427.347 206.364 433.543 265.093 433.543C323.893 433.543 371.503 427.347 371.503 419.726V396.152H158.683Z" fill="#F2B816"/>
<path d="M265.093 409.969C323.862 409.969 371.503 403.783 371.503 396.152C371.503 388.521 323.862 382.335 265.093 382.335C206.324 382.335 158.683 388.521 158.683 396.152C158.683 403.783 206.324 409.969 265.093 409.969Z" fill="#FFC817"/>
<path d="M265.093 410.895C213.064 410.895 158.612 405.91 158.612 396.366C158.612 395.867 158.825 394.941 159.324 394.941C159.823 394.941 159.609 395.654 159.609 396.223C159.609 402.277 202.943 409.043 265.093 409.043C327.243 409.043 370.576 402.277 370.576 396.223C370.576 395.725 370.648 395.226 371.218 395.226C371.788 395.226 371.645 395.939 371.645 396.437C371.574 405.91 317.193 410.895 265.093 410.895Z" fill="#FFEC62"/>
<path d="M255.043 396.935C256.113 396.223 257.182 395.511 258.393 394.799C259.605 394.086 261.102 393.445 262.955 392.876C264.808 392.306 267.16 391.879 269.939 391.522C272.719 391.166 276.283 390.953 280.417 390.953C284.55 390.953 288.399 391.095 292.034 391.38C295.669 391.665 298.805 392.092 301.585 392.662C304.293 393.232 306.574 393.944 308.284 394.727C309.995 395.582 310.992 396.508 311.349 397.576L323.323 397.719C324.178 397.719 324.962 397.79 325.603 397.932C326.245 398.075 326.601 398.217 326.601 398.431V399.428L311.206 399.286C310.636 400.496 309.282 401.565 307.072 402.633C304.863 403.63 302.083 404.485 298.591 405.268L292.961 404.485C292.462 404.414 292.034 404.342 291.749 404.2C291.393 404.057 291.25 403.986 291.25 403.844C291.25 403.63 291.678 403.416 292.533 403.203C293.388 402.989 294.386 402.633 295.455 402.277C296.524 401.921 297.593 401.493 298.662 400.995C299.731 400.496 300.373 399.927 300.801 399.214L264.451 398.858C263.525 399.57 262.385 400.283 261.244 400.924C260.033 401.636 258.465 402.206 256.54 402.775C254.616 403.345 252.121 403.773 249.199 404.129C246.277 404.485 242.571 404.627 238.152 404.698C234.802 404.698 231.595 404.556 228.388 404.342C225.18 404.057 222.401 403.701 219.906 403.132C217.412 402.562 215.416 401.921 213.848 401.137C212.28 400.354 211.353 399.428 211.211 398.431L201.375 398.36C200.52 398.36 199.736 398.288 199.023 398.146C198.31 398.004 198.025 397.861 198.025 397.647V396.65L211.496 396.793C212.066 395.724 213.349 394.87 215.202 394.086C217.055 393.303 219.336 392.662 222.044 392.021L226.534 392.662C227.889 392.876 228.601 393.089 228.601 393.374C228.601 393.517 228.316 393.659 227.746 393.873C227.176 394.086 226.534 394.3 225.75 394.585C224.966 394.87 224.254 395.226 223.47 395.582C222.757 395.938 222.187 396.437 221.83 396.864L255.043 396.935ZM221.759 398.288C222.044 398.929 222.614 399.499 223.541 399.927C224.468 400.425 225.608 400.781 226.962 401.066C228.316 401.351 229.884 401.565 231.595 401.707C233.305 401.85 235.087 401.921 237.012 401.921C239.221 401.921 241.074 401.85 242.713 401.636C244.353 401.422 245.778 401.209 246.99 400.924C248.201 400.639 249.27 400.283 250.197 399.855C251.123 399.428 251.907 399.001 252.62 398.573L221.759 398.288ZM300.943 397.363C300.658 396.722 300.017 396.152 299.019 395.653C298.021 395.155 296.667 394.727 295.099 394.443C293.531 394.086 291.606 393.873 289.539 393.659C287.401 393.517 285.049 393.445 282.483 393.445C280.203 393.445 278.207 393.588 276.568 393.73C274.929 393.944 273.503 394.158 272.291 394.514C271.08 394.87 270.082 395.226 269.227 395.653C268.371 396.081 267.587 396.579 266.875 397.006L300.943 397.363Z" fill="#FFDE1A"/>
<path opacity="0.3" d="M265.164 383.831C217.697 383.831 168.305 388.033 160.393 396.081C160.679 396.366 160.964 396.65 161.249 397.007C167.877 391.38 208.716 385.754 265.164 385.754C323.038 385.754 364.518 391.665 369.507 397.434C369.721 397.149 370.006 396.793 370.291 396.508C363.734 388.175 313.416 383.831 265.164 383.831Z" fill="#F2B816"/>
<path d="M235.158 408.331C183.129 408.331 128.677 403.345 128.677 393.801C128.677 393.303 128.891 392.377 129.39 392.377C129.889 392.377 129.675 393.089 129.675 393.659C129.675 399.713 173.009 406.479 235.158 406.479C297.308 406.479 340.642 399.713 340.642 393.659C340.642 393.16 340.713 392.662 341.283 392.662C341.782 392.662 341.711 393.374 341.711 393.873C341.64 403.345 287.187 408.331 235.158 408.331Z" fill="#EDAB07"/>
<path d="M128.677 369.729V393.303C128.677 400.924 176.359 407.12 235.087 407.12C293.887 407.12 341.497 400.924 341.497 393.303V369.729H128.677Z" fill="#F2B816"/>
<path d="M235.158 383.546C293.927 383.546 341.568 377.36 341.568 369.729C341.568 362.098 293.927 355.912 235.158 355.912C176.39 355.912 128.748 362.098 128.748 369.729C128.748 377.36 176.39 383.546 235.158 383.546Z" fill="#FFC817"/>
<path d="M235.158 384.472C183.129 384.472 128.677 379.486 128.677 369.943C128.677 369.444 128.891 368.518 129.39 368.518C129.889 368.518 129.675 369.23 129.675 369.8C129.675 375.854 173.009 382.62 235.158 382.62C297.308 382.62 340.642 375.854 340.642 369.8C340.642 369.302 340.713 368.803 341.283 368.803C341.782 368.803 341.711 369.515 341.711 370.014C341.64 379.557 287.187 384.472 235.158 384.472Z" fill="#FFEC62"/>
<path d="M225.038 370.512C226.107 369.8 227.176 369.087 228.388 368.375C229.599 367.663 231.096 367.022 232.949 366.452C234.802 365.882 237.154 365.455 239.934 365.099C242.713 364.743 246.277 364.529 250.411 364.529C254.545 364.529 258.393 364.672 262.028 364.957C265.663 365.241 268.799 365.669 271.579 366.239C274.287 366.808 276.568 367.521 278.278 368.304C279.989 369.159 280.987 370.085 281.343 371.153L293.317 371.295C294.172 371.295 294.956 371.367 295.598 371.509C296.239 371.651 296.595 371.794 296.595 372.008V373.005L281.201 372.862C280.63 374.073 279.276 375.141 277.067 376.21C274.857 377.207 272.078 378.061 268.585 378.845L262.955 378.061C262.456 377.99 262.028 377.919 261.743 377.777C261.387 377.634 261.244 377.563 261.244 377.42C261.244 377.207 261.672 376.993 262.527 376.779C263.382 376.566 264.38 376.21 265.449 375.854C266.518 375.497 267.588 375.07 268.657 374.572C269.726 374.073 270.367 373.503 270.795 372.791L234.446 372.435C233.519 373.147 232.379 373.859 231.238 374.5C230.027 375.213 228.459 375.782 226.534 376.352C224.61 376.922 222.116 377.349 219.193 377.705C216.271 378.061 212.565 378.204 208.146 378.275C204.796 378.275 201.589 378.133 198.382 377.919C195.175 377.634 192.395 377.278 189.9 376.708C187.406 376.138 185.41 375.497 183.842 374.714C182.274 373.931 181.348 373.005 181.205 372.008L171.369 371.936C170.514 371.936 169.73 371.865 169.017 371.723C168.305 371.58 168.02 371.438 168.02 371.224V370.227L181.49 370.369C182.06 369.301 183.343 368.446 185.196 367.663C187.049 366.88 189.33 366.239 192.039 365.598L196.529 366.239C197.883 366.452 198.596 366.666 198.596 366.951C198.596 367.093 198.311 367.236 197.74 367.449C197.17 367.663 196.529 367.877 195.745 368.162C194.961 368.446 194.248 368.803 193.464 369.159C192.751 369.515 192.181 370.013 191.825 370.441L225.038 370.512ZM191.825 371.865C192.11 372.506 192.68 373.076 193.607 373.503C194.533 374.002 195.673 374.358 197.028 374.643C198.382 374.928 199.95 375.141 201.66 375.284C203.371 375.426 205.153 375.497 207.077 375.497C209.287 375.497 211.14 375.426 212.779 375.213C214.418 374.999 215.844 374.785 217.055 374.5C218.267 374.215 219.336 373.859 220.262 373.432C221.189 373.005 221.973 372.577 222.686 372.15L191.825 371.865ZM270.937 370.939C270.652 370.298 270.011 369.728 269.013 369.23C268.015 368.731 266.661 368.304 265.093 368.019C263.525 367.663 261.601 367.449 259.534 367.236C257.396 367.093 255.044 367.022 252.478 367.022C250.197 367.022 248.201 367.164 246.562 367.307C244.923 367.521 243.497 367.734 242.286 368.09C241.074 368.446 240.076 368.803 239.221 369.23C238.366 369.657 237.582 370.156 236.869 370.583L270.937 370.939Z" fill="#FFDE1A"/>
<path opacity="0.3" d="M235.158 357.407C187.691 357.407 138.299 361.609 130.388 369.657C130.673 369.942 130.958 370.227 131.243 370.583C137.871 364.957 178.711 359.33 235.158 359.33C293.032 359.33 334.512 365.242 339.502 371.011C339.715 370.726 340 370.37 340.286 370.085C333.8 361.752 283.41 357.407 235.158 357.407Z" fill="#F2B816"/>
<path d="M261.03 385.255C209.001 385.255 154.549 380.269 154.549 370.726C154.549 370.227 154.763 369.301 155.262 369.301C155.761 369.301 155.547 370.013 155.547 370.583C155.547 376.637 198.881 383.403 261.03 383.403C323.18 383.403 366.514 376.637 366.514 370.583C366.514 370.085 366.585 369.586 367.155 369.586C367.725 369.586 367.583 370.298 367.583 370.797C367.583 380.269 313.131 385.255 261.03 385.255Z" fill="#ADADAD"/>
<path d="M154.62 346.653V370.227C154.62 377.848 202.302 384.044 261.03 384.044C319.83 384.044 367.44 377.848 367.44 370.227V346.653H154.62Z" fill="#B8B8B8"/>
<path d="M261.03 360.47C319.799 360.47 367.44 354.284 367.44 346.653C367.44 339.022 319.799 332.836 261.03 332.836C202.262 332.836 154.62 339.022 154.62 346.653C154.62 354.284 202.262 360.47 261.03 360.47Z" fill="#C5C5C5"/>
<path d="M261.03 361.396C209.001 361.396 154.549 356.411 154.549 346.867C154.549 346.368 154.763 345.442 155.262 345.442C155.761 345.442 155.547 346.155 155.547 346.724C155.547 352.778 198.881 359.544 261.03 359.544C323.18 359.544 366.514 352.778 366.514 346.724C366.514 346.226 366.585 345.727 367.155 345.727C367.725 345.727 367.583 346.439 367.583 346.938C367.583 356.482 313.131 361.396 261.03 361.396Z" fill="#E3E3E3"/>
<path d="M250.981 347.436C252.05 346.724 253.119 346.012 254.331 345.3C255.542 344.587 257.039 343.946 258.892 343.377C260.745 342.807 263.097 342.38 265.877 342.023C268.657 341.667 272.22 341.454 276.354 341.454C280.488 341.454 284.337 341.596 287.971 341.881C291.606 342.166 294.742 342.593 297.522 343.163C300.23 343.733 302.511 344.445 304.222 345.228C305.932 346.083 306.93 347.009 307.286 348.077L319.26 348.22C320.115 348.22 320.899 348.291 321.541 348.433C322.182 348.576 322.539 348.718 322.539 348.932V349.929L307.144 349.787C306.574 350.997 305.219 352.066 303.01 353.134C300.801 354.131 298.021 354.986 294.529 355.769L288.898 354.986C288.399 354.915 287.971 354.843 287.686 354.701C287.33 354.558 287.187 354.487 287.187 354.345C287.187 354.131 287.615 353.917 288.47 353.704C289.326 353.49 290.323 353.134 291.393 352.778C292.462 352.422 293.531 351.994 294.6 351.496C295.669 350.997 296.31 350.428 296.738 349.715L260.389 349.359C259.462 350.071 258.322 350.784 257.182 351.425C255.97 352.137 254.402 352.707 252.478 353.276C250.553 353.846 248.059 354.274 245.137 354.63C242.214 354.986 238.508 355.128 234.089 355.199C230.74 355.199 227.532 355.057 224.325 354.843C221.118 354.558 218.338 354.202 215.844 353.633C213.349 353.063 211.353 352.422 209.785 351.638C208.217 350.855 207.291 349.929 207.148 348.932L197.313 348.861C196.457 348.861 195.673 348.789 194.961 348.647C194.248 348.505 193.963 348.362 193.963 348.148V347.151L207.433 347.294C208.004 346.225 209.286 345.371 211.14 344.587C212.993 343.804 215.273 343.163 217.982 342.522L222.472 343.163C223.826 343.377 224.539 343.59 224.539 343.875C224.539 344.018 224.254 344.16 223.684 344.374C223.113 344.587 222.472 344.801 221.688 345.086C220.904 345.371 220.191 345.727 219.407 346.083C218.694 346.439 218.124 346.938 217.768 347.365L250.981 347.436ZM217.697 348.789C217.982 349.43 218.552 350 219.478 350.428C220.405 350.926 221.545 351.282 222.9 351.567C224.254 351.852 225.822 352.066 227.532 352.208C229.243 352.351 231.025 352.422 232.949 352.422C235.158 352.422 237.012 352.351 238.651 352.137C240.29 351.923 241.716 351.71 242.927 351.425C244.139 351.14 245.208 350.784 246.134 350.356C247.061 349.929 247.845 349.502 248.558 349.074L217.697 348.789ZM296.881 347.864C296.595 347.223 295.954 346.653 294.956 346.154C293.958 345.656 292.604 345.228 291.036 344.943C289.468 344.587 287.544 344.374 285.477 344.16C283.339 344.018 280.987 343.946 278.421 343.946C276.14 343.946 274.145 344.089 272.505 344.231C270.866 344.445 269.441 344.659 268.229 345.015C267.017 345.371 266.019 345.727 265.164 346.154C264.309 346.582 263.525 347.08 262.812 347.507L296.881 347.864Z" fill="#D2D2D2"/>
<path opacity="0.3" d="M261.102 334.332C213.634 334.332 164.242 338.534 156.331 346.582C156.616 346.867 156.901 347.151 157.186 347.508C163.815 341.881 204.654 336.255 261.102 336.255C318.975 336.255 360.456 342.166 365.445 347.935C365.659 347.65 365.944 347.294 366.229 347.009C359.743 338.676 309.353 334.332 261.102 334.332Z" fill="#B8B8B8"/>
<path d="M277.494 360.897C225.465 360.897 171.013 355.911 171.013 346.368C171.013 345.869 171.227 344.943 171.726 344.943C172.225 344.943 172.011 345.656 172.011 346.225C172.011 352.279 215.345 359.045 277.494 359.045C339.644 359.045 382.978 352.279 382.978 346.225C382.978 345.727 383.049 345.228 383.619 345.228C384.189 345.228 384.047 345.94 384.047 346.439C383.976 355.983 329.523 360.897 277.494 360.897Z" fill="#ADADAD"/>
<path d="M171.084 322.366V345.941C171.084 353.561 218.766 359.758 277.494 359.758C336.294 359.758 383.904 353.561 383.904 345.941V322.366H171.084Z" fill="#B8B8B8"/>
<path d="M277.494 336.183C336.263 336.183 383.904 329.997 383.904 322.366C383.904 314.735 336.263 308.549 277.494 308.549C218.726 308.549 171.084 314.735 171.084 322.366C171.084 329.997 218.726 336.183 277.494 336.183Z" fill="#C5C5C5"/>
<path d="M277.494 337.109C225.465 337.109 171.013 332.123 171.013 322.58C171.013 322.081 171.227 321.155 171.726 321.155C172.225 321.155 172.011 321.868 172.011 322.437C172.011 328.491 215.345 335.257 277.494 335.257C339.644 335.257 382.978 328.491 382.978 322.437C382.978 321.939 383.049 321.44 383.619 321.44C384.189 321.44 384.047 322.152 384.047 322.651C383.976 332.123 329.523 337.109 277.494 337.109Z" fill="#E3E3E3"/>
<path d="M267.445 323.078C268.514 322.366 269.583 321.654 270.795 320.942C272.006 320.229 273.503 319.588 275.356 319.019C277.209 318.449 279.561 318.022 282.341 317.665C285.121 317.309 288.684 317.096 292.818 317.096C296.952 317.096 300.801 317.238 304.435 317.523C308.07 317.808 311.206 318.235 313.986 318.805C316.694 319.375 318.975 320.087 320.686 320.87C322.396 321.725 323.394 322.651 323.75 323.719L335.724 323.862C336.579 323.862 337.363 323.933 338.005 324.075C338.646 324.218 339.003 324.36 339.003 324.574V325.571L323.608 325.429C323.038 326.639 321.683 327.708 319.474 328.776C317.265 329.773 314.485 330.628 310.993 331.411L305.362 330.628C304.863 330.557 304.435 330.485 304.15 330.343C303.794 330.201 303.651 330.129 303.651 329.987C303.651 329.773 304.079 329.56 304.934 329.346C305.79 329.132 306.787 328.776 307.857 328.42C308.926 328.064 309.995 327.637 311.064 327.138C312.133 326.639 312.774 326.07 313.202 325.357L276.853 325.001C275.926 325.714 274.786 326.426 273.646 327.067C272.434 327.779 270.866 328.349 268.942 328.919C267.017 329.488 264.523 329.916 261.601 330.272C258.678 330.628 254.972 330.77 250.553 330.841C247.204 330.841 243.996 330.699 240.789 330.485C237.582 330.201 234.802 329.844 232.308 329.275C229.813 328.705 227.817 328.064 226.249 327.28C224.681 326.497 223.755 325.571 223.612 324.574L213.777 324.503C212.921 324.503 212.137 324.432 211.425 324.289C210.712 324.147 210.427 324.004 210.427 323.791V322.793L223.897 322.936C224.468 321.868 225.75 321.013 227.604 320.229C229.457 319.446 231.737 318.805 234.446 318.164L238.936 318.805C240.29 319.019 241.003 319.232 241.003 319.517C241.003 319.66 240.718 319.802 240.148 320.016C239.577 320.229 238.936 320.443 238.152 320.728C237.368 321.013 236.655 321.369 235.871 321.725C235.158 322.081 234.588 322.58 234.232 323.007L267.445 323.078ZM234.161 324.432C234.446 325.073 235.016 325.642 235.942 326.07C236.869 326.568 238.009 326.924 239.364 327.209C240.718 327.494 242.286 327.708 243.996 327.85C245.707 327.993 247.489 328.064 249.413 328.064C251.622 328.064 253.476 327.993 255.115 327.779C256.754 327.565 258.18 327.352 259.391 327.067C260.603 326.782 261.672 326.426 262.598 325.998C263.525 325.571 264.309 325.144 265.022 324.716L234.161 324.432ZM313.273 323.577C312.988 322.936 312.347 322.366 311.349 321.868C310.351 321.369 308.997 320.942 307.429 320.657C305.861 320.301 303.937 320.087 301.87 319.873C299.731 319.731 297.379 319.66 294.814 319.66C292.533 319.66 290.537 319.802 288.898 319.945C287.259 320.158 285.833 320.372 284.622 320.728C283.41 321.084 282.412 321.44 281.557 321.868C280.702 322.295 279.918 322.793 279.205 323.221L313.273 323.577Z" fill="#D2D2D2"/>
<path opacity="0.3" d="M277.494 310.045C230.027 310.045 180.635 314.247 172.724 322.295C173.009 322.58 173.294 322.865 173.579 323.221C180.207 317.594 221.046 311.968 277.494 311.968C335.368 311.968 376.848 317.879 381.837 323.648C382.051 323.363 382.336 323.007 382.621 322.722C376.136 314.389 325.817 310.045 277.494 310.045Z" fill="#B8B8B8"/>
<path d="M266.376 334.046C214.347 334.046 159.895 329.061 159.895 319.517C159.895 319.019 160.108 318.093 160.607 318.093C161.106 318.093 160.892 318.805 160.892 319.375C160.892 325.429 204.226 332.195 266.376 332.195C328.526 332.195 371.859 325.429 371.859 319.375C371.859 318.876 371.931 318.378 372.501 318.378C373.071 318.378 372.928 319.09 372.928 319.588C372.857 329.061 318.405 334.046 266.376 334.046Z" fill="#EDAB07"/>
<path d="M159.895 295.444V319.019C159.895 326.639 207.576 332.836 266.305 332.836C325.104 332.836 372.715 326.639 372.715 319.019V295.444H159.895Z" fill="#F2B816"/>
<path d="M266.376 309.261C325.144 309.261 372.786 303.075 372.786 295.444C372.786 287.814 325.144 281.627 266.376 281.627C207.607 281.627 159.966 287.814 159.966 295.444C159.966 303.075 207.607 309.261 266.376 309.261Z" fill="#FFC817"/>
<path d="M266.376 310.258C214.347 310.258 159.895 305.273 159.895 295.729C159.895 295.231 160.108 294.305 160.607 294.305C161.106 294.305 160.892 295.017 160.892 295.587C160.892 301.64 204.226 308.407 266.376 308.407C328.526 308.407 371.859 301.64 371.859 295.587C371.859 295.088 371.931 294.59 372.501 294.59C373.071 294.59 372.928 295.302 372.928 295.8C372.857 305.273 318.405 310.258 266.376 310.258Z" fill="#FFEC62"/>
<path d="M256.326 296.228C257.395 295.516 258.465 294.803 259.676 294.091C260.888 293.379 262.385 292.738 264.238 292.168C266.091 291.598 268.443 291.171 271.222 290.815C274.002 290.459 277.566 290.245 281.699 290.245C285.833 290.245 289.682 290.388 293.317 290.672C296.952 290.957 300.088 291.385 302.867 291.954C305.576 292.524 307.856 293.236 309.567 294.02C311.278 294.875 312.275 295.8 312.632 296.869L324.606 297.011C325.461 297.011 326.245 297.082 326.886 297.225C327.528 297.367 327.884 297.51 327.884 297.723V298.72L312.489 298.507C311.919 299.718 310.565 300.786 308.355 301.854C306.146 302.851 303.366 303.706 299.874 304.489L294.243 303.706C293.745 303.635 293.317 303.564 293.032 303.421C292.675 303.279 292.533 303.207 292.533 303.065C292.533 302.851 292.961 302.638 293.816 302.424C294.671 302.21 295.669 301.854 296.738 301.498C297.807 301.142 298.876 300.715 299.945 300.216C301.014 299.718 301.656 299.148 302.083 298.436L265.734 298.079C264.808 298.792 263.667 299.504 262.527 300.145C261.315 300.857 259.747 301.427 257.823 301.997C255.899 302.566 253.404 302.994 250.482 303.35C247.56 303.706 243.854 303.848 239.435 303.92C236.085 303.92 232.878 303.777 229.67 303.564C226.463 303.279 223.684 302.923 221.189 302.353C218.694 301.783 216.699 301.142 215.131 300.359C213.563 299.575 212.636 298.649 212.494 297.652L202.658 297.581C201.803 297.581 201.019 297.51 200.306 297.367C199.593 297.225 199.308 297.082 199.308 296.869V295.872L212.779 296.014C213.349 294.946 214.632 294.091 216.485 293.308C218.338 292.524 220.619 291.883 223.327 291.242L227.817 291.883C229.172 292.097 229.884 292.311 229.884 292.595C229.884 292.738 229.599 292.88 229.029 293.094C228.459 293.308 227.817 293.521 227.033 293.806C226.249 294.091 225.537 294.447 224.753 294.803C224.04 295.159 223.47 295.658 223.113 296.085L256.326 296.228ZM223.042 297.581C223.327 298.222 223.897 298.792 224.824 299.219C225.75 299.718 226.891 300.074 228.245 300.359C229.599 300.643 231.167 300.857 232.878 301C234.588 301.142 236.37 301.213 238.294 301.213C240.504 301.213 242.357 301.142 243.996 300.928C245.636 300.715 247.061 300.501 248.273 300.216C249.484 299.931 250.553 299.575 251.48 299.148C252.406 298.72 253.19 298.293 253.903 297.866L223.042 297.581ZM302.155 296.726C301.87 296.085 301.228 295.516 300.23 295.017C299.232 294.518 297.878 294.091 296.31 293.806C294.742 293.45 292.818 293.236 290.751 293.023C288.613 292.88 286.261 292.809 283.695 292.809C281.414 292.809 279.419 292.952 277.779 293.094C276.14 293.308 274.715 293.521 273.503 293.877C272.291 294.234 271.294 294.59 270.438 295.017C269.583 295.444 268.799 295.943 268.086 296.37L302.155 296.726Z" fill="#FFDE1A"/>
<path opacity="0.3" d="M266.376 283.194C218.908 283.194 169.516 287.396 161.605 295.444C161.89 295.729 162.175 296.014 162.46 296.37C169.089 290.744 209.928 285.117 266.376 285.117C324.249 285.117 365.73 291.029 370.719 296.798C370.933 296.513 371.218 296.157 371.503 295.872C365.017 287.468 314.627 283.194 266.376 283.194Z" fill="#F2B816"/>
<path d="M232.806 307.481C180.777 307.481 126.325 302.495 126.325 292.952C126.325 292.453 126.539 291.527 127.038 291.527C127.537 291.527 127.323 292.24 127.323 292.809C127.323 298.863 170.657 305.629 232.806 305.629C294.956 305.629 338.29 298.863 338.29 292.809C338.29 292.311 338.361 291.812 338.931 291.812C339.43 291.812 339.359 292.524 339.359 293.023C339.288 302.567 284.907 307.481 232.806 307.481Z" fill="#EDAB07"/>
<path d="M126.396 268.95V292.524C126.396 300.145 174.078 306.341 232.806 306.341C291.606 306.341 339.216 300.145 339.216 292.524V268.95H126.396Z" fill="#F2B816"/>
<path d="M232.806 282.767C291.575 282.767 339.216 276.581 339.216 268.95C339.216 261.319 291.575 255.133 232.806 255.133C174.038 255.133 126.396 261.319 126.396 268.95C126.396 276.581 174.038 282.767 232.806 282.767Z" fill="#FFC817"/>
<path d="M232.806 283.693C180.777 283.693 126.325 278.707 126.325 269.164C126.325 268.665 126.539 267.739 127.038 267.739C127.537 267.739 127.323 268.451 127.323 269.021C127.323 275.075 170.657 281.841 232.806 281.841C294.956 281.841 338.29 275.075 338.29 269.021C338.29 268.523 338.361 268.024 338.931 268.024C339.43 268.024 339.359 268.736 339.359 269.235C339.288 278.707 284.907 283.693 232.806 283.693Z" fill="#FFEC62"/>
<path d="M222.757 269.662C223.826 268.95 224.895 268.238 226.107 267.526C227.318 266.813 228.815 266.172 230.668 265.603C232.521 265.033 234.873 264.606 237.653 264.249C240.433 263.893 243.996 263.68 248.13 263.68C252.264 263.68 256.113 263.822 259.747 264.107C263.382 264.392 266.518 264.819 269.298 265.389C272.006 265.959 274.287 266.671 275.998 267.454C277.708 268.309 278.706 269.235 279.062 270.303L291.036 270.446C291.891 270.446 292.675 270.517 293.317 270.659C293.958 270.802 294.315 270.944 294.315 271.158V272.155L278.92 272.013C278.35 273.223 276.995 274.292 274.786 275.36C272.577 276.357 269.797 277.212 266.305 277.995L260.674 277.212C260.175 277.141 259.747 277.069 259.462 276.927C259.106 276.784 258.963 276.713 258.963 276.571C258.963 276.357 259.391 276.143 260.246 275.93C261.102 275.716 262.099 275.36 263.169 275.004C264.238 274.648 265.307 274.221 266.376 273.722C267.445 273.223 268.086 272.654 268.514 271.941L232.165 271.585C231.238 272.298 230.098 273.01 228.958 273.651C227.746 274.363 226.178 274.933 224.254 275.502C222.329 276.072 219.835 276.5 216.913 276.856C213.99 277.212 210.284 277.354 205.865 277.425C202.516 277.425 199.308 277.283 196.101 277.069C192.894 276.784 190.114 276.428 187.62 275.859C185.125 275.289 183.129 274.648 181.561 273.864C179.993 273.081 179.067 272.155 178.924 271.158L169.089 271.087C168.233 271.087 167.449 271.016 166.737 270.873C166.024 270.731 165.739 270.588 165.739 270.375V269.377L179.209 269.52C179.78 268.452 181.063 267.597 182.916 266.813C184.769 266.03 187.049 265.389 189.758 264.748L194.248 265.389C195.602 265.603 196.315 265.816 196.315 266.101C196.315 266.244 196.03 266.386 195.46 266.6C194.889 266.813 194.248 267.027 193.464 267.312C192.68 267.597 191.967 267.953 191.183 268.309C190.471 268.665 189.9 269.164 189.544 269.591L222.757 269.662ZM189.473 271.016C189.758 271.657 190.328 272.226 191.255 272.654C192.181 273.152 193.321 273.508 194.676 273.793C196.03 274.078 197.598 274.292 199.308 274.434C201.019 274.577 202.801 274.648 204.725 274.648C206.934 274.648 208.788 274.577 210.427 274.363C212.066 274.149 213.492 273.936 214.703 273.651C215.915 273.366 216.984 273.01 217.91 272.582C218.837 272.155 219.621 271.728 220.334 271.3L189.473 271.016ZM268.657 270.161C268.371 269.52 267.73 268.95 266.732 268.452C265.734 267.953 264.38 267.526 262.812 267.241C261.244 266.885 259.32 266.671 257.253 266.457C255.115 266.315 252.763 266.244 250.197 266.244C247.916 266.244 245.921 266.386 244.281 266.529C242.642 266.742 241.217 266.956 240.005 267.312C238.793 267.668 237.796 268.024 236.94 268.452C236.085 268.879 235.301 269.377 234.588 269.805L268.657 270.161Z" fill="#FFDE1A"/>
<path opacity="0.3" d="M232.806 256.628C185.339 256.628 135.947 260.83 128.036 268.879C128.321 269.163 128.606 269.448 128.891 269.804C135.519 264.178 176.359 258.551 232.806 258.551C290.68 258.551 332.16 264.463 337.15 270.232C337.363 269.947 337.648 269.591 337.934 269.306C331.448 260.902 281.129 256.628 232.806 256.628Z" fill="#F2B816"/>
<path d="M253.903 283.265C201.874 283.265 147.422 278.28 147.422 268.736C147.422 268.237 147.636 267.312 148.135 267.312C148.634 267.312 148.42 268.024 148.42 268.594C148.42 274.647 191.753 281.413 253.903 281.413C316.053 281.413 359.387 274.647 359.387 268.594C359.387 268.095 359.458 267.596 360.028 267.596C360.527 267.596 360.456 268.309 360.456 268.807C360.384 278.28 305.932 283.265 253.903 283.265Z" fill="#ADADAD"/>
<path d="M147.493 244.663V268.237C147.493 275.858 195.175 282.054 253.903 282.054C312.703 282.054 360.313 275.858 360.313 268.237V244.663H147.493Z" fill="#B8B8B8"/>
<path d="M253.903 258.48C312.672 258.48 360.313 252.294 360.313 244.663C360.313 237.032 312.672 230.846 253.903 230.846C195.135 230.846 147.493 237.032 147.493 244.663C147.493 252.294 195.135 258.48 253.903 258.48Z" fill="#C5C5C5"/>
<path d="M253.903 259.406C201.874 259.406 147.422 254.421 147.422 244.877C147.422 244.379 147.636 243.453 148.135 243.453C148.634 243.453 148.42 244.165 148.42 244.735C148.42 250.788 191.753 257.555 253.903 257.555C316.053 257.555 359.387 250.788 359.387 244.735C359.387 244.236 359.458 243.738 360.028 243.738C360.527 243.738 360.456 244.45 360.456 244.948C360.384 254.421 305.932 259.406 253.903 259.406Z" fill="#E3E3E3"/>
<path d="M243.854 245.446C244.923 244.734 245.992 244.022 247.204 243.31C248.415 242.598 249.912 241.957 251.765 241.387C253.618 240.817 255.97 240.39 258.75 240.034C261.529 239.678 265.093 239.464 269.227 239.464C273.361 239.464 277.209 239.606 280.844 239.891C284.479 240.176 287.615 240.603 290.395 241.173C293.103 241.743 295.384 242.455 297.094 243.239C298.805 244.093 299.803 245.019 300.159 246.087L312.133 246.23C312.988 246.23 313.772 246.301 314.414 246.444C315.055 246.586 315.411 246.728 315.411 246.942V247.939L300.017 247.797C299.446 249.008 298.092 250.076 295.883 251.144C293.673 252.141 290.894 252.996 287.401 253.779L281.771 252.996C281.272 252.925 280.844 252.854 280.559 252.711C280.203 252.569 280.06 252.497 280.06 252.355C280.06 252.141 280.488 251.928 281.343 251.714C282.198 251.5 283.196 251.144 284.265 250.788C285.334 250.432 286.403 250.005 287.473 249.506C288.542 249.008 289.183 248.438 289.611 247.726L253.262 247.369C252.335 248.082 251.195 248.794 250.054 249.435C248.843 250.147 247.275 250.717 245.35 251.287C243.426 251.856 240.932 252.284 238.009 252.64C235.087 252.996 231.381 253.138 226.962 253.21C223.612 253.21 220.405 253.067 217.198 252.854C213.99 252.569 211.211 252.213 208.716 251.643C206.222 251.073 204.226 250.432 202.658 249.649C201.09 248.865 200.164 247.939 200.021 246.942L190.185 246.871C189.33 246.871 188.546 246.8 187.833 246.657C187.121 246.515 186.836 246.372 186.836 246.159V245.162L200.306 245.304C200.876 244.236 202.159 243.381 204.012 242.598C205.865 241.814 208.146 241.173 210.854 240.532L215.345 241.173C216.699 241.387 217.412 241.601 217.412 241.885C217.412 242.028 217.126 242.17 216.556 242.384C215.986 242.598 215.345 242.811 214.561 243.096C213.777 243.381 213.064 243.737 212.28 244.093C211.567 244.449 210.997 244.948 210.641 245.375L243.854 245.446ZM210.569 246.8C210.854 247.441 211.425 248.01 212.351 248.438C213.278 248.936 214.418 249.292 215.772 249.577C217.126 249.862 218.694 250.076 220.405 250.218C222.116 250.361 223.897 250.432 225.822 250.432C228.031 250.432 229.884 250.361 231.524 250.147C233.163 249.933 234.588 249.72 235.8 249.435C237.012 249.15 238.081 248.794 239.007 248.367C239.934 247.939 240.718 247.512 241.43 247.085L210.569 246.8ZM289.753 245.874C289.468 245.233 288.827 244.663 287.829 244.164C286.831 243.666 285.477 243.239 283.909 242.954C282.341 242.598 280.417 242.384 278.35 242.17C276.211 242.028 273.859 241.957 271.294 241.957C269.013 241.957 267.017 242.099 265.378 242.242C263.739 242.455 262.313 242.669 261.102 243.025C259.89 243.381 258.892 243.737 258.037 244.164C257.182 244.592 256.398 245.09 255.685 245.518L289.753 245.874Z" fill="#D2D2D2"/>
<path opacity="0.3" d="M253.903 232.342C206.436 232.342 157.044 236.544 149.132 244.592C149.418 244.877 149.703 245.162 149.988 245.518C156.616 239.891 197.455 234.265 253.903 234.265C311.777 234.265 353.257 240.176 358.246 245.945C358.46 245.66 358.745 245.304 359.03 245.019C352.544 236.686 302.226 232.342 253.903 232.342Z" fill="#B8B8B8"/>
<path d="M245.422 257.554C193.393 257.554 138.94 252.569 138.94 243.025C138.94 242.526 139.154 241.601 139.653 241.601C140.152 241.601 139.938 242.313 139.938 242.883C139.938 248.936 183.272 255.702 245.422 255.702C307.571 255.702 350.905 248.936 350.905 242.883C350.905 242.384 350.976 241.885 351.547 241.885C352.046 241.885 351.974 242.598 351.974 243.096C351.903 252.569 297.522 257.554 245.422 257.554Z" fill="#EDAB07"/>
<path d="M139.012 218.952V242.527C139.012 250.147 186.693 256.344 245.422 256.344C304.222 256.344 351.832 250.147 351.832 242.527V218.952H139.012Z" fill="#F2B816"/>
<path d="M245.422 232.769C304.19 232.769 351.832 226.583 351.832 218.952C351.832 211.321 304.19 205.135 245.422 205.135C186.653 205.135 139.012 211.321 139.012 218.952C139.012 226.583 186.653 232.769 245.422 232.769Z" fill="#FFC817"/>
<path d="M245.422 233.695C193.393 233.695 138.94 228.71 138.94 219.166C138.94 218.668 139.154 217.742 139.653 217.742C140.152 217.742 139.938 218.454 139.938 219.024C139.938 225.078 183.272 231.844 245.422 231.844C307.571 231.844 350.905 225.078 350.905 219.024C350.905 218.525 350.976 218.027 351.547 218.027C352.046 218.027 351.974 218.739 351.974 219.237C351.903 228.71 297.522 233.695 245.422 233.695Z" fill="#FFEC62"/>
<path d="M235.372 219.736C236.441 219.023 237.51 218.311 238.722 217.599C239.934 216.887 241.43 216.246 243.284 215.676C245.137 215.106 247.489 214.679 250.268 214.323C253.048 213.967 256.611 213.753 260.745 213.753C264.879 213.753 268.728 213.895 272.363 214.18C275.998 214.465 279.134 214.892 281.913 215.462C284.622 216.032 286.902 216.744 288.613 217.528C290.323 218.382 291.321 219.308 291.678 220.377L303.651 220.519C304.507 220.519 305.291 220.59 305.932 220.733C306.574 220.875 306.93 221.018 306.93 221.231V222.228L291.535 222.086C290.965 223.297 289.611 224.365 287.401 225.433C285.192 226.43 282.412 227.285 278.92 228.068L273.289 227.285C272.79 227.214 272.363 227.143 272.078 227C271.721 226.858 271.579 226.786 271.579 226.644C271.579 226.43 272.006 226.217 272.862 226.003C273.717 225.789 274.715 225.433 275.784 225.077C276.853 224.721 277.922 224.294 278.991 223.795C280.06 223.297 280.702 222.727 281.129 222.015L244.78 221.659C243.854 222.371 242.713 223.083 241.573 223.724C240.361 224.436 238.793 225.006 236.869 225.576C234.945 226.145 232.45 226.573 229.528 226.929C226.606 227.285 222.9 227.427 218.481 227.499C215.131 227.499 211.924 227.356 208.716 227.143C205.509 226.858 202.729 226.502 200.235 225.932C197.74 225.362 195.745 224.721 194.177 223.938C192.609 223.154 191.682 222.228 191.54 221.231L181.704 221.16C180.849 221.16 180.065 221.089 179.352 220.946C178.639 220.804 178.354 220.661 178.354 220.448V219.451L191.825 219.593C192.395 218.525 193.678 217.67 195.531 216.887C197.384 216.103 199.665 215.462 202.373 214.821L206.863 215.462C208.217 215.676 208.93 215.89 208.93 216.174C208.93 216.317 208.645 216.459 208.075 216.673C207.505 216.887 206.863 217.1 206.079 217.385C205.295 217.67 204.582 218.026 203.798 218.382C203.086 218.738 202.516 219.237 202.159 219.664L235.372 219.736ZM202.088 221.089C202.373 221.73 202.943 222.3 203.87 222.727C204.796 223.225 205.937 223.582 207.291 223.866C208.645 224.151 210.213 224.365 211.924 224.507C213.634 224.65 215.416 224.721 217.34 224.721C219.55 224.721 221.403 224.65 223.042 224.436C224.681 224.222 226.107 224.009 227.318 223.724C228.53 223.439 229.599 223.083 230.526 222.656C231.452 222.228 232.236 221.801 232.949 221.374L202.088 221.089ZM281.272 220.163C280.987 219.522 280.345 218.952 279.347 218.454C278.35 217.955 276.995 217.528 275.427 217.243C273.859 216.887 271.935 216.673 269.868 216.459C267.73 216.317 265.378 216.246 262.812 216.246C260.531 216.246 258.536 216.388 256.897 216.531C255.257 216.744 253.832 216.958 252.62 217.314C251.409 217.67 250.411 218.026 249.556 218.454C248.7 218.881 247.916 219.379 247.203 219.807L281.272 220.163Z" fill="#FFDE1A"/>
<path opacity="0.3" d="M245.422 206.631C197.954 206.631 148.562 210.833 140.651 218.881C140.936 219.166 141.221 219.451 141.506 219.807C148.135 214.18 188.974 208.554 245.422 208.554C303.295 208.554 344.776 214.465 349.765 220.234C349.979 219.949 350.264 219.593 350.549 219.308C344.063 210.975 293.745 206.631 245.422 206.631Z" fill="#F2B816"/>
<path d="M162.318 137.546C162.318 186.547 200.662 225.149 249.698 223.653C300.729 222.086 343.635 178.071 343.635 125.367C343.635 72.6632 300.729 34.4171 249.698 39.6875C200.662 44.8155 162.318 88.5456 162.318 137.546Z" fill="#C5C5C5"/>
<path d="M149.061 133.344C149.061 182.344 187.406 220.947 236.441 219.451C287.473 217.884 330.379 173.869 330.379 121.165C330.379 68.461 287.473 30.215 236.441 35.4854C187.406 40.6134 149.061 84.3435 149.061 133.344Z" fill="#D2D2D2"/>
<path d="M152.91 133.059C152.91 179.923 189.615 216.745 236.441 215.249C285.121 213.682 325.96 171.661 325.96 121.45C325.96 71.2388 285.121 34.7021 236.441 39.6876C189.615 44.4594 152.91 86.1953 152.91 133.059Z" fill="#B8B8B8"/>
<path d="M155.689 132.917C155.689 178.214 191.183 213.753 236.513 212.258C283.481 210.691 322.895 170.094 322.895 121.664C322.895 73.2329 283.41 37.907 236.441 42.6788C191.183 47.237 155.689 87.5485 155.689 132.917Z" fill="#D2D2D2"/>
<path d="M237.368 58.0628C239.791 58.2765 241.716 60.4843 241.716 62.9059V71.2388C246.562 71.8086 251.337 72.592 256.184 73.7316C259.747 74.5862 263.311 75.5833 266.803 76.7229C268.942 77.4351 270.367 79.5717 270.153 81.7084L269.155 92.178C268.87 94.9556 266.162 96.5937 263.525 95.4542C261.244 94.4571 258.821 93.5312 256.398 92.819C252.121 91.537 247.702 90.6823 242.998 90.3262L241.787 90.255V114.185C254.331 117.675 263.596 122.447 269.583 128.359C275.499 134.27 278.492 141.677 278.492 150.509C278.492 160.052 275.214 167.744 268.657 173.513C262.028 179.353 252.834 182.629 240.86 183.27V192.458C240.86 194.88 238.936 196.803 236.513 196.731H236.441C234.018 196.66 232.094 194.595 232.094 192.102V182.986L230.169 182.914C224.539 182.629 219.193 182.06 214.062 181.205C210.284 180.564 206.578 179.709 202.943 178.641C200.734 178 199.237 175.935 199.451 173.656L200.662 160.195C200.948 157.275 203.87 155.565 206.578 156.705C209.785 157.987 213.064 159.055 216.342 159.91C221.474 161.263 226.748 162.118 232.022 162.545L232.094 135.979C220.049 132.988 210.997 128.572 205.081 122.732C199.094 116.821 196.101 109.342 196.101 100.155C196.101 90.6823 199.38 83.3465 205.794 78.2185C212.209 73.0906 221.332 70.5978 233.163 70.5978V62.0512C232.949 59.6297 234.945 57.8491 237.368 58.0628ZM232.949 89.9701C229.243 90.255 226.321 91.2521 224.254 93.0326C222.187 94.8132 221.118 97.2347 221.118 100.226C221.118 103.075 222.116 105.425 224.04 107.348C225.964 109.271 228.958 110.767 233.02 111.906V89.9701H232.949ZM240.718 138.116V162.474C244.78 162.474 247.845 161.548 250.054 159.554C252.193 157.631 253.333 154.853 253.333 151.363C253.333 148.158 252.335 145.452 250.34 143.315C248.273 141.25 245.065 139.469 240.718 138.116Z" fill="#E5E5E5"/>
<path opacity="0.3" d="M251.052 144.027C248.344 117.105 223.541 105.71 226.748 80.9248C228.744 65.6834 240.361 52.7923 253.262 42.75C292.462 46.8809 322.753 79.2867 322.753 121.735C322.753 170.166 283.339 210.762 236.37 212.329C231.809 212.471 227.39 212.258 223.042 211.688C241.787 193.028 253.404 167.174 251.052 144.027Z" fill="#B8B8B8"/>
<path opacity="0.3" d="M214.276 217.314C225.038 221.801 237.012 224.08 249.698 223.653C265.022 223.154 279.633 218.881 292.533 211.616C296.952 209.124 300.23 206.845 298.377 204.85C296.097 202.429 282.626 205.634 277.209 208.483C264.808 215.035 250.91 218.952 236.441 219.38C228.815 219.664 221.332 218.881 214.276 217.314Z" fill="#B8B8B8"/>
<path d="M323.536 134.697C323.536 134.697 321.113 134.341 321.897 129.712C322.467 126.079 322.04 124.869 321.184 125.51C320.329 126.151 320.187 128.287 320.187 128.287C320.187 128.287 317.051 125.581 315.768 122.091C314.485 118.601 313.63 121.521 313.345 123.302C313.059 125.082 315.198 130.495 316.409 131.492C317.621 132.489 319.331 136.976 319.331 136.976L323.536 134.697Z" fill="#E89B67"/>
<path d="M330.45 182.059L333.657 175.934C333.657 175.934 335.653 172.872 333.657 167.601C332.659 164.895 333.443 170.379 327.884 178.498C326.886 179.994 327.456 182.059 327.456 182.059H330.45Z" fill="#E89B67"/>
<path d="M420.182 418.8C420.182 418.8 404.075 426.136 403.789 427.276C403.504 428.415 414.124 426.919 418.472 427.062C422.819 427.204 426.383 425.922 425.955 424.142C425.528 422.29 424.031 417.661 424.031 417.661L420.182 418.8Z" fill="#151560"/>
<path d="M419.612 412.818L420.61 420.082C420.61 420.082 423.176 421.008 424.886 419.94L425.599 411.963L419.612 412.818Z" fill="#E89B67"/>
<path d="M495.517 413.031L497.37 416.023C497.869 416.877 498.083 417.874 497.798 418.8C497.157 421.293 495.802 426.207 495.232 427.418C494.448 429.127 484.042 430.196 484.042 430.196C484.042 430.196 483.116 428.914 485.254 427.276C487.392 425.709 488.818 425.424 489.602 423.145C490.386 420.794 490.885 414.242 490.885 414.242L495.517 413.031Z" fill="#151560"/>
<path d="M487.677 405.411C488.39 405.981 491.74 416.094 491.74 416.094C491.74 416.094 492.809 417.447 494.876 415.453C496.943 413.388 495.802 414.527 495.802 414.527L495.446 404.556L487.677 405.411Z" fill="#E89B67"/>
<path d="M410.703 267.17C409.848 288.821 409.848 312.324 411.059 337.394C412.485 365.669 415.264 391.808 418.828 415.453C420.182 415.524 421.536 415.524 422.962 415.453C423.96 415.453 424.886 415.382 425.813 415.311C427.666 410.396 429.804 403.915 431.8 396.223C433.866 388.104 435.078 380.839 435.933 373.86C439.069 349.359 435.434 347.223 437.929 329.061C440.138 312.965 443.346 312.324 447.052 289.533C451.114 264.748 448.05 261.045 446.624 259.691C440.424 254.065 425.813 257.982 410.703 267.17Z" fill="#09467C"/>
<path opacity="0.15" d="M446.696 259.762C440.78 254.278 427.167 257.626 412.841 265.959C429.376 283.764 431.158 295.302 429.162 302.851C426.953 311.327 420.111 313.748 420.182 323.007C420.182 334.403 430.517 337.394 430.303 349.43C430.16 357.407 425.67 357.336 424.601 367.165C423.318 378.845 429.234 382.833 427.309 391.451C426.454 395.155 424.173 399.998 417.474 404.983C417.973 408.544 418.472 412.034 418.97 415.453C420.325 415.524 421.679 415.524 423.104 415.453C424.102 415.453 425.029 415.382 425.955 415.31C427.808 410.396 429.946 403.915 431.942 396.223C434.009 388.104 435.221 380.839 436.076 373.859C439.212 349.359 435.577 347.223 438.072 329.061C440.281 312.965 443.488 312.324 447.194 289.533C451.114 264.819 448.121 261.116 446.696 259.762Z" fill="#072450"/>
<path d="M420.966 266.813C435.149 287.61 450.473 313.463 464.229 344.374C474.563 367.734 482.118 389.742 487.606 409.328C488.319 409.684 490.101 410.396 492.381 410.04C495.446 409.613 497.299 407.69 497.798 407.12C500.007 393.089 499.794 381.195 499.01 372.649C498.511 367.165 497.655 358.048 494.163 346.724C490.243 334.047 487.535 333.334 482.403 320.016C477.058 306.128 478.412 302.638 473.28 285.26C471.213 278.138 467.721 267.526 461.948 254.777C448.264 258.836 434.579 262.825 420.966 266.813Z" fill="#09467C"/>
<path d="M415.621 149.298C415.621 149.298 416.12 155.352 418.115 159.91C419.968 163.97 429.02 166.32 430.873 167.175C432.726 168.029 427.594 170.878 422.32 171.59C417.046 172.302 402.008 171.519 399.228 169.667C396.448 167.744 401.366 167.744 405.072 166.249C408.778 164.753 410.703 157.346 409.99 154.07C409.206 150.722 415.621 149.298 415.621 149.298Z" fill="#DB874D"/>
<path d="M408.066 144.668C405.286 141.036 409.634 139.113 412.128 138.543C414.124 138.045 419.113 139.327 421.323 142.033C423.888 145.096 424.387 149.369 422.32 151.862C421.18 153.215 418.329 154.639 417.189 154.07C415.763 153.357 417.403 151.862 417.046 152.147C416.12 152.788 414.48 153.856 411.701 154.853C411.772 154.212 411.843 153.357 411.772 152.36C411.772 152.004 411.629 150.508 411.202 149.226C410.347 146.876 408.921 145.879 408.066 144.668Z" fill="#382D1D"/>
<path d="M415.122 154.07C415.122 154.07 411.701 156.776 407.496 154.996C403.789 153.357 406.284 144.597 409.42 143.671C410.489 143.386 412.2 143.671 413.34 144.526C414.053 145.024 414.195 145.452 415.336 146.235C416.405 146.947 416.761 146.947 417.046 147.375C417.331 147.945 417.331 148.942 415.692 151.221C416.69 150.722 417.688 150.793 418.186 151.292C418.258 151.363 418.472 151.648 418.543 152.004C418.757 153.215 417.402 154.141 415.122 154.07Z" fill="#E89B67"/>
<path d="M403.291 175.65C389.677 170.736 379.628 192.743 359.03 189.681C345.346 187.615 335.795 175.792 329.024 180.279C326.815 181.704 325.96 184.268 325.532 186.048C328.098 192.458 335.154 207.13 350.763 215.819C373.712 228.568 408.493 224.864 415.692 208.056C420.467 197.016 413.768 179.425 403.291 175.65Z" fill="#598CC9"/>
<path d="M478.768 274.434C472.853 279.776 462.589 280.203 460.309 280.345C449.76 280.773 448.264 276.214 437.786 276.642C427.309 277.069 424.53 281.841 417.117 279.989C415.834 279.633 410.632 278.137 405.215 271.015C389.749 250.788 402.649 228.567 387.254 200.007C384.902 195.734 382.907 191.888 378.773 187.828C365.445 174.652 352.758 180.635 336.009 170.094C322.254 161.405 312.988 144.027 316.979 136.193C318.761 132.632 320.329 133.13 322.752 132.845C326.815 139.754 336.936 148.229 348.553 153.143C359.6 157.773 368.082 155.565 384.973 155.779C395.308 155.921 412.984 156.206 427.024 161.191C462.162 173.726 475.133 216.459 478.982 229.137C482.474 240.176 489.815 264.392 478.768 274.434Z" fill="#70A0E5"/>
<path opacity="0.15" d="M449.974 264.748C453.823 259.833 434.08 246.23 436.717 230.348C438.927 216.958 454.821 215.676 458.812 203.355C460.594 198.013 460.237 190.25 452.754 178.712C469.075 196.446 476.345 220.234 479.053 229.137C482.403 240.176 489.744 264.463 478.697 274.434C472.781 279.775 462.518 280.203 460.237 280.345C449.689 280.773 448.192 276.214 437.715 276.642C427.238 277.069 424.458 281.841 417.046 279.989C415.763 279.633 410.56 278.137 405.144 271.015C405.072 270.944 405.001 270.802 404.93 270.73C409.064 266.813 413.981 263.608 419.897 262.326C434.508 259.05 446.909 268.736 449.974 264.748Z" fill="#072450"/>
</svg>
