<svg width="360" height="268" viewBox="0 0 360 268" fill="none" xmlns="http://www.w3.org/2000/svg">
<g clip-path="url(#clip0_354_971)">
<path d="M97.7139 182.389C100.881 185.316 108.818 185.396 109.579 188.081C110.221 190.406 104.488 191.448 105.571 193.052C107.214 195.537 122.848 196.74 135.675 195.417C148.903 194.054 166.421 189.284 167.463 182.029C168.625 173.892 148.222 168.2 130.384 168.24C128.46 168.24 112.345 168.4 102.925 173.33C102.444 173.571 93.4248 178.421 97.7139 182.389Z" fill="white"/>
<path d="M-147.009 290.216C-121.514 292.701 -92.0113 289.735 -76.0973 274.142C-68.8418 267.047 -64.713 257.627 -54.6515 252.897C-49.6408 250.572 -43.7081 249.691 -37.8957 249.37C-13.0025 248.007 10.6881 255.944 34.4188 261.435C58.1495 266.927 85.6883 269.733 106.773 259.351C116.995 254.3 124.892 246.524 136.196 243.077C152.631 238.066 170.63 243.718 187.305 247.807C214.604 254.461 245.991 256.545 271.204 245.602C274.852 243.999 278.34 242.195 281.787 240.271C285.435 237.745 289.604 235.541 294.133 233.697C298.703 231.492 303.513 229.608 308.765 228.526C313.214 227.604 317.784 227.324 322.354 227.524C323.556 227.444 324.759 227.404 325.961 227.404C351.696 227.003 376.229 234.539 401.483 237.946C426.737 241.353 456.4 239.429 473.276 224.438C480.973 217.583 485.663 208.324 496.005 203.995C501.136 201.83 507.148 201.189 512.961 201.069C537.894 200.628 561.023 209.366 584.393 215.739C607.723 222.113 635.022 225.881 656.748 216.26C667.25 211.611 675.628 204.075 687.133 201.069C703.849 196.659 721.446 202.952 737.841 207.602C763.095 214.777 792.197 218.064 817.09 210.047C816.008 121.221 812.841 27.4644 808.272 28.3463C798.491 30.2703 790.193 38.4074 781.013 43.1373C762.774 52.557 742.05 48.0676 724.613 39.169C713.99 33.7175 702.646 26.5425 691.021 30.5108C683.044 33.1964 676.751 40.6922 669.295 45.1415C653.862 54.3207 635.823 49.3503 620.631 41.8947C605.398 34.439 590.567 24.4982 573.731 24.0172C569.802 23.8969 565.714 24.3779 562.066 26.4222C554.73 30.5509 550.802 39.9706 545.029 46.7449C532.402 61.6561 512.279 62.538 495.564 58.0486C485.582 55.3629 475.922 51.1942 466.061 48.1478C464.938 47.6267 463.776 47.1457 462.613 46.6647C454.356 43.2575 445.176 40.4917 436.037 41.4938C425.574 42.6162 417.036 48.3883 407.335 51.6351C388.134 58.0486 365.646 54.0802 346.565 46.9453C334.901 42.5761 322.434 36.9242 310.128 39.4495C301.67 41.2132 295.216 46.5444 287.359 49.5908C271.164 55.884 251.563 51.6752 234.927 45.7027C218.291 39.6901 201.937 31.8737 183.858 30.9918C179.609 30.7914 175.24 30.9918 171.431 32.3947C163.735 35.2407 159.887 42.0951 153.994 46.9453C141.047 57.6477 119.44 57.6878 101.282 53.8397C83.1228 49.9917 65.7256 43.0571 47.0457 42.0951C37.6256 41.6141 27.524 43.3778 19.3867 47.1056C11.2493 50.0718 4.03387 56.6857 -3.94316 60.7743C-22.1821 70.194 -42.9064 65.7046 -60.3436 56.806C-70.9663 51.3545 -82.3105 44.1795 -93.9354 48.1478C-101.912 50.8334 -108.206 58.3291 -115.662 62.7785C-131.095 71.9577 -149.133 66.9873 -164.326 59.5317C-179.478 52.076 -194.31 42.1352 -211.106 41.6542C-213.791 41.6141 -213.07 183.872 -212.268 282.319C-190.341 282.88 -168.855 288.091 -147.009 290.216Z" fill="#E3F4FF"/>
<path d="M151.87 46.2237C151.349 45.8228 150.707 45.1414 150.306 44.1393C149.906 43.057 150.186 42.6161 149.665 41.9347C149.024 41.0929 146.819 38.8482 145.977 39.3693C145.536 39.6499 146.498 41.6541 146.458 42.0149C146.418 42.8165 146.659 43.498 147.38 44.1393C147.941 44.6203 148.142 44.5802 148.743 44.9811C149.304 45.3819 150.026 46.0633 150.587 47.346L151.87 46.2237Z" fill="#FFD28A"/>
<path d="M121.405 40.4115C122.046 40.2512 122.928 39.8904 123.649 39.1288C124.451 38.3271 124.451 37.6056 125.133 37.0845C126.215 36.2428 128.861 34.8398 129.302 35.5213C129.702 36.0824 128.7 37.4052 128.78 37.8461C128.861 38.4875 127.257 39.9706 126.335 40.2913C125.654 40.5318 125.453 40.4115 124.772 40.5318C124.09 40.6921 123.168 41.0529 122.166 41.9748L121.405 40.4115Z" fill="#FFD28A"/>
<path d="M124.291 41.3736C124.692 43.2976 122.607 45.0212 121.124 46.7048C118.118 50.0718 114.951 56.1245 116.113 61.2954C116.755 64.1013 118.759 67.1877 121.645 68.6308C124.732 70.194 126.576 68.7911 129.783 70.635C130.023 70.7552 134.072 73.1603 134.192 76.4071C134.352 80.4155 128.46 84.6644 123.409 84.9851C114.189 85.5863 103.086 73.3206 103.607 61.1751C104.168 47.9474 118.398 37.4453 122.487 39.209C123.128 39.4896 124.09 40.2913 124.291 41.3736Z" fill="#389BA0"/>
<path d="M128.38 178.381L128.74 181.748L127.177 181.467L126.135 178.301L128.38 178.381Z" fill="#FFD28A"/>
<path d="M118.879 116.451C119.04 122.383 119.801 127.514 120.683 131.643C121.645 136.132 122.166 136.894 122.487 139.98C123.128 146.714 120.964 147.676 120.563 155.292C120.122 163.71 122.367 170.364 123.249 172.929C124.01 175.174 124.812 176.938 125.413 178.22C126.175 178.902 127.377 178.621 128.62 178.381C129.061 170.765 129.662 163.59 130.103 155.974C131.586 144.51 133.07 133.046 134.513 121.582C129.302 119.858 124.09 118.134 118.879 116.451Z" fill="#0F6361"/>
<path opacity="0.2" d="M128.58 178.341C129.021 170.725 129.622 163.55 130.063 155.934C131.546 144.47 133.029 133.006 134.473 121.542C129.261 119.858 124.09 118.134 118.879 116.451C118.879 116.852 118.919 117.213 118.919 117.613C126.215 123.947 127.658 128.957 127.578 132.404C127.498 136.573 125.213 138.617 125.654 144.63C125.974 148.919 127.257 149.681 127.257 153.569C127.257 158.579 125.093 161.385 124.05 164.271C123.048 167.077 122.687 171.005 124.652 176.657C124.892 177.218 125.133 177.739 125.373 178.22C126.175 178.862 127.337 178.621 128.58 178.341Z" fill="#072450"/>
<path d="M127.818 182.87C127.097 181.948 126.415 182.029 126.295 181.387C126.215 180.906 126.495 180.305 126.977 180.105C127.618 179.784 128.38 180.305 128.54 180.425C129.702 181.227 129.342 182.389 130.464 182.95C130.664 183.071 131.025 183.191 131.386 183.552C131.546 183.712 131.907 184.073 131.827 184.313C131.707 184.594 131.025 184.594 130.344 184.554C129.542 184.514 129.141 184.514 128.78 184.273C128.219 183.912 128.38 183.592 127.818 182.87Z" fill="#70A0E5"/>
<path d="M132.869 154.852L130.103 156.255L129.101 155.012L131.266 153.288L132.869 154.852Z" fill="#FFD28A"/>
<path d="M128.62 157.096C128.7 155.934 128.139 155.533 128.46 154.972C128.7 154.531 129.342 154.33 129.823 154.451C130.504 154.651 130.704 155.533 130.785 155.733C131.105 157.096 130.063 157.738 130.504 158.86C130.584 159.1 130.785 159.421 130.825 159.902C130.825 160.103 130.865 160.664 130.624 160.784C130.344 160.904 129.863 160.423 129.382 159.982C128.82 159.421 128.54 159.14 128.42 158.7C128.219 158.138 128.58 158.018 128.62 157.096Z" fill="#70A0E5"/>
<path d="M141.528 110.839C147.941 121.381 150.667 130.44 151.91 136.373C152.711 140.181 152.872 142.586 151.99 145.111C148.783 154.09 134.914 155.934 132.829 156.174C131.987 154.812 131.186 153.449 130.344 152.086C131.386 149.601 133.35 146.073 136.958 143.348C139.724 141.223 140.926 141.504 141.528 140.221C144.013 134.97 127.097 125.63 128.82 118.215C129.382 115.609 132.308 112.803 141.528 110.839Z" fill="#0F6361"/>
<path d="M130.224 71.3163C136.116 72.3184 140.566 73.3606 142.57 76.4471C144.694 79.6939 141.327 82.139 140.405 89.274C139.002 100.177 145.296 104.265 143.492 115.289C143.211 117.092 142.73 118.696 142.249 120.059C141.407 122.464 139.764 124.468 137.599 125.831C135.996 126.833 134.032 127.875 131.707 128.677C125.734 130.761 122.808 129.558 114.791 129.999C101.683 130.761 99.7184 134.569 93.7857 132.204C87.8129 129.839 83.4436 123.466 84.7264 120.74C85.488 119.097 87.8931 120.139 91.3405 118.135C95.79 115.529 95.0284 112.002 98.6361 108.995C103.807 104.626 108.778 109.035 113.187 105.268C117.677 101.46 118.198 92.1199 116.274 86.5883C115.031 82.9808 114.991 79.0525 114.069 75.3247C113.989 75.004 113.949 74.523 114.109 73.9619C114.831 71.8374 118.759 71.4366 121.685 71.156C126.295 70.6349 129.743 71.1961 130.224 71.3163Z" fill="#389BA0"/>
<path opacity="0.2" d="M94.5072 128.035C96.3111 126.833 95.349 123.386 98.0348 121.582C100.52 119.898 102.484 122.103 106.172 120.98C110.902 119.537 110.662 115.008 115.151 113.525C118.398 112.483 119.4 114.567 124.09 114.647C128.78 114.727 134.914 112.803 138.802 107.833C140.445 105.708 141.367 103.464 141.888 101.379C143.131 105.428 144.494 109.316 143.532 115.248C143.131 117.654 142.49 119.658 141.808 121.261C141.207 122.744 140.165 124.027 138.842 124.949C137.038 126.191 134.673 127.554 131.787 128.596C125.814 130.681 122.888 129.478 114.871 129.919C101.763 130.681 99.7985 134.489 93.8659 132.124C90.0577 130.601 86.891 127.474 85.4479 124.668C90.5788 128.476 93.1844 128.917 94.5072 128.035Z" fill="#072450"/>
<path d="M133.631 61.135C133.631 61.135 135.234 64.1814 135.354 66.3059C135.475 68.4303 133.029 68.27 133.029 68.27L133.11 69.6328C133.19 70.7953 133.951 71.7974 134.994 72.1581L135.956 72.5189C135.956 72.5189 129.742 73.8417 126.375 71.4366L127.337 71.3564C128.7 71.2362 129.823 70.1138 129.943 68.751L129.983 68.1898C130.063 68.1898 128.981 61.5359 133.631 61.135Z" fill="#FFD28A"/>
<path d="M148.903 46.8249C147.981 48.5485 149.505 50.7932 150.507 52.7974C152.471 56.886 153.834 63.54 151.309 68.1897C149.906 70.715 147.14 73.1201 143.973 73.7213C140.566 74.3627 139.203 72.4787 135.595 73.4007C135.314 73.4808 130.785 74.6433 129.783 77.7297C128.54 81.5377 133.029 87.2297 137.76 88.9533C146.458 92.0798 160.488 83.3415 163.334 71.5167C166.461 58.6497 155.678 44.6203 151.268 45.2216C150.547 45.3017 149.424 45.8629 148.903 46.8249Z" fill="#389BA0"/>
<path d="M132.669 64.1412C132.348 64.1012 132.067 63.7003 131.867 63.8206C131.626 63.9408 131.667 64.5421 131.867 64.9429C132.027 65.3037 132.308 65.464 132.428 65.5843C132.188 65.945 131.867 66.4661 131.747 67.1476C131.466 68.6707 132.268 69.9134 132.629 70.6349C134.152 73.9218 131.787 79.0926 129.141 81.6981C127.017 83.8225 126.015 82.9808 124.732 84.7044C122.246 88.0714 125.654 91.7993 124.411 96.3288C122.447 103.223 111.544 105.268 111.103 105.348C110.942 105.388 110.822 105.388 110.622 105.428C105.731 106.189 98.3153 107.392 93.1042 103.384C89.2159 100.377 87.412 95.1663 87.6926 90.5567C87.7728 89.3541 88.1336 84.7445 91.9016 81.0166C92.5029 80.4154 96.0305 76.888 100.761 76.8479C103.286 76.8078 103.807 77.7298 105.731 77.1686C108.377 76.407 109.98 74.0019 110.982 72.5188C112.826 69.7931 112.065 69.1918 113.428 67.8691C116.033 65.2235 119.12 67.3079 121.886 64.983C124.652 62.6982 122.968 59.5717 125.654 57.6075C128.38 55.5633 133.631 56.2848 134.753 58.7299C135.675 60.7742 133.631 64.2214 132.669 64.1412Z" fill="#151560"/>
<path d="M243.746 79.6942L245.83 82.2195L231.4 64.6226L216.969 82.2195L219.053 79.6942L186.023 64.6226L203.34 107.032H231.4H259.46L276.777 64.6226L243.746 79.6942Z" fill="#FFDE14"/>
<path d="M186.023 64.6226L219.053 79.6942L216.969 82.2195L186.023 64.6226Z" fill="#FFDE14"/>
<path d="M264.47 45.302C265.513 45.6628 265.873 45.9033 266.795 46.0235C267.357 46.1037 267.918 45.783 268.399 45.743C268.279 44.5404 268.76 43.8189 268.359 43.2577C268.319 43.1776 268.279 43.1375 268.238 43.0974C267.677 42.5763 266.916 43.2978 266.194 43.2177C265.392 43.0974 265.072 42.8168 264.15 42.4961C263.388 42.2156 261.825 42.0151 260.181 42.6966C260.141 43.6185 260.141 44.5003 260.181 45.4223C261.985 44.8611 263.629 45.0214 264.47 45.302Z" fill="#2B7AF4"/>
<path d="M260.221 48.5888C260.502 48.3083 260.943 47.9876 261.504 47.7872C262.747 47.4264 263.348 48.2281 265.232 48.7091C266.595 49.0699 268.559 49.2302 268.8 48.3884C268.8 48.3483 268.84 48.2682 268.759 47.7872C268.599 46.5446 268.439 46.3842 268.399 45.7429C268.399 45.7028 268.399 45.7028 268.399 45.6627C267.878 45.7429 267.356 46.0235 266.795 45.9433C265.873 45.823 265.513 45.5425 264.47 45.2218C263.628 44.9412 261.985 44.7809 260.221 45.342C260.221 46.4644 260.301 47.5467 260.221 48.5888Z" fill="#FFDE14"/>
<path d="M260.181 96.8901C260.061 96.8901 259.941 96.81 259.941 96.6496V41.8948C259.941 41.7745 260.021 41.6543 260.181 41.6543C260.342 41.6543 260.422 41.7345 260.422 41.8948V96.6897C260.382 96.81 260.301 96.8901 260.181 96.8901Z" fill="#2A2A4F"/>
<path opacity="0.2" d="M231.4 64.6226V90.4367L216.969 82.2195L231.4 64.6226Z" fill="white"/>
<path d="M231.4 90.4367V107.032H203.34L186.023 64.6226L231.4 90.4367Z" fill="#FFDE14"/>
<path opacity="0.3" d="M231.4 90.4367V107.032H203.34L186.023 64.6226L231.4 90.4367Z" fill="white"/>
<path opacity="0.2" d="M276.777 64.6226L243.746 79.6942L245.831 82.2195L276.777 64.6226Z" fill="#072450"/>
<path opacity="0.1" d="M231.4 64.6226V90.4367L245.831 82.2195L231.4 64.6226Z" fill="#072450"/>
<path d="M231.4 90.4367V107.032H259.46L276.777 64.6226L231.4 90.4367Z" fill="#FFDE14"/>
<path d="M302.191 99.1347C301.71 99.3351 286.317 107.592 274.852 107.753C264.631 107.873 258.537 95.8077 243.826 97.371C235.007 98.2929 230.478 104.145 223.623 103.624C213.642 102.903 208.511 98.6938 198.489 98.6136C186.423 98.5334 181.493 108.835 172.875 106.711V145.752H302.191V99.1347Z" fill="#E3F4FF"/>
</g>
<defs>
<clipPath id="clip0_354_971">
<rect width="360" height="268" fill="white"/>
</clipPath>
</defs>
</svg>
