<svg width="1920" height="644" viewBox="0 0 1920 644" fill="none" xmlns="http://www.w3.org/2000/svg">
<path d="M-135.813 642.066C-74.3046 648.061 -3.125 640.906 35.2694 603.297C52.7742 586.184 62.7355 563.464 87.01 552.055C99.099 546.448 113.412 544.321 127.435 543.547C187.493 540.26 244.65 559.403 301.903 572.648C359.156 585.894 425.597 592.662 476.467 567.621C501.128 555.439 520.18 536.683 547.453 528.368C587.105 516.283 630.528 529.915 670.76 539.777C736.621 555.826 812.346 560.853 873.177 534.459C881.978 530.592 890.392 526.241 898.709 521.6C907.51 515.509 917.568 510.192 928.496 505.744C939.521 500.427 951.126 495.883 963.796 493.272C974.531 491.049 985.556 490.372 996.581 490.855C999.482 490.662 1002.38 490.565 1005.28 490.565C1067.37 489.599 1126.56 507.775 1187.49 515.993C1248.42 524.211 1319.98 519.57 1360.7 483.411C1379.27 466.878 1390.58 444.545 1415.53 434.103C1427.91 428.882 1442.42 427.335 1456.44 427.045C1516.6 425.982 1572.4 447.058 1628.78 462.431C1685.07 477.803 1750.93 486.891 1803.35 463.688C1828.69 452.473 1848.9 434.296 1876.65 427.045C1916.98 416.41 1959.44 431.589 1998.99 442.804C2059.92 460.11 2130.14 468.038 2190.19 448.702C2187.58 234.454 2179.94 8.31459 2168.92 10.4416C2145.32 15.0823 2125.3 34.7088 2103.15 46.1173C2059.15 68.8376 2009.15 58.0092 1967.08 36.5458C1941.45 23.397 1914.08 6.0909 1886.04 15.6624C1866.79 22.1401 1851.61 40.2197 1833.62 50.9514C1796.38 73.0917 1752.86 61.1031 1716.21 43.1202C1679.46 25.1373 1643.68 1.16011 1603.06 -7.64914e-05C1593.58 -0.290123 1583.72 0.870063 1574.92 5.80085C1557.22 15.7591 1547.74 38.4794 1533.81 54.8187C1503.35 90.7845 1454.8 92.9115 1414.47 82.0831C1390.39 75.6054 1367.08 65.5504 1343.29 58.2026C1340.58 56.9457 1337.78 55.7855 1334.97 54.6254C1315.05 46.4074 1292.9 39.7363 1270.85 42.1534C1245.61 44.8605 1225.01 58.7827 1201.61 66.6139C1155.28 82.0831 1101.03 72.5116 1054.99 55.3021C1026.85 44.7638 996.774 31.1316 967.084 37.2226C946.678 41.4766 931.107 54.3353 912.152 61.6832C873.08 76.8623 825.788 66.7106 785.653 52.305C745.518 37.8027 706.06 18.9496 662.443 16.8226C652.192 16.3392 641.65 16.8226 632.462 20.2065C613.894 27.0709 604.609 43.6036 590.393 55.3021C559.155 81.1163 507.028 81.213 463.217 71.9315C419.407 62.65 377.434 45.924 332.367 43.6036C309.64 42.4434 285.268 46.6974 265.636 55.6889C246.004 62.8433 228.596 78.7959 209.35 88.6575C165.346 111.378 115.346 100.549 73.277 79.086C47.6485 65.9372 20.2791 48.6311 -7.76715 58.2026C-27.0127 64.6803 -42.1964 82.7599 -60.1847 93.4916C-97.4186 115.632 -140.939 103.643 -177.592 85.6603C-214.149 67.6775 -249.933 43.7003 -290.455 42.5401C-296.934 42.4434 -295.193 385.568 -293.259 623.02C-240.358 624.373 -188.521 636.942 -135.813 642.066Z" fill="#E3F4FF"/>
</svg>
