<svg width="465" height="388" viewBox="0 0 465 388" fill="none" xmlns="http://www.w3.org/2000/svg">
<path d="M32.6102 354.991C40.2504 362.049 59.3993 362.242 61.2368 368.72C62.7842 374.328 48.9544 376.841 51.5657 380.709C55.5308 386.703 93.2483 389.603 124.196 386.413C156.111 383.126 198.374 371.62 200.888 354.121C203.693 334.495 154.467 320.766 111.43 320.862C106.788 320.862 67.9098 321.249 45.1827 333.141C44.0221 333.721 22.262 345.42 32.6102 354.991Z" fill="white"/>
<path d="M163.267 26.5618C162.01 25.5949 160.463 23.9513 159.496 21.5343C158.528 18.9239 159.205 17.8604 157.948 16.2168C156.401 14.1864 151.082 8.77223 149.051 10.0291C147.987 10.7059 150.308 15.54 150.211 16.4101C150.115 18.3438 150.695 19.9874 152.436 21.5343C153.79 22.6945 154.273 22.5978 155.724 23.5646C157.078 24.5314 158.819 26.175 160.173 29.2689L163.267 26.5618Z" fill="#FFD28A"/>
<path d="M89.7667 12.5429C91.314 12.1562 93.4417 11.286 95.1825 9.44908C97.1167 7.51544 97.1167 5.77515 98.7608 4.51829C101.372 2.48796 107.755 -0.895914 108.819 0.747683C109.786 2.10123 107.368 5.29174 107.562 6.35525C107.755 7.90216 103.887 11.4794 101.662 12.2529C100.018 12.833 99.5345 12.5429 97.8904 12.833C96.2463 13.2197 94.0219 14.0898 91.6041 16.3135L89.7667 12.5429Z" fill="#FFD28A"/>
<path d="M96.7299 14.8633C97.697 19.5041 92.668 23.6614 89.0897 27.7221C81.8363 35.8434 74.1961 50.4424 77.0007 62.9144C78.5481 69.6821 83.3837 77.1267 90.3469 80.6072C97.7937 84.3778 102.242 80.994 109.979 85.4413C110.56 85.7314 120.327 91.5323 120.618 99.3636C121.004 109.032 106.788 119.28 94.6022 120.054C72.3586 121.504 45.5695 91.919 46.8268 62.6243C48.1807 30.7192 82.5133 5.38849 92.3779 9.6425C93.9253 10.3193 96.2463 12.2529 96.7299 14.8633Z" fill="#389BA0"/>
<path d="M106.594 345.323L107.465 353.444L103.693 352.768L101.179 345.13L106.594 345.323Z" fill="#FFD28A"/>
<path d="M83.6738 195.949C84.0607 210.258 85.8982 222.633 88.0258 232.592C90.3469 243.42 91.6042 245.257 92.3779 252.701C93.9252 268.944 88.7028 271.264 87.7357 289.634C86.6718 309.937 92.0877 325.986 94.2153 332.174C96.0529 337.588 97.9871 341.842 99.4378 344.936C101.275 346.58 104.177 345.903 107.175 345.323C108.239 326.953 109.689 309.647 110.753 291.278C114.331 263.626 117.91 235.975 121.391 208.324C108.819 204.167 96.2463 200.01 83.6738 195.949Z" fill="#0F6361"/>
<path opacity="0.2" d="M107.078 345.226C108.142 326.857 109.592 309.551 110.656 291.181C114.235 263.53 117.813 235.879 121.294 208.228C108.722 204.167 96.2463 200.01 83.6738 195.949C83.6738 196.916 83.7705 197.786 83.7705 198.753C101.372 214.029 104.854 226.114 104.66 234.428C104.467 244.483 98.9542 249.414 100.018 263.917C100.792 274.262 103.886 276.098 103.886 285.477C103.886 297.562 98.664 304.33 96.1496 311.291C93.7318 318.059 92.8614 327.533 97.6002 341.166C98.1805 342.519 98.7607 343.776 99.341 344.936C101.275 346.483 104.08 345.903 107.078 345.226Z" fill="#072450"/>
<path d="M105.24 356.151C103.5 353.928 101.856 354.121 101.565 352.574C101.372 351.414 102.049 349.964 103.209 349.48C104.757 348.707 106.594 349.964 106.981 350.254C109.786 352.187 108.915 354.991 111.623 356.345C112.107 356.635 112.977 356.925 113.848 357.795C114.235 358.182 115.105 359.052 114.912 359.632C114.621 360.309 112.977 360.309 111.333 360.212C109.399 360.115 108.432 360.115 107.561 359.535C106.207 358.665 106.594 357.892 105.24 356.151Z" fill="#70A0E5"/>
<path d="M117.426 288.571L110.753 291.954L108.335 288.957L113.558 284.8L117.426 288.571Z" fill="#FFD28A"/>
<path d="M107.175 293.985C107.368 291.181 106.014 290.214 106.788 288.861C107.368 287.797 108.916 287.314 110.076 287.604C111.72 288.087 112.204 290.214 112.397 290.697C113.171 293.985 110.656 295.532 111.72 298.239C111.914 298.819 112.397 299.592 112.494 300.752C112.494 301.236 112.591 302.589 112.01 302.879C111.333 303.169 110.173 302.009 109.012 300.946C107.658 299.592 106.981 298.915 106.691 297.852C106.208 296.498 107.078 296.208 107.175 293.985Z" fill="#70A0E5"/>
<path d="M138.316 182.414C153.79 207.841 160.366 229.691 163.364 244C165.298 253.185 165.685 258.986 163.557 265.077C155.821 286.734 122.358 291.181 117.329 291.761C115.298 288.474 113.364 285.187 111.333 281.9C113.848 275.905 118.587 267.397 127.291 260.823C133.964 255.699 136.865 256.375 138.316 253.282C144.312 240.616 103.5 218.089 107.658 200.203C109.012 193.919 116.072 187.151 138.316 182.414Z" fill="#0F6361"/>
<path d="M111.043 87.0849C125.26 89.5019 135.995 92.0157 140.83 99.4602C145.956 107.291 137.832 113.189 135.608 130.399C132.223 156.696 147.407 166.558 143.055 193.145C142.378 197.496 141.217 201.363 140.057 204.65C138.026 210.451 134.06 215.285 128.838 218.573C124.97 220.99 120.231 223.503 114.622 225.437C100.212 230.465 93.1516 227.564 73.8093 228.628C42.1846 230.465 37.4457 239.649 23.1325 233.945C8.72245 228.241 -1.81907 212.868 1.27569 206.294C3.11321 202.33 8.9159 204.844 17.2331 200.01C27.9681 193.725 26.1305 185.217 34.8346 177.966C47.3103 167.428 59.3026 178.063 69.9408 168.975C80.7725 159.79 82.0297 137.263 77.3876 123.921C74.3895 115.219 74.2928 105.745 72.0685 96.7531C71.875 95.9796 71.7783 94.8195 72.1652 93.4659C73.906 88.3418 83.3837 87.3749 90.4436 86.6982C101.565 85.4413 109.883 86.7948 111.043 87.0849Z" fill="#389BA0"/>
<path opacity="0.2" d="M24.8732 223.89C29.2253 220.99 26.9042 212.675 33.3839 208.324C39.38 204.264 44.1189 209.581 53.0163 206.874C64.4283 203.393 63.8479 192.468 74.6796 188.891C82.5133 186.377 84.9311 191.405 96.2463 191.598C107.562 191.792 122.358 187.151 131.739 175.162C135.705 170.038 137.929 164.624 139.186 159.596C142.184 169.361 145.472 178.74 143.151 193.048C142.184 198.849 140.637 203.684 138.993 207.551C137.542 211.128 135.028 214.222 131.836 216.446C127.484 219.443 121.778 222.73 114.815 225.244C100.405 230.271 93.345 227.371 74.0027 228.434C42.3781 230.271 37.6392 239.456 23.3259 233.752C14.1383 230.078 6.49809 222.537 3.01648 215.769C15.3955 224.954 21.6818 226.017 24.8732 223.89Z" fill="#072450"/>
<path d="M119.264 62.5276C119.264 62.5276 123.132 69.8754 123.422 74.9996C123.712 80.1237 117.813 79.737 117.813 79.737L118.006 83.0242C118.2 85.828 120.037 88.2451 122.552 89.1152L124.873 89.9853C124.873 89.9853 109.883 93.1758 101.759 87.3749L104.08 87.1815C107.368 86.8915 110.076 84.1844 110.366 80.8972L110.463 79.5437C110.656 79.5437 108.045 63.4944 119.264 62.5276Z" fill="#FFD28A"/>
<path d="M156.111 28.0122C153.886 32.1695 157.561 37.5837 159.979 42.4178C164.718 52.2794 168.006 68.3286 161.913 79.5438C158.528 85.6348 151.855 91.4357 144.215 92.8859C135.995 94.4328 132.706 89.8888 124.002 92.1124C123.325 92.3058 112.397 95.1096 109.979 102.554C106.981 111.739 117.813 125.468 129.225 129.625C150.211 137.166 184.06 116.09 190.927 87.5684C198.47 56.5334 172.455 22.6947 161.817 24.1449C160.076 24.3383 157.368 25.6918 156.111 28.0122Z" fill="#389BA0"/>
<path d="M116.943 69.7787C116.169 69.682 115.492 68.7152 115.008 69.0053C114.428 69.2953 114.525 70.7455 115.008 71.7124C115.395 72.5825 116.072 72.9692 116.362 73.2593C115.782 74.1294 115.008 75.3863 114.718 77.0299C114.041 80.7038 115.975 83.701 116.846 85.4412C120.521 93.3692 114.815 105.841 108.432 112.126C103.306 117.25 100.888 115.219 97.7936 119.377C91.7975 127.498 100.018 136.489 97.02 147.415C92.2811 164.044 65.9756 168.975 64.9118 169.168C64.5249 169.265 64.2348 169.265 63.7512 169.361C51.9524 171.198 34.0608 174.099 21.4883 164.431C12.1073 157.179 7.75526 144.611 8.43224 133.492C8.62566 130.592 9.49607 119.473 18.5869 110.482C20.0376 109.032 28.5483 100.524 39.9602 100.427C46.053 100.33 47.3102 102.554 51.9524 101.2C58.3354 99.3635 62.2038 93.5625 64.6216 89.9853C69.0704 83.4109 67.2328 81.9607 70.521 78.7702C76.8073 72.3891 84.2541 77.4166 90.9272 71.809C97.6003 66.2982 93.5383 58.7569 100.018 54.0195C106.594 49.0887 119.264 50.829 121.972 56.7266C124.196 61.6574 119.264 69.9721 116.943 69.7787Z" fill="#151560"/>
<path d="M384.93 107.291L389.959 113.382L355.143 70.939L320.327 113.382L325.356 107.291L245.665 70.939L287.445 173.229H355.143H422.841L464.62 70.939L384.93 107.291Z" fill="#FFDE14"/>
<path d="M245.665 70.939L325.356 107.291L320.327 113.382L245.665 70.939Z" fill="#FFDE14"/>
<path d="M434.93 24.3381C437.444 25.2082 438.315 25.7883 440.539 26.0784C441.893 26.2717 443.247 25.4983 444.407 25.4016C444.117 22.5011 445.278 20.7608 444.311 19.4073C444.214 19.2139 444.117 19.1172 444.021 19.0206C442.667 17.7637 440.829 19.504 439.088 19.3106C437.154 19.0206 436.38 18.3438 434.156 17.5703C432.319 16.8936 428.547 16.4101 424.582 18.0537C424.485 20.2774 424.485 22.4044 424.582 24.6281C428.934 23.2746 432.899 23.6613 434.93 24.3381Z" fill="#2B7AF4"/>
<path d="M424.678 32.2662C425.355 31.5894 426.419 30.8159 427.773 30.3325C430.771 29.4624 432.222 31.396 436.767 32.5562C440.055 33.4263 444.794 33.8131 445.375 31.7827C445.375 31.6861 445.471 31.4927 445.278 30.3325C444.891 27.3354 444.504 26.9486 444.407 25.4017C444.407 25.305 444.407 25.305 444.407 25.2084C443.15 25.4017 441.893 26.0785 440.539 25.8851C438.315 25.5951 437.444 24.9183 434.93 24.1449C432.899 23.4681 428.934 23.0813 424.678 24.4349C424.678 27.142 424.872 29.7524 424.678 32.2662Z" fill="#FFDE14"/>
<path d="M424.582 148.768C424.291 148.768 424.001 148.575 424.001 148.188V16.1201C424.001 15.8301 424.195 15.54 424.582 15.54C424.968 15.54 425.162 15.7334 425.162 16.1201V148.285C425.065 148.575 424.872 148.768 424.582 148.768Z" fill="#2A2A4F"/>
<path opacity="0.2" d="M355.143 70.939V133.202L320.327 113.382L355.143 70.939Z" fill="white"/>
<path d="M355.143 133.202V173.229H287.445L245.665 70.939L355.143 133.202Z" fill="#FFDE14"/>
<path opacity="0.3" d="M355.143 133.202V173.229H287.445L245.665 70.939L355.143 133.202Z" fill="white"/>
<path opacity="0.2" d="M464.62 70.939L384.93 107.291L389.959 113.382L464.62 70.939Z" fill="#072450"/>
<path opacity="0.1" d="M355.143 70.939V133.202L389.959 113.382L355.143 70.939Z" fill="#072450"/>
<path d="M355.143 133.202V173.229H422.841L464.62 70.939L355.143 133.202Z" fill="#FFDE14"/>
</svg>
