<svg width="826" height="364" viewBox="0 0 826 364" fill="none" xmlns="http://www.w3.org/2000/svg">
<g clip-path="url(#clip0_220_660)">
<path d="M218.225 301.076C152.622 299.078 135.27 286.968 71.9761 291.4C47.7572 293.085 0.505481 296.394 0.0061235 308.317C-0.555654 323.549 37.5828 341.09 95.1962 352.763C252.057 384.538 441.626 341.028 441.75 317.431C441.813 301.013 401.115 285.407 369.344 281.474C318.347 275.107 282.018 303.011 218.225 301.076Z" fill="#F0F0F0"/>
<path d="M653.79 238.53C603.23 236.907 589.935 229.416 541.123 231.726C522.459 232.6 486.006 234.348 485.631 241.651C485.132 250.953 514.469 261.877 558.85 269.368C679.632 289.719 825.819 264.249 825.944 249.829C826.068 239.779 794.734 230.04 770.265 227.418C731.066 223.298 702.977 240.091 653.79 238.53Z" fill="#F0F0F0"/>
<path d="M310.107 21.162C307.174 19.0395 302.43 15.1692 299.558 11.9231L293.878 25.6566C293.691 26.0936 293.753 26.593 294.065 27.2172C295.376 29.9639 301.431 34.0215 309.233 37.2676C317.036 40.5137 324.214 41.8871 327.023 40.8883C327.46 40.7634 327.834 40.5137 328.022 40.264C328.084 40.1392 328.209 40.0143 328.209 39.9519L330.019 31.3373C328.271 30.9003 327.585 30.1512 324.776 29.09C317.161 26.156 311.98 22.5353 310.107 21.162Z" fill="#236A9B"/>
<path d="M343.876 46.8187C343.689 46.8187 343.377 46.6939 343.377 46.4442L342.128 27.6543C342.128 27.2173 341.941 26.9052 341.567 26.9676L313.79 28.8404C313.603 28.8404 313.415 28.5907 313.353 28.4034C313.353 28.2161 313.478 27.904 313.728 27.904L341.504 26.0312C342.378 25.9688 343.002 26.7179 343.065 27.5919L344.313 46.3818C344.313 46.6315 344.064 46.8187 343.876 46.8187Z" fill="#FFDE14"/>
<path d="M344.563 43.3854L344.126 42.8236C344.001 42.6363 343.751 42.5115 343.439 42.5115C343.19 42.5115 342.94 42.6988 342.877 42.9485L342.565 43.5727C342.503 43.6976 342.441 43.8848 342.441 44.0721L342.815 49.1909C342.815 49.3158 343.377 49.3782 344.001 49.3158C344.625 49.2534 345.125 49.1285 345.125 49.0661L344.75 43.9473C344.813 43.6976 344.688 43.5103 344.563 43.3854Z" fill="#FFDE14"/>
<path d="M305.863 26.9051C309.358 28.0912 312.791 29.5894 316.1 31.4621L342.378 26.9051L343.627 27.2796L343.751 26.9051L343.814 26.7802L319.845 4.80664L287.823 10.3V10.4249L287.699 10.7994L288.697 11.1116L305.863 26.9051Z" fill="#4D90E2"/>
<path d="M316.849 31.8367L343.502 27.2172L319.657 5.24365L287.699 10.7995L304.802 26.593C308.921 27.9039 312.979 29.6518 316.849 31.8367Z" fill="#70A0E5"/>
<path d="M316.973 31.899C320.094 33.7093 325.275 37.0178 328.459 39.9518L332.641 25.6565C332.766 25.2195 332.641 24.7201 332.329 24.1583C330.706 21.5989 324.276 18.1655 316.224 15.7934C308.11 13.4212 300.869 12.797 298.123 14.0455C297.686 14.2327 297.374 14.4824 297.186 14.7946C297.124 14.9194 297.061 15.0443 296.999 15.1691L294.377 24.0959C296.188 24.3456 298.684 24.7826 301.556 25.5317C309.483 27.7165 315.038 30.7753 316.973 31.899Z" fill="#4D90E2"/>
<path opacity="0.2" d="M302.867 25.9688C302.742 25.3445 302.679 24.7203 302.742 24.096C303.116 20.1632 299.558 16.6674 297.249 14.8571C297.249 14.8571 297.186 14.8571 297.186 14.7947L294.44 24.1584C297.249 24.533 300.058 25.1572 302.867 25.9688Z" fill="#072450"/>
<path d="M301.244 34.7083L302.867 32.461C302.867 32.461 302.867 31.4622 303.366 30.5883C303.928 29.7143 305.301 29.4646 306.612 29.964C306.799 30.0264 308.11 30.5258 310.544 30.7131C312.042 30.838 313.79 30.0888 314.352 30.3385C315.038 30.5882 313.415 31.7119 312.729 32.0865C311.356 32.7731 308.859 32.7107 307.735 32.5858C305.925 32.3986 304.489 33.8343 304.489 33.8343L302.679 36.0192L301.244 34.7083Z" fill="#F4A45B"/>
<path d="M300.994 32.336C289.384 36.8931 281.894 35.0203 278.46 33.7094C274.091 32.0239 269.971 29.0275 269.971 29.0275C264.104 24.7202 261.794 20.5377 255.989 19.5389C255.552 19.4765 254.242 19.2892 252.806 19.4141C244.379 20.1007 235.016 31.15 236.14 38.5785C238.137 51.3757 273.717 64.797 293.379 50.689C299.683 46.132 302.929 39.827 304.552 35.5197C303.366 34.3961 302.18 33.3348 300.994 32.336Z" fill="#1A8787"/>
<path d="M224.405 164.24C223.906 164.677 223.906 165.676 223.843 166.362C223.843 166.675 223.843 166.799 223.843 166.924C224.155 167.673 225.591 167.673 227.963 167.798C231.646 167.986 232.769 168.173 233.019 167.611C233.269 167.112 232.582 166.3 232.457 166.175C232.02 165.676 231.521 165.551 230.584 165.301C228.837 164.802 227.588 164.552 227.276 164.49C225.092 164.053 224.717 163.99 224.405 164.24Z" fill="#072450"/>
<path d="M227.026 160.557L227.151 164.802C227.026 164.989 225.778 165.551 224.779 164.927L224.093 160.744L227.026 160.557Z" fill="#F4A45B"/>
<path d="M255.615 164.49C254.991 165.114 254.741 166.362 255.24 166.987C255.74 167.611 256.551 167.236 258.736 167.424C261.108 167.611 261.67 168.235 263.292 167.861C263.979 167.736 265.103 167.361 265.103 166.862C265.103 166.55 264.541 166.362 262.606 165.551C259.922 164.49 259.922 164.427 259.36 164.302C257.924 163.99 256.489 163.678 255.615 164.49Z" fill="#072450"/>
<path d="M257.363 160.744L258.299 164.739C258.174 164.927 256.926 165.551 255.927 165.051L254.429 161.119L257.363 160.744Z" fill="#F4A45B"/>
<path d="M251.994 74.1609C251.37 87.3326 251.37 102.252 252.619 118.483C253.805 134.526 255.927 149.133 258.424 161.93C256.863 162.243 255.365 162.555 253.805 162.867C250.184 159.059 245.69 153.191 243.88 145.138C242.756 140.144 243.38 137.647 242.819 131.529C241.945 121.791 239.261 116.61 236.702 108.619C234.392 101.503 231.77 91.0156 230.834 77.2821C237.888 76.2833 244.941 75.2221 251.994 74.1609Z" fill="#151560"/>
<path opacity="0.3" d="M249.498 135.899C247.875 129.22 244.629 127.472 244.566 121.167C244.504 116.735 246.127 116.36 246.002 112.115C245.877 105.686 242.132 102.252 240.26 98.1945C238.262 93.8872 237.575 87.0204 243.006 75.5967C238.949 76.2209 234.829 76.7828 230.772 77.407C231.708 91.2029 234.33 101.628 236.639 108.744C239.198 116.672 241.882 121.916 242.756 131.654C243.318 137.772 242.694 140.269 243.817 145.263C245.69 153.316 250.184 159.246 253.742 162.992C254.117 162.929 254.491 162.804 254.928 162.742C251.058 158.06 249.685 153.815 249.31 150.444C248.873 144.888 251.183 142.579 249.498 135.899Z" fill="#072450"/>
<path d="M236.764 73.2868C234.829 90.0167 233.081 107.059 231.458 124.413C230.272 137.46 229.149 150.319 228.212 162.992C226.652 163.116 225.091 163.179 223.593 163.304C222.283 160.432 220.535 156.125 219.536 150.569C218.288 143.889 218.912 140.019 218.6 133.152C218.225 125.474 217.164 123.726 215.666 113.926C212.608 94.0744 211.109 84.1488 216.165 78.3433C217.726 76.4705 222.782 71.7886 236.764 73.2868Z" fill="#151560"/>
<path d="M196.94 20.9748C205.304 18.1657 218.1 15.1068 233.705 15.8559C242.756 16.2929 250.496 17.8535 256.676 19.6639C257.487 24.3457 258.299 28.9652 259.11 33.6471C259.297 38.3289 259.297 44.6338 258.736 52.1248C258.174 59.6158 257.675 59.6783 256.364 70.2281C254.304 87.395 255.115 91.8896 251.62 93.9496C249.373 95.2605 248.561 93.6375 237.076 92.4514C229.398 91.6399 225.466 91.2653 221.534 92.5762C216.228 94.3241 214.418 97.3205 212.233 96.3217C210.111 95.3854 209.923 91.7647 209.674 85.3974C209.362 75.6591 209.424 69.042 209.362 66.6699C209.237 55.8079 206.553 47.443 203.12 36.8307C200.997 30.1513 198.688 24.7827 196.94 20.9748Z" fill="#389BA0"/>
<path d="M232.769 5.0564C232.644 7.80309 232.207 9.92554 231.833 11.4237C231.396 13.1092 231.146 13.5462 230.834 13.8583C230.335 14.3577 229.648 14.7947 225.653 15.5438C223.469 15.9183 223.219 15.9183 223.157 16.1056C222.844 17.1044 228.462 20.9748 234.517 20.4754C238.2 20.1632 241.695 18.2905 241.57 17.1668C241.446 16.0432 237.7 16.4177 236.764 14.3577C236.077 12.9219 237.076 10.9868 238.137 9.42614C237.201 7.5534 233.643 6.99157 232.769 5.0564Z" fill="#D88B4C"/>
<path d="M237.95 7.1164C240.01 6.24245 242.07 1.56058 240.821 0.124805C240.26 -0.56187 238.012 1.3733 237.014 1.56058C235.64 1.81028 232.27 1.49815 231.209 2.49695C230.397 3.24605 230.647 5.49335 230.709 6.30488C230.834 7.24125 231.021 7.24125 231.334 7.99035C231.77 8.98915 232.332 9.23885 232.769 10.3001C233.144 9.67583 233.081 10.3001 233.705 9.6134C233.955 9.30128 235.266 8.24005 235.89 7.8655C236.265 7.55338 237.7 7.24125 237.95 7.1164Z" fill="#382D1D"/>
<path d="M232.582 10.5497C232.582 10.5497 233.955 13.1715 237.076 13.1715C239.823 13.1715 240.634 6.99146 238.949 5.61811C238.387 5.11871 237.201 4.86901 236.265 5.11871C235.703 5.24356 235.516 5.49326 234.517 5.68054C233.643 5.86781 233.393 5.74296 233.144 5.93024C232.832 6.17993 232.52 6.80418 232.956 8.67693C232.457 8.11511 231.833 7.86541 231.396 8.05268C231.334 8.05268 231.146 8.17753 231.021 8.36481C230.522 8.98906 231.146 9.92543 232.582 10.5497Z" fill="#F4A45B"/>
<path d="M238.574 10.3625C238.574 10.3625 237.95 10.6122 236.951 10.5498C236.889 10.5498 236.826 10.5498 236.826 10.5498C236.826 10.6747 237.451 11.1117 238.075 10.9868C238.512 10.862 238.886 10.4874 238.824 10.425C238.761 10.3625 238.699 10.3625 238.574 10.3625Z" fill="#EFEFEF"/>
<path d="M204.368 66.6697L207.115 66.5449C207.115 66.5449 210.173 64.0479 211.546 64.1727C212.92 64.36 214.98 65.2964 215.229 65.4837C215.479 65.6709 214.48 66.7946 213.481 66.6697C212.483 66.5449 210.236 67.1067 209.799 67.9807C209.362 68.8546 207.614 69.4164 207.364 68.8546L203.619 69.5413L204.368 66.6697Z" fill="#F4A45B"/>
<path d="M205.242 65.7335C205.429 67.9808 204.93 69.5414 204.056 70.6026C200.373 75.2845 187.952 73.2869 180.586 66.982C175.156 62.3001 172.284 55.0588 172.409 48.5666C172.721 35.9568 184.456 23.659 201.871 19.4766C204.431 27.2173 206.927 34.8955 209.487 42.6362C198.75 42.7611 192.196 50.8139 193.133 56.557C193.882 60.8643 198.875 64.7347 205.242 65.7335Z" fill="#389BA0"/>
<path opacity="0.15" d="M247.188 88.2689C241.57 85.8343 241.633 80.8403 236.39 78.7178C228.899 75.7215 220.535 82.5258 219.224 80.653C217.913 78.6554 227.838 72.6002 226.59 66.6074C225.591 61.8007 218.662 62.6122 214.98 56.0576C211.484 49.8151 214.917 44.1344 211.859 41.9495C210.735 41.138 208.8 40.8259 205.055 42.4489C207.614 50.6266 209.424 57.8055 209.549 66.6698C209.549 69.042 209.487 75.659 209.861 85.3973C210.048 91.7022 210.298 95.3229 212.42 96.3217C214.605 97.3205 216.415 94.3241 221.721 92.5762C225.653 91.2653 229.523 91.6398 237.263 92.4514C248.749 93.6374 249.56 95.2605 251.807 93.9495C253.305 93.0756 253.992 91.7647 254.491 89.2677C251.994 89.5174 249.498 89.3301 247.188 88.2689Z" fill="#072450"/>
<path d="M201.122 226.353C170.974 227.414 140.825 228.663 110.676 230.036C102.374 230.41 95.5707 221.234 95.3834 209.498C95.321 206.876 95.321 204.192 95.2586 201.57C95.0713 189.834 101.563 179.659 109.927 178.847C140.201 175.789 170.537 172.855 200.873 170.108C200.998 188.835 201.06 207.625 201.122 226.353Z" fill="#D8DCE6"/>
<path d="M188.451 228.975C162.922 230.098 137.392 231.347 111.862 232.72C101.064 233.157 92.2 221.172 91.9503 206.002C91.9503 205.94 91.9503 205.877 91.9503 205.815C91.7006 190.583 100.19 177.287 111.051 176.163C136.705 172.979 162.36 169.921 188.077 166.987C189.45 166.862 205.117 168.235 205.117 169.858C205.117 171.544 190.449 172.855 189.138 172.979C163.109 175.726 137.08 178.598 111.113 181.594C102.312 182.468 95.4458 193.205 95.6331 205.503C95.6331 205.565 95.6331 205.628 95.6331 205.69C95.8203 217.988 102.999 227.664 111.737 227.227C137.267 225.729 162.797 224.293 188.326 222.982C189.637 222.919 205.304 224.542 205.304 226.228C205.367 227.851 189.762 228.912 188.451 228.975Z" fill="#DBB61B"/>
<path d="M375.149 224.48C313.54 224.355 251.932 224.792 190.324 225.916C190.261 207.188 190.137 188.523 190.074 169.796C252.057 170.295 314.04 171.419 375.96 173.167C375.648 190.333 375.398 207.375 375.149 224.48Z" fill="#F4F6F9"/>
<path d="M377.458 176.163C314.352 174.478 251.245 173.416 188.139 172.979C186.828 172.979 185.83 171.606 185.83 169.983C185.83 168.297 186.828 166.987 188.139 166.987C251.308 167.548 314.414 168.797 377.521 170.67C378.582 170.732 379.456 171.981 379.393 173.479C379.393 174.977 378.519 176.163 377.458 176.163Z" fill="#FFDE14"/>
<path d="M376.647 227.227C313.915 227.164 251.121 227.726 188.451 228.974C187.203 228.974 186.142 227.664 186.142 226.041C186.142 224.355 187.14 223.044 188.451 222.982C251.245 221.92 313.977 221.546 376.771 221.796C377.833 221.796 378.644 223.044 378.644 224.542C378.582 226.041 377.708 227.227 376.647 227.227Z" fill="#FFDE14"/>
<path d="M201.122 269.738L198.251 269.863L187.889 270.237L182.334 270.425L134.895 272.048L132.898 272.11L123.909 272.422L109.49 272.922L103.685 273.109C101.875 273.171 100.065 273.546 98.3796 274.232C97.256 274.732 96.1949 275.294 95.1338 276.043C88.0179 281.099 83.1492 292.024 83.1492 304.633V304.821C83.1492 321.988 92.2624 336.345 103.748 336.845L198.314 339.467L204.306 339.654L204.618 336.283L204.805 334.66L210.361 278.914L210.735 275.731L211.172 272.235L211.297 269.988V269.426L201.122 269.738Z" fill="#276DC1"/>
<path d="M382.14 273.359V331.227L335.013 333.099L215.229 337.844C211.484 337.969 207.926 337.469 204.618 336.345C194.194 332.787 186.828 323.548 186.828 312.312V302.324C186.828 289.09 197.252 277.978 210.735 275.731C212.233 275.481 213.731 275.356 215.292 275.356L320.282 274.108L382.14 273.359Z" fill="#F4F6F9"/>
<path d="M386.01 331.039C386.01 332.725 385.073 334.161 383.95 334.223L338.695 336.096L207.24 341.402C204.056 341.527 201.185 340.84 198.376 339.404C189.075 334.722 182.584 322.3 182.584 307.568V307.38C182.584 288.216 193.632 272.485 207.177 272.235H207.24L211.047 272.173L321.53 270.986L383.95 270.3C385.073 270.3 385.947 271.673 385.947 273.421C385.947 275.107 385.011 276.542 383.887 276.542L382.264 276.605L319.158 277.416L210.298 278.852L207.24 278.914C196.254 279.039 187.265 291.774 187.265 307.255V307.443C187.265 321.738 194.88 333.287 204.743 334.598C205.554 334.722 206.303 334.722 207.115 334.722L331.829 329.978L382.202 328.043L383.825 327.981C385.136 327.981 386.01 329.354 386.01 331.039Z" fill="#276DC1"/>
<path d="M207.177 270.55L111.363 272.734C102.562 272.922 95.5707 265.993 95.5707 257.191V251.198C95.5707 242.396 102.562 234.842 111.363 234.281L207.177 228.288V270.55Z" fill="#D8DCE6"/>
<path d="M193.695 272.485L112.611 274.732C101.126 274.982 92.0128 265.868 92.0128 254.444V254.319C92.0128 242.895 101.126 233.032 112.611 232.283L193.695 225.916C195.13 225.853 211.609 226.915 211.609 228.163C211.609 229.412 196.191 230.348 194.756 230.473L112.549 236.403C103.248 236.965 95.8828 244.955 95.8828 254.194V254.319C95.8828 263.558 103.311 270.924 112.549 270.674L193.632 267.99C195.068 267.928 211.547 269.239 211.547 270.487C211.609 271.736 195.068 272.422 193.695 272.485Z" fill="#09467C"/>
<path d="M391.003 229.848V268.365L331.33 268.926L220.098 269.988L211.047 270.05L207.115 270.113L196.753 270.175H195.692V228.038L206.241 228.101L211.609 228.163L212.108 228.225L258.861 228.662L391.003 229.848Z" fill="#F4F6F9"/>
<path d="M392.876 232.096L193.694 230.473C192.321 230.473 191.26 229.474 191.26 228.225C191.26 226.977 192.384 225.978 193.694 225.978L392.876 228.038C393.999 228.038 394.873 228.974 394.873 230.098C394.936 231.159 393.999 232.096 392.876 232.096Z" fill="#1D6089"/>
<path d="M394.936 268.302C394.936 269.426 393.999 270.362 392.938 270.362L330.519 271.049L220.036 272.173L216.228 272.235L216.103 272.36L193.819 272.734C192.758 272.734 191.822 271.923 191.51 271.049C191.447 270.862 191.447 270.612 191.385 270.425C191.385 270.362 191.385 270.3 191.385 270.237C191.385 268.989 192.446 267.928 193.819 267.928H193.882H195.817L207.302 267.803L332.703 266.742L391.44 266.242H393.063C393.999 266.305 394.936 267.179 394.936 268.302Z" fill="#1D6089"/>
<path opacity="0.5" d="M177.341 331.788L155.931 330.54C150.75 315.808 151.124 301.575 155.931 284.283L177.341 284.345C173.034 302.074 173.72 317.68 177.341 331.788Z" fill="white"/>
<path opacity="0.3" d="M322.966 269.613L323.652 242.958L348.183 269.988C348.183 269.988 361.479 277.167 359.169 289.714L344.001 283.659L330.518 288.341C330.518 288.341 330.206 275.107 322.966 269.613Z" fill="#70A0E5"/>
<path d="M350.306 244.643L322.966 242.958C322.966 242.958 335.824 252.696 329.832 288.341C329.832 288.341 341.504 284.658 346.56 278.29L358.482 289.714C358.545 289.652 365.786 258.002 350.306 244.643Z" fill="#70A0E5"/>
<path d="M118.229 147.947C117.168 147.573 115.982 148.01 115.67 148.946L40.6413 354.449C40.2668 355.385 40.891 356.447 41.9522 356.884C43.0133 357.258 44.1993 356.821 44.5114 355.885L119.477 150.319C119.852 149.383 119.29 148.322 118.229 147.947Z" fill="#389BA0"/>
<path d="M157.366 176.038C157.366 177.1 156.492 178.036 155.369 178.036H108.679C107.618 178.036 106.681 177.162 106.681 176.038V175.789C106.681 174.727 107.555 173.791 108.679 173.791H155.369C156.43 173.791 157.366 174.665 157.366 175.789V176.038Z" fill="#5F9DA0"/>
<path d="M143.634 213.556C143.634 214.617 142.76 215.553 141.636 215.553H94.9465C93.8854 215.553 92.9491 214.679 92.9491 213.556V213.306C92.9491 212.245 93.823 211.308 94.9465 211.308H141.699C142.76 211.308 143.696 212.182 143.696 213.306V213.556H143.634Z" fill="#5F9DA0"/>
<path d="M129.964 251.635C129.964 252.696 129.09 253.633 127.967 253.633H81.2766C80.2155 253.633 79.2792 252.759 79.2792 251.635V251.385C79.2792 250.324 80.153 249.388 81.2766 249.388H127.967C129.028 249.388 129.964 250.262 129.964 251.385V251.635Z" fill="#5F9DA0"/>
<path d="M115.67 290.963C115.67 292.024 114.796 292.96 113.672 292.96H66.9824C65.9213 292.96 64.985 292.086 64.985 290.963V290.713C64.985 289.652 65.8589 288.715 66.9824 288.715H113.672C114.733 288.715 115.67 289.589 115.67 290.713V290.963Z" fill="#5F9DA0"/>
<path d="M102 328.48C102 329.541 101.126 330.478 100.002 330.478H53.3125C52.2514 330.478 51.3151 329.604 51.3151 328.48V328.23C51.3151 327.169 52.1889 326.233 53.3125 326.233H100.002C101.064 326.233 102 327.107 102 328.23V328.48Z" fill="#5F9DA0"/>
<path d="M166.23 146.511C165.106 146.137 163.92 146.574 163.608 147.573L86.1453 360.067C85.7707 361.066 86.3949 362.19 87.5185 362.564C88.642 362.939 89.828 362.502 90.1401 361.503L167.603 148.946C167.977 148.01 167.353 146.886 166.23 146.511Z" fill="#5AB1BB"/>
<path d="M626.513 203.385L624.141 203.447L615.464 203.759L610.845 203.947L571.084 205.32L569.399 205.382L561.846 205.632L549.736 206.069L544.868 206.256C543.307 206.256 541.871 206.631 540.436 207.193C539.5 207.567 538.563 208.129 537.689 208.753C531.697 212.998 527.64 222.175 527.64 232.725V232.912C527.64 247.27 535.255 259.318 544.868 259.755L624.141 261.939L629.197 262.064L629.446 259.255L629.571 257.882L634.253 211.188L634.565 208.504L634.939 205.57L635.064 203.697V203.198L626.513 203.385Z" fill="#DBB61B"/>
<path d="M623.392 160.873L620.645 160.811L608.786 160.936L538.813 161.997C536.753 161.997 534.756 162.372 532.883 162.996C524.769 165.867 519.151 174.42 519.525 184.408V184.533C519.962 195.582 527.702 204.696 537.315 206.256C538.314 206.444 539.312 206.506 540.374 206.506L598.923 205.382L608.224 205.195L611.782 205.133L622.081 204.883L624.266 204.758L625.015 204.821H626.513L626.575 204.384L626.762 202.511V202.261L626.95 200.763L630.945 164.806L631.194 162.559L631.319 161.498L631.444 160.624L623.392 160.873Z" fill="#09467C"/>
<path d="M787.68 202.011L633.441 202.948C620.583 203.01 609.971 195.582 609.659 186.218L609.41 179.85C609.098 170.487 619.21 162.684 632.193 162.496L787.68 160.249V202.011Z" fill="#C7E6FF"/>
<path d="M789.303 204.196L626.825 205.133C615.714 205.195 606.351 195.394 605.914 183.222V183.097C605.477 170.861 614.216 160.749 625.389 160.561L789.241 158.127C790.427 158.127 791.363 159.126 791.363 160.312C791.363 161.56 790.427 162.559 789.241 162.559L625.514 164.806C616.463 164.931 609.472 173.109 609.784 182.909V183.034C610.159 192.835 617.711 200.763 626.637 200.701L789.241 199.639C790.427 199.639 791.363 200.638 791.363 201.824C791.426 203.198 790.489 204.196 789.303 204.196Z" fill="#09467C"/>
<path d="M778.255 205.882V254.386L738.743 255.947L638.372 259.879C635.251 260.004 632.255 259.567 629.509 258.631C620.77 255.635 614.59 247.894 614.59 238.53V230.165C614.59 219.054 623.329 209.752 634.627 207.879C635.876 207.692 637.124 207.567 638.435 207.567L726.447 206.569L778.255 205.882Z" fill="#F4F6F9"/>
<path d="M781.501 254.199C781.501 255.635 780.752 256.821 779.816 256.821L741.927 258.381L631.694 262.876C629.072 263.001 626.638 262.376 624.266 261.19C616.463 257.258 611.033 246.895 611.033 234.472V234.285C611.033 218.242 620.271 205.07 631.694 204.821H631.756L634.939 204.758L727.57 203.759L779.878 203.198C780.814 203.198 781.563 204.384 781.563 205.819C781.563 207.255 780.814 208.441 779.878 208.441H778.505L725.573 209.128L634.315 210.314L631.756 210.376C622.518 210.501 615.028 221.113 615.028 234.098V234.285C615.028 246.271 621.457 255.947 629.696 257.07C630.383 257.133 631.007 257.195 631.694 257.195L736.247 253.2L778.505 251.577L779.878 251.514C780.752 251.639 781.501 252.763 781.501 254.199Z" fill="#DBB61B"/>
<path opacity="0.5" d="M606.601 254.886L588.686 253.887C584.379 241.527 584.691 229.603 588.686 215.121L606.601 215.183C602.98 229.916 603.542 243.025 606.601 254.886Z" fill="white"/>
<path d="M628.885 109.81L626.762 109.935L618.96 110.372L614.778 110.621L579.074 112.556L577.576 112.619L561.097 113.181L550.236 113.743L545.866 113.992C544.493 114.055 543.182 114.367 541.934 114.929C541.06 115.303 540.311 115.803 539.5 116.364C534.194 120.297 530.698 128.6 530.886 138.026V138.151C531.135 151.073 538.189 161.747 546.865 161.997L611.844 161.623L633.004 161.56L632.568 159.875L632.692 158.626L636.063 116.552L636.313 114.117L636.562 111.495L636.625 109.81V109.373L628.885 109.81Z" fill="#389BA0"/>
<path d="M767.581 113.555L766.52 157.128L731.003 157.627L640.744 158.938C637.935 159.001 635.251 158.501 632.755 157.627C624.952 154.756 619.584 147.639 619.771 139.212L619.959 131.721C620.208 121.733 628.26 113.555 638.435 112.182C639.558 112.057 640.682 111.932 641.868 111.995L720.954 113.056L767.581 113.555Z" fill="#F4F6F9"/>
<path d="M769.454 157.066C769.391 158.314 768.705 159.375 767.893 159.438L733.812 160L634.69 161.56C632.318 161.623 630.133 160.998 628.073 159.875C621.145 156.192 616.526 146.703 616.775 135.591V135.404C617.15 120.984 625.701 109.373 635.938 109.435H636.001L638.872 109.498L722.077 110.684L769.079 111.37C769.891 111.37 770.577 112.432 770.515 113.743C770.453 114.991 769.766 116.052 768.954 116.052H767.768L720.205 115.491L638.185 114.492H635.876C627.574 114.367 620.645 123.793 620.333 135.404V135.591C620.084 146.391 625.576 155.193 633.004 156.379C633.629 156.504 634.19 156.504 634.815 156.504L728.819 155.318L766.77 154.818H767.956C768.83 154.818 769.454 155.817 769.454 157.066Z" fill="#1A8787"/>
<path d="M635.876 50.7558L637.623 52.9407L625.514 38.146L613.405 52.9407L615.152 50.7558L587.438 38.146L601.982 73.7282H625.514H649.046L663.59 38.146L635.876 50.7558Z" fill="#FFDE14"/>
<path d="M587.438 38.146L615.152 50.7558L613.405 52.9407L587.438 38.146Z" fill="#FFDE14"/>
<path opacity="0.2" d="M625.514 38.146V59.8075L613.405 52.9407L625.514 38.146Z" fill="white"/>
<path d="M625.514 59.8075V73.7282H601.982L587.438 38.146L625.514 59.8075Z" fill="#FFDE14"/>
<path opacity="0.4" d="M625.514 59.8075V73.7282H601.982L587.438 38.146L625.514 59.8075Z" fill="white"/>
<path opacity="0.25" d="M663.59 38.146L635.876 50.7558L637.623 52.9407L663.59 38.146Z" fill="#072450"/>
<path opacity="0.15" d="M625.514 38.146V59.8075L637.623 52.9407L625.514 38.146Z" fill="#072450"/>
<path d="M625.514 59.8075V73.7282H649.046L663.59 38.146L625.514 59.8075Z" fill="#FFDE14"/>
<path d="M627.636 109.872L547.365 112.245C539.999 112.494 534.069 106.689 534.007 99.3226L533.944 94.3286C533.882 86.9625 539.749 80.5951 547.115 80.0333L627.387 74.415L627.636 109.872Z" fill="#A4C5E0"/>
<path d="M616.338 111.558L548.363 113.93C538.751 114.18 531.011 106.626 530.948 97.0752V96.9504C530.886 87.3994 538.501 79.0344 548.114 78.3477L616.026 72.5422C617.212 72.4798 631.069 73.2289 631.069 74.2901C631.069 75.3513 618.149 76.2253 616.963 76.2877L548.114 81.7811C540.374 82.2805 534.194 89.0224 534.256 96.7631V96.8879C534.319 104.629 540.561 110.746 548.363 110.497L616.338 107.75C617.524 107.687 631.381 108.686 631.381 109.747C631.381 110.809 617.524 111.495 616.338 111.558Z" fill="#1C5C91"/>
<path d="M776.819 78.7847L776.195 111.058L728.694 110.559L640.245 109.685L633.067 109.56H629.946L621.706 109.498L620.833 109.435L621.519 74.1653L629.946 74.3526L634.19 74.4774L634.565 74.5398L671.767 75.6011L776.819 78.7847Z" fill="#C7E6FF"/>
<path d="M777.506 80.595L619.709 76.1004C618.648 76.1004 617.774 75.2265 617.836 74.1653C617.836 73.104 618.71 72.2925 619.834 72.3549L777.631 77.2241C778.505 77.2241 779.191 78.0356 779.191 78.972C779.129 79.9083 778.38 80.6574 777.506 80.595Z" fill="#276DC1"/>
<path d="M778.505 111.058C778.505 111.995 777.756 112.744 776.882 112.744L727.445 112.307L639.871 111.495H636.874L636.75 111.62L619.085 111.558C618.211 111.558 617.524 110.871 617.275 110.122C617.212 109.997 617.212 109.747 617.212 109.623C617.212 109.56 617.212 109.498 617.212 109.498C617.212 108.436 618.086 107.563 619.21 107.625H619.272H620.832L629.883 107.75L729.256 108.873L775.758 109.373H777.007C777.818 109.31 778.505 110.06 778.505 111.058Z" fill="#276DC1"/>
<path opacity="0.3" d="M722.826 237.719L723.388 215.371L743.987 238.031C743.987 238.031 755.097 244.024 753.225 254.573L740.491 249.517L729.193 253.45C729.131 253.387 728.881 242.338 722.826 237.719Z" fill="#C4C469"/>
<path d="M745.734 216.806L722.826 215.433C722.826 215.433 733.562 223.611 728.569 253.45C728.569 253.45 738.369 250.328 742.613 245.022L752.6 254.573C752.6 254.573 758.718 228.043 745.734 216.806Z" fill="#FFDE14"/>
</g>
<defs>
<clipPath id="clip0_220_660">
<rect width="826" height="364" fill="white"/>
</clipPath>
</defs>
</svg>
