<svg width="271" height="140" viewBox="0 0 271 140" fill="none" xmlns="http://www.w3.org/2000/svg">
<path d="M2.22471 136.041C2.44719 136.066 2.6191 136.077 2.74045 136.077C2.86179 136.077 3.03875 136.077 3.25617 136.077C3.57471 136.077 3.8983 136.041 4.21684 135.965C4.53538 135.89 4.81347 135.753 5.05111 135.556C5.28369 135.359 5.45055 135.081 5.55167 134.722C5.64774 134.363 5.64774 133.887 5.55167 133.296L0 113.804H4.07021L8.17582 128.973L11.5028 113.804H15.573L10.6179 132.891C10.173 134.297 9.74828 135.445 9.34379 136.329C8.9393 137.214 8.47413 137.912 7.9584 138.418C7.44267 138.923 6.84605 139.267 6.18369 139.454C5.52133 139.641 4.72751 139.742 3.8174 139.768C3.4483 139.768 3.17527 139.768 3.00336 139.768C2.83145 139.768 2.57359 139.742 2.22471 139.692V136.041Z" fill="#1961AC"/>
<path d="M29.0477 121.06C29.0477 123.724 28.1477 125.474 26.3477 126.313C27.3842 126.733 28.0921 127.415 28.4764 128.366C28.8606 129.316 29.0477 130.469 29.0477 131.824V134.12C29.0477 134.636 29.0831 135.025 29.159 135.288C29.2348 135.546 29.3511 135.733 29.5078 135.844C29.6696 135.955 29.8668 136.011 30.0994 136.011C30.332 136.011 30.6101 136.011 30.9337 136.011H31.1561V139.712H29.4522C28.1932 139.737 27.1972 139.398 26.4539 138.696C25.7157 137.993 25.3415 137.088 25.3415 135.975V131.718C25.3415 130.51 25.0685 129.66 24.5275 129.165C23.9865 128.669 23.2432 128.427 22.3079 128.427H20.9022V139.712H16.832V113.814H20.9022V124.726H22.4949C23.2584 124.726 23.9258 124.528 24.4921 124.134C25.0584 123.74 25.3415 123.022 25.3415 121.99V117.551C25.3415 116.444 25.7106 115.533 26.4539 114.831C27.1921 114.128 28.1932 113.789 29.4522 113.814H31.1157V117.515H30.9286C30.6101 117.515 30.332 117.515 30.0943 117.515C29.8618 117.515 29.6646 117.571 29.5028 117.682C29.341 117.794 29.2247 117.976 29.1539 118.238C29.078 118.496 29.0427 118.886 29.0427 119.401V121.06H29.0477Z" fill="#1961AC"/>
<path d="M38.9579 113.809C41.0056 113.809 42.5275 114.35 43.5286 115.437C44.5297 116.524 45.0252 118.112 45.0252 120.21V123.578C45.0252 125.676 44.5247 127.264 43.5286 128.351C42.5275 129.438 41.0056 129.979 38.9579 129.979H37.0365V139.707H32.9663V113.809H38.9579ZM37.0365 117.51V126.278H38.9579C39.6 126.278 40.0904 126.106 40.4393 125.762C40.7831 125.418 40.955 124.776 40.955 123.84V119.957C40.955 119.022 40.7831 118.38 40.4393 118.031C40.0955 117.687 39.6 117.515 38.9579 117.515H37.0365V117.51Z" fill="#1961AC"/>
<path d="M58.2368 139.707H54.1312L53.4284 135.01H48.433L47.7302 139.707H43.9937L48.1346 113.809H54.0908L58.2368 139.707ZM48.9487 131.49H52.8723L50.9105 118.395L48.9487 131.49Z" fill="#1961AC"/>
<path d="M62.8227 108.778V112.55H59.0508V108.778H62.8227ZM61.862 113.809H65.9322V139.707H61.862V113.809ZM68.7384 108.778V112.55H64.9665V108.778H68.7384Z" fill="#1961AC"/>
<path d="M74.0321 139.707H69.9619V113.809H74.0321V124.907H78.6585V113.809H82.7995V139.707H78.6585V128.608H74.0321V139.707Z" fill="#1961AC"/>
<path d="M96.709 130.085V133.523C96.709 135.616 96.1983 137.219 95.1719 138.331C94.1506 139.444 92.6388 140 90.6416 140C88.6444 140 87.1326 139.439 86.1113 138.316C85.0899 137.194 84.5742 135.586 84.5742 133.488V120.023C84.5742 117.925 85.0849 116.317 86.1113 115.194C87.1326 114.072 88.6444 113.511 90.6416 113.511C92.6388 113.511 94.1506 114.072 95.1719 115.194C96.1933 116.317 96.709 117.925 96.709 120.023V122.541H92.8613V119.765C92.8613 118.83 92.6691 118.167 92.2899 117.783C91.9056 117.404 91.395 117.212 90.7528 117.212C90.1107 117.212 89.6 117.404 89.2158 117.788C88.8315 118.173 88.6444 118.835 88.6444 119.77V133.781C88.6444 134.721 88.8366 135.374 89.2158 135.743C89.6 136.112 90.1107 136.299 90.7528 136.299C91.395 136.299 91.9056 136.112 92.2899 135.743C92.6742 135.374 92.8613 134.721 92.8613 133.781V130.08H96.709V130.085Z" fill="#1961AC"/>
<path d="M102.443 124.351H104.885C106.933 124.351 108.455 124.892 109.456 125.979C110.457 127.066 110.952 128.654 110.952 130.752V133.306C110.952 135.404 110.452 136.992 109.456 138.079C108.455 139.166 106.933 139.707 104.885 139.707H98.3726V113.809H102.443V124.351ZM104.885 136.006C105.527 136.006 106.017 135.829 106.366 135.47C106.71 135.111 106.882 134.479 106.882 133.563V130.494C106.882 129.584 106.71 128.947 106.366 128.588C106.023 128.229 105.527 128.052 104.885 128.052H102.443V136.006H104.885Z" fill="#1961AC"/>
<path d="M124.346 121.06C124.346 123.724 123.446 125.474 121.646 126.313C122.683 126.733 123.39 127.415 123.775 128.366C124.159 129.316 124.346 130.469 124.346 131.824V134.12C124.346 134.636 124.381 135.025 124.457 135.288C124.533 135.546 124.649 135.733 124.806 135.844C124.968 135.955 125.165 136.011 125.398 136.011C125.63 136.011 125.908 136.011 126.232 136.011H126.454V139.712H124.751C123.492 139.737 122.495 139.398 121.752 138.696C121.014 137.993 120.64 137.088 120.64 135.975V131.718C120.64 130.51 120.367 129.66 119.826 129.165C119.285 128.669 118.542 128.427 117.606 128.427H116.201V139.712H112.13V113.814H116.201V124.726H117.793C118.557 124.726 119.224 124.528 119.79 124.134C120.357 123.74 120.64 123.022 120.64 121.99V117.551C120.64 116.444 121.009 115.533 121.752 114.831C122.49 114.128 123.492 113.789 124.751 113.814H126.414V117.515H126.227C125.908 117.515 125.63 117.515 125.393 117.515C125.16 117.515 124.963 117.571 124.801 117.682C124.639 117.794 124.523 117.976 124.452 118.238C124.376 118.496 124.341 118.886 124.341 119.401V121.06H124.346Z" fill="#1961AC"/>
<path d="M131.223 139.707H128.265V113.809H131.89V129.311L138.215 113.809H141.173V139.707H137.512V125.019L131.223 139.707Z" fill="#1961AC"/>
<path d="M145.91 139.707H142.953V113.809H146.578V129.311L152.903 113.809H155.861V139.707H152.2V125.019L145.91 139.707ZM149.465 110.037C149.935 110.037 150.33 109.916 150.648 109.668C150.967 109.42 151.139 108.975 151.164 108.338H154.122C154.071 109.82 153.646 110.952 152.848 111.741C152.044 112.53 150.916 112.924 149.46 112.924C147.978 112.924 146.846 112.53 146.057 111.741C145.268 110.952 144.823 109.82 144.727 108.338H147.726C147.776 108.981 147.953 109.425 148.262 109.668C148.57 109.911 148.969 110.037 149.465 110.037Z" fill="#1961AC"/>
<path d="M170.18 121.06C170.18 123.724 169.28 125.474 167.48 126.313C168.517 126.733 169.225 127.415 169.609 128.366C169.993 129.316 170.18 130.469 170.18 131.824V134.12C170.18 134.636 170.216 135.025 170.291 135.288C170.367 135.546 170.484 135.733 170.645 135.844C170.807 135.955 171.004 136.011 171.237 136.011C171.47 136.011 171.748 136.011 172.071 136.011H172.294V139.712H170.59C169.331 139.737 168.335 139.398 167.591 138.696C166.853 137.993 166.484 137.088 166.484 135.975V131.718C166.484 130.51 166.211 129.66 165.67 129.165C165.129 128.669 164.386 128.427 163.45 128.427H162.045V139.712H157.975V113.814H162.045V124.726H163.638C164.401 124.726 165.068 124.528 165.635 124.134C166.201 123.74 166.484 123.022 166.484 121.99V117.551C166.484 116.444 166.853 115.533 167.591 114.831C168.33 114.128 169.331 113.789 170.59 113.814H172.253V117.515H172.066C171.748 117.515 171.469 117.515 171.232 117.515C170.994 117.515 170.802 117.571 170.64 117.682C170.479 117.794 170.362 117.976 170.286 118.238C170.211 118.496 170.175 118.886 170.175 119.401V121.06H170.18Z" fill="#FCE229"/>
<path d="M173.25 120.023C173.25 117.925 173.78 116.317 174.842 115.194C175.904 114.072 177.431 113.511 179.428 113.511C181.425 113.511 182.952 114.072 184.014 115.194C185.076 116.317 185.607 117.925 185.607 120.023V133.488C185.607 135.586 185.076 137.194 184.014 138.316C182.952 139.439 181.425 140 179.428 140C177.431 140 175.899 139.439 174.842 138.316C173.78 137.194 173.25 135.586 173.25 133.488V120.023ZM177.32 133.751C177.32 134.686 177.512 135.348 177.891 135.733C178.275 136.117 178.786 136.304 179.428 136.304C180.07 136.304 180.581 136.112 180.965 135.733C181.349 135.348 181.537 134.691 181.537 133.751V119.765C181.537 118.83 181.344 118.167 180.965 117.783C180.581 117.404 180.07 117.212 179.428 117.212C178.786 117.212 178.275 117.404 177.891 117.783C177.507 118.167 177.32 118.825 177.32 119.765V133.751Z" fill="#FCE229"/>
<path d="M193.373 113.809C195.421 113.809 196.943 114.35 197.944 115.437C198.945 116.524 199.44 118.112 199.44 120.21V123.578C199.44 125.676 198.94 127.264 197.944 128.351C196.943 129.438 195.421 129.979 193.373 129.979H191.452V139.707H187.381V113.809H193.373ZM191.452 117.51V126.278H193.373C194.015 126.278 194.505 126.106 194.854 125.762C195.198 125.418 195.37 124.776 195.37 123.84V119.957C195.37 119.022 195.198 118.38 194.854 118.031C194.511 117.687 194.015 117.515 193.373 117.515H191.452V117.51Z" fill="#FCE229"/>
<path d="M212.652 139.707H208.546L207.843 135.01H202.848L202.145 139.707H198.409L202.55 113.809H208.506L212.652 139.707ZM203.364 131.49H207.287L205.326 118.395L203.364 131.49Z" fill="#FCE229"/>
<path d="M218.163 124.351H220.605C222.653 124.351 224.175 124.892 225.176 125.979C226.177 127.066 226.672 128.654 226.672 130.752V133.306C226.672 135.404 226.172 136.992 225.176 138.079C224.175 139.166 222.653 139.707 220.605 139.707H214.093V113.809H224.857V117.51H218.163V124.351ZM220.605 136.006C221.247 136.006 221.738 135.829 222.087 135.47C222.43 135.111 222.602 134.479 222.602 133.563V130.494C222.602 129.584 222.43 128.947 222.087 128.588C221.743 128.229 221.247 128.052 220.605 128.052H218.163V136.006H220.605Z" fill="#FCE229"/>
<path d="M232.588 124.72H238.175V128.421H232.588V136.006H239.616V139.707H228.518V113.809H239.616V117.51H232.588V124.72Z" fill="#FCE229"/>
<path d="M248.829 127.683C248.829 129.756 248.728 131.551 248.535 133.068C248.338 134.585 247.969 135.839 247.423 136.825C246.882 137.81 246.134 138.539 245.183 139.009C244.233 139.479 243.019 139.712 241.538 139.712H241.093V136.011H241.578C242.326 136.011 242.928 135.813 243.388 135.419C243.848 135.025 244.202 134.463 244.45 133.735C244.698 133.007 244.86 132.127 244.935 131.091C245.011 130.054 245.047 128.896 245.047 127.612V113.814H256.332V139.712H252.262V117.515H248.824V127.683H248.829Z" fill="#FCE229"/>
<path d="M262.258 124.351H264.7C266.748 124.351 268.269 124.892 269.271 125.979C270.272 127.066 270.767 128.654 270.767 130.752V133.306C270.767 135.404 270.267 136.992 269.271 138.079C268.269 139.166 266.748 139.707 264.7 139.707H258.188V113.809H262.258V124.351ZM264.7 136.006C265.342 136.006 265.832 135.829 266.181 135.47C266.525 135.111 266.697 134.479 266.697 133.563V130.494C266.697 129.584 266.525 128.947 266.181 128.588C265.837 128.229 265.342 128.052 264.7 128.052H262.258V136.006H264.7Z" fill="#FCE229"/>
<path d="M135.389 53.8228L117.571 36.0049L99.5508 54.02L135.389 89.858L171.222 54.02L153.202 36.0049L135.389 53.8228Z" fill="#1961AC"/>
<path d="M135.389 17.8179L117.571 0L99.5508 18.0151L135.389 53.8481L171.222 18.0151L153.202 0L135.389 17.8179Z" fill="#FFDE14"/>
</svg>
