<svg width="203" height="36" viewBox="0 0 203 36" fill="none" xmlns="http://www.w3.org/2000/svg">
<path d="M39.0517 25.1426C39.1869 25.158 39.2914 25.1641 39.3652 25.1641C39.4389 25.1641 39.5465 25.1641 39.6786 25.1641C39.8722 25.1641 40.0689 25.1426 40.2625 25.0965C40.4561 25.0504 40.6251 24.9674 40.7696 24.8476C40.9109 24.7277 41.0123 24.5587 41.0738 24.3405C41.1322 24.1223 41.1322 23.8335 41.0738 23.4739L37.6995 11.6271H40.1734L42.6687 20.8464L44.6908 11.6271H47.1647L44.1531 23.2281C43.8826 24.0824 43.6245 24.78 43.3786 25.3178C43.1328 25.8556 42.8501 26.2797 42.5366 26.587C42.2231 26.8943 41.8605 27.1033 41.4579 27.217C41.0554 27.3307 40.5729 27.3921 40.0197 27.4075C39.7954 27.4075 39.6294 27.4075 39.525 27.4075C39.4205 27.4075 39.2637 27.3921 39.0517 27.3614V25.1426V25.1426Z" fill="#1961AC"/>
<path d="M55.3547 16.0373C55.3547 17.6568 54.8077 18.7201 53.7137 19.2302C54.3437 19.4853 54.7739 19.9002 55.0075 20.4779C55.241 21.0556 55.3547 21.7563 55.3547 22.5799V23.9751C55.3547 24.2886 55.3763 24.5252 55.4224 24.685C55.4685 24.8417 55.5391 24.9554 55.6344 25.023C55.7327 25.0906 55.8526 25.1244 55.994 25.1244C56.1353 25.1244 56.3043 25.1244 56.501 25.1244H56.6362V27.374H55.6006C54.8354 27.3893 54.23 27.1834 53.7782 26.7563C53.3296 26.3291 53.1022 25.779 53.1022 25.1029V22.5154C53.1022 21.7809 52.9362 21.2646 52.6074 20.9635C52.2786 20.6623 51.8268 20.5148 51.2583 20.5148H50.404V27.374H47.9301V11.6335H50.404V18.2653H51.372C51.836 18.2653 52.2417 18.1454 52.5859 17.9057C52.9301 17.666 53.1022 17.2296 53.1022 16.6027V13.9045C53.1022 13.2315 53.3265 12.6784 53.7782 12.2512C54.2269 11.824 54.8354 11.6181 55.6006 11.6335H56.6116V13.883H56.4979C56.3043 13.883 56.1353 13.883 55.9909 13.883C55.8495 13.883 55.7297 13.9168 55.6313 13.9844C55.533 14.052 55.4623 14.1627 55.4193 14.3225C55.3732 14.4792 55.3517 14.7158 55.3517 15.0293V16.0373H55.3547Z" fill="#1961AC"/>
<path d="M61.3781 11.6304C62.6227 11.6304 63.5477 11.9592 64.1562 12.6199C64.7646 13.2806 65.0658 14.2456 65.0658 15.5209V17.5676C65.0658 18.843 64.7616 19.8079 64.1562 20.4686C63.5477 21.1293 62.6227 21.4582 61.3781 21.4582H60.2103V27.3708H57.7365V11.6304H61.3781V11.6304ZM60.2103 13.8799V19.2087H61.3781C61.7684 19.2087 62.0665 19.1042 62.2785 18.8952C62.4875 18.6862 62.592 18.2959 62.592 17.7274V15.3673C62.592 14.7987 62.4875 14.4085 62.2785 14.1964C62.0695 13.9874 61.7684 13.883 61.3781 13.883H60.2103V13.8799Z" fill="#1961AC"/>
<path d="M73.0955 27.3708H70.6002L70.173 24.5159H67.1368L66.7096 27.3708H64.4386L66.9555 11.6304H70.5756L73.0955 27.3708ZM67.4502 22.377H69.835L68.6426 14.4177L67.4502 22.377Z" fill="#1961AC"/>
<path d="M75.8828 8.57263V10.8652H73.5903V8.57263H75.8828ZM75.2989 11.6304H77.7728V27.3708H75.2989V11.6304ZM79.4784 8.57263V10.8652H77.1858V8.57263H79.4784Z" fill="#1961AC"/>
<path d="M82.6961 27.3708H80.2223V11.6304H82.6961V18.3758H85.508V11.6304H88.0249V27.3708H85.508V20.6254H82.6961V27.3708Z" fill="#1961AC"/>
<path d="M96.4789 21.5225V23.6122C96.4789 24.8845 96.1686 25.8587 95.5447 26.5347C94.9239 27.2108 94.0051 27.5489 92.7912 27.5489C91.5773 27.5489 90.6585 27.2077 90.0377 26.5255C89.4169 25.8433 89.1035 24.866 89.1035 23.5907V15.407C89.1035 14.1317 89.4139 13.1544 90.0377 12.4722C90.6585 11.79 91.5773 11.4489 92.7912 11.4489C94.0051 11.4489 94.9239 11.79 95.5447 12.4722C96.1655 13.1544 96.4789 14.1317 96.4789 15.407V16.9374H94.1403V15.2503C94.1403 14.6818 94.0235 14.2792 93.793 14.0456C93.5595 13.8151 93.2491 13.6984 92.8588 13.6984C92.4685 13.6984 92.1582 13.8151 91.9246 14.0487C91.691 14.2823 91.5773 14.6848 91.5773 15.2534V23.7689C91.5773 24.3405 91.6941 24.737 91.9246 24.9613C92.1582 25.1856 92.4685 25.2993 92.8588 25.2993C93.2491 25.2993 93.5595 25.1856 93.793 24.9613C94.0266 24.737 94.1403 24.3405 94.1403 23.7689V21.5194H96.4789V21.5225Z" fill="#1961AC"/>
<path d="M99.9639 18.0378H101.448C102.693 18.0378 103.618 18.3666 104.226 19.0273C104.835 19.6881 105.136 20.653 105.136 21.9284V23.4803C105.136 24.7556 104.832 25.7206 104.226 26.3813C103.618 27.042 102.693 27.3708 101.448 27.3708H97.49V11.6304H99.9639V18.0378ZM101.448 25.1213C101.838 25.1213 102.137 25.0138 102.349 24.7956C102.558 24.5774 102.662 24.1932 102.662 23.637V21.7716C102.662 21.2185 102.558 20.8313 102.349 20.6131C102.14 20.3949 101.838 20.2873 101.448 20.2873H99.9639V25.1213H101.448V25.1213Z" fill="#1961AC"/>
<path d="M113.277 16.0373C113.277 17.6568 112.73 18.7201 111.636 19.2302C112.266 19.4853 112.696 19.9002 112.93 20.4779C113.163 21.0556 113.277 21.7563 113.277 22.5799V23.9751C113.277 24.2886 113.298 24.5252 113.344 24.685C113.391 24.8417 113.461 24.9554 113.556 25.023C113.655 25.0906 113.775 25.1244 113.916 25.1244C114.057 25.1244 114.226 25.1244 114.423 25.1244H114.558V27.374H113.523C112.757 27.3893 112.152 27.1834 111.7 26.7563C111.252 26.3291 111.024 25.779 111.024 25.1029V22.5154C111.024 21.7809 110.858 21.2646 110.529 20.9635C110.201 20.6623 109.749 20.5148 109.18 20.5148H108.326V27.374H105.852V11.6335H108.326V18.2653H109.294C109.758 18.2653 110.164 18.1454 110.508 17.9057C110.852 17.666 111.024 17.2296 111.024 16.6027V13.9045C111.024 13.2315 111.249 12.6784 111.7 12.2512C112.149 11.824 112.757 11.6181 113.523 11.6335H114.534V13.883H114.42C114.226 13.883 114.057 13.883 113.913 13.883C113.772 13.883 113.652 13.9168 113.553 13.9844C113.455 14.052 113.384 14.1627 113.341 14.3225C113.295 14.4792 113.274 14.7158 113.274 15.0293V16.0373H113.277Z" fill="#1961AC"/>
<path d="M117.456 27.3708H115.658V11.6304H117.862V21.0525L121.706 11.6304H123.504V27.3708H121.279V18.4434L117.456 27.3708Z" fill="#1961AC"/>
<path d="M126.383 27.3706H124.586V11.6302H126.789V21.0523L130.634 11.6302H132.431V27.3706H130.206V18.4432L126.383 27.3706ZM128.544 9.33761C128.83 9.33761 129.069 9.26386 129.263 9.11328C129.457 8.9627 129.561 8.69227 129.576 8.30505H131.374C131.343 9.20547 131.085 9.89385 130.6 10.3733C130.111 10.8527 129.426 11.0924 128.541 11.0924C127.64 11.0924 126.952 10.8527 126.473 10.3733C125.993 9.89385 125.723 9.20547 125.664 8.30505H127.487C127.517 8.69534 127.625 8.96577 127.812 9.11328C128 9.26079 128.243 9.33761 128.544 9.33761Z" fill="#1961AC"/>
<path d="M141.134 16.0373C141.134 17.6568 140.587 18.7201 139.493 19.2302C140.123 19.4853 140.553 19.9002 140.787 20.4779C141.021 21.0556 141.134 21.7563 141.134 22.5799V23.9751C141.134 24.2886 141.156 24.5252 141.202 24.685C141.248 24.8417 141.319 24.9554 141.417 25.023C141.515 25.0906 141.635 25.1244 141.777 25.1244C141.918 25.1244 142.087 25.1244 142.284 25.1244H142.419V27.374H141.383C140.618 27.3893 140.013 27.1834 139.561 26.7563C139.112 26.3291 138.888 25.779 138.888 25.1029V22.5154C138.888 21.7809 138.722 21.2646 138.393 20.9635C138.064 20.6623 137.612 20.5148 137.044 20.5148H136.19V27.374H133.716V11.6335H136.19V18.2653H137.158C137.622 18.2653 138.027 18.1454 138.372 17.9057C138.716 17.666 138.888 17.2296 138.888 16.6027V13.9045C138.888 13.2315 139.112 12.6784 139.561 12.2512C140.009 11.824 140.618 11.6181 141.383 11.6335H142.394V13.883H142.281C142.087 13.883 141.918 13.883 141.773 13.883C141.629 13.883 141.512 13.9168 141.414 13.9844C141.316 14.052 141.245 14.1627 141.199 14.3225C141.153 14.4792 141.131 14.7158 141.131 15.0293V16.0373H141.134Z" fill="#FCE229"/>
<path d="M143 15.407C143 14.1317 143.323 13.1544 143.968 12.4722C144.613 11.79 145.541 11.4489 146.755 11.4489C147.969 11.4489 148.897 11.79 149.543 12.4722C150.188 13.1544 150.511 14.1317 150.511 15.407V23.5907C150.511 24.866 150.188 25.8433 149.543 26.5255C148.897 27.2077 147.969 27.5489 146.755 27.5489C145.541 27.5489 144.61 27.2077 143.968 26.5255C143.323 25.8433 143 24.866 143 23.5907V15.407V15.407ZM145.474 23.7505C145.474 24.319 145.591 24.7216 145.821 24.9552C146.055 25.1887 146.365 25.3024 146.755 25.3024C147.146 25.3024 147.456 25.1856 147.69 24.9552C147.923 24.7216 148.037 24.3221 148.037 23.7505V15.2503C148.037 14.6818 147.92 14.2792 147.69 14.0456C147.456 13.8151 147.146 13.6984 146.755 13.6984C146.365 13.6984 146.055 13.8151 145.821 14.0456C145.588 14.2792 145.474 14.6787 145.474 15.2503V23.7505Z" fill="#FCE229"/>
<path d="M155.231 11.6304C156.475 11.6304 157.4 11.9592 158.009 12.6199C158.617 13.2806 158.918 14.2456 158.918 15.5209V17.5676C158.918 18.843 158.614 19.8079 158.009 20.4686C157.4 21.1293 156.475 21.4582 155.231 21.4582H154.063V27.3708H151.589V11.6304H155.231V11.6304ZM154.063 13.8799V19.2087H155.231C155.621 19.2087 155.919 19.1042 156.131 18.8952C156.34 18.6862 156.444 18.2959 156.444 17.7274V15.3673C156.444 14.7987 156.34 14.4085 156.131 14.1964C155.922 13.9874 155.621 13.883 155.231 13.883H154.063V13.8799Z" fill="#FCE229"/>
<path d="M166.948 27.3708H164.453L164.026 24.5159H160.99L160.563 27.3708H158.292L160.808 11.6304H164.428L166.948 27.3708ZM161.303 22.377H163.688L162.496 14.4177L161.303 22.377Z" fill="#FCE229"/>
<path d="M170.298 18.0378H171.782C173.027 18.0378 173.952 18.3666 174.56 19.0273C175.169 19.6881 175.47 20.653 175.47 21.9284V23.4803C175.47 24.7556 175.166 25.7206 174.56 26.3813C173.952 27.042 173.027 27.3708 171.782 27.3708H167.824V11.6304H174.367V13.8799H170.298V18.0378ZM171.782 25.1213C172.173 25.1213 172.471 25.0138 172.683 24.7956C172.892 24.5774 172.996 24.1932 172.996 23.637V21.7716C172.996 21.2185 172.892 20.8313 172.683 20.6131C172.474 20.3949 172.173 20.2873 171.782 20.2873H170.298V25.1213H171.782V25.1213Z" fill="#FCE229"/>
<path d="M179.066 18.2621H182.461V20.5117H179.066V25.1213H183.337V27.3708H176.592V11.6304H183.337V13.8799H179.066V18.2621Z" fill="#FCE229"/>
<path d="M188.936 20.0629C188.936 21.3229 188.875 22.4138 188.758 23.3358C188.638 24.2577 188.414 25.0198 188.082 25.6191C187.753 26.2183 187.298 26.6609 186.721 26.9467C186.143 27.2325 185.405 27.3738 184.505 27.3738H184.235V25.1243H184.53C184.984 25.1243 185.35 25.0045 185.63 24.7648C185.909 24.5251 186.125 24.1839 186.275 23.7414C186.426 23.2989 186.524 22.7642 186.57 22.1342C186.616 21.5042 186.638 20.8004 186.638 20.0199V11.6334H193.497V27.3738H191.023V13.8829H188.933V20.0629H188.936Z" fill="#FCE229"/>
<path d="M197.099 18.0378H198.583C199.828 18.0378 200.753 18.3666 201.361 19.0273C201.97 19.6881 202.271 20.653 202.271 21.9284V23.4803C202.271 24.7556 201.967 25.7206 201.361 26.3813C200.753 27.042 199.828 27.3708 198.583 27.3708H194.625V11.6304H197.099V18.0378ZM198.583 25.1213C198.973 25.1213 199.271 25.0138 199.484 24.7956C199.693 24.5774 199.797 24.1932 199.797 23.637V21.7716C199.797 21.2185 199.693 20.8313 199.484 20.6131C199.275 20.3949 198.973 20.2873 198.583 20.2873H197.099V25.1213H198.583V25.1213Z" fill="#FCE229"/>
<path d="M14.3579 21.5631L7.21946 14.4246L0 21.6421L14.3579 36L28.7138 21.6421L21.4943 14.4246L14.3579 21.5631Z" fill="#1961AC"/>
<path d="M14.3579 7.13844L7.21946 0L0 7.21744L14.3579 21.5733L28.7138 7.21744L21.4943 0L14.3579 7.13844Z" fill="#FFDE14"/>
</svg>
